G04 #@! TF.GenerationSoftware,KiCad,Pcbnew,(5.1.5)-3*
G04 #@! TF.CreationDate,2020-08-30T19:13:57+02:00*
G04 #@! TF.ProjectId,controller,636f6e74-726f-46c6-9c65-722e6b696361,rev?*
G04 #@! TF.SameCoordinates,Original*
G04 #@! TF.FileFunction,Copper,L2,Bot*
G04 #@! TF.FilePolarity,Positive*
%FSLAX46Y46*%
G04 Gerber Fmt 4.6, Leading zero omitted, Abs format (unit mm)*
G04 Created by KiCad (PCBNEW (5.1.5)-3) date 2020-08-30 19:13:57*
%MOMM*%
%LPD*%
G04 APERTURE LIST*
%ADD10C,0.050000*%
%ADD11O,1.700000X1.700000*%
%ADD12R,1.700000X1.700000*%
%ADD13C,0.100000*%
%ADD14C,0.500000*%
%ADD15O,2.100000X3.600000*%
%ADD16O,1.800000X3.600000*%
%ADD17O,3.600000X2.100000*%
%ADD18C,3.500000*%
%ADD19C,0.800000*%
%ADD20C,0.800000*%
%ADD21C,0.200000*%
%ADD22C,1.600000*%
%ADD23C,3.000000*%
%ADD24C,5.000000*%
%ADD25C,0.150000*%
%ADD26C,0.400000*%
%ADD27C,0.300000*%
%ADD28C,0.500000*%
%ADD29C,0.450000*%
%ADD30C,0.250000*%
%ADD31C,1.000000*%
%ADD32C,0.254000*%
G04 APERTURE END LIST*
D10*
X134620000Y-17272000D02*
X134620000Y-114300000D01*
X20320000Y-114300000D02*
X134620000Y-114300000D01*
X20320000Y-17272000D02*
X20320000Y-114300000D01*
X134620000Y-17272000D02*
X20320000Y-17272000D01*
D11*
X80568800Y-91948000D03*
X78028800Y-91948000D03*
X75488800Y-91948000D03*
X72948800Y-91948000D03*
X70408800Y-91948000D03*
X67868800Y-91948000D03*
D12*
X65328800Y-91948000D03*
D11*
X115062000Y-88392000D03*
X115062000Y-85852000D03*
D12*
X115062000Y-83312000D03*
G04 #@! TA.AperFunction,Conductor*
D13*
G36*
X124722504Y-31271204D02*
G01*
X124746773Y-31274804D01*
X124770571Y-31280765D01*
X124793671Y-31289030D01*
X124815849Y-31299520D01*
X124836893Y-31312133D01*
X124856598Y-31326747D01*
X124874777Y-31343223D01*
X124891253Y-31361402D01*
X124905867Y-31381107D01*
X124918480Y-31402151D01*
X124928970Y-31424329D01*
X124937235Y-31447429D01*
X124943196Y-31471227D01*
X124946796Y-31495496D01*
X124948000Y-31520000D01*
X124948000Y-33520000D01*
X124946796Y-33544504D01*
X124943196Y-33568773D01*
X124937235Y-33592571D01*
X124928970Y-33615671D01*
X124918480Y-33637849D01*
X124905867Y-33658893D01*
X124891253Y-33678598D01*
X124874777Y-33696777D01*
X124856598Y-33713253D01*
X124836893Y-33727867D01*
X124815849Y-33740480D01*
X124793671Y-33750970D01*
X124770571Y-33759235D01*
X124746773Y-33765196D01*
X124722504Y-33768796D01*
X124698000Y-33770000D01*
X122698000Y-33770000D01*
X122673496Y-33768796D01*
X122649227Y-33765196D01*
X122625429Y-33759235D01*
X122602329Y-33750970D01*
X122580151Y-33740480D01*
X122559107Y-33727867D01*
X122539402Y-33713253D01*
X122521223Y-33696777D01*
X122504747Y-33678598D01*
X122490133Y-33658893D01*
X122477520Y-33637849D01*
X122467030Y-33615671D01*
X122458765Y-33592571D01*
X122452804Y-33568773D01*
X122449204Y-33544504D01*
X122448000Y-33520000D01*
X122448000Y-31520000D01*
X122449204Y-31495496D01*
X122452804Y-31471227D01*
X122458765Y-31447429D01*
X122467030Y-31424329D01*
X122477520Y-31402151D01*
X122490133Y-31381107D01*
X122504747Y-31361402D01*
X122521223Y-31343223D01*
X122539402Y-31326747D01*
X122559107Y-31312133D01*
X122580151Y-31299520D01*
X122602329Y-31289030D01*
X122625429Y-31280765D01*
X122649227Y-31274804D01*
X122673496Y-31271204D01*
X122698000Y-31270000D01*
X124698000Y-31270000D01*
X124722504Y-31271204D01*
G37*
G04 #@! TD.AperFunction*
D14*
X124698000Y-33520000D03*
X123698000Y-33520000D03*
X122698000Y-33520000D03*
X124698000Y-32520000D03*
X123698000Y-32520000D03*
X122698000Y-32520000D03*
X124698000Y-31520000D03*
X123698000Y-31520000D03*
X122698000Y-31520000D03*
G04 #@! TA.AperFunction,Conductor*
D13*
G36*
X102942004Y-31263204D02*
G01*
X102966273Y-31266804D01*
X102990071Y-31272765D01*
X103013171Y-31281030D01*
X103035349Y-31291520D01*
X103056393Y-31304133D01*
X103076098Y-31318747D01*
X103094277Y-31335223D01*
X103110753Y-31353402D01*
X103125367Y-31373107D01*
X103137980Y-31394151D01*
X103148470Y-31416329D01*
X103156735Y-31439429D01*
X103162696Y-31463227D01*
X103166296Y-31487496D01*
X103167500Y-31512000D01*
X103167500Y-33512000D01*
X103166296Y-33536504D01*
X103162696Y-33560773D01*
X103156735Y-33584571D01*
X103148470Y-33607671D01*
X103137980Y-33629849D01*
X103125367Y-33650893D01*
X103110753Y-33670598D01*
X103094277Y-33688777D01*
X103076098Y-33705253D01*
X103056393Y-33719867D01*
X103035349Y-33732480D01*
X103013171Y-33742970D01*
X102990071Y-33751235D01*
X102966273Y-33757196D01*
X102942004Y-33760796D01*
X102917500Y-33762000D01*
X100917500Y-33762000D01*
X100892996Y-33760796D01*
X100868727Y-33757196D01*
X100844929Y-33751235D01*
X100821829Y-33742970D01*
X100799651Y-33732480D01*
X100778607Y-33719867D01*
X100758902Y-33705253D01*
X100740723Y-33688777D01*
X100724247Y-33670598D01*
X100709633Y-33650893D01*
X100697020Y-33629849D01*
X100686530Y-33607671D01*
X100678265Y-33584571D01*
X100672304Y-33560773D01*
X100668704Y-33536504D01*
X100667500Y-33512000D01*
X100667500Y-31512000D01*
X100668704Y-31487496D01*
X100672304Y-31463227D01*
X100678265Y-31439429D01*
X100686530Y-31416329D01*
X100697020Y-31394151D01*
X100709633Y-31373107D01*
X100724247Y-31353402D01*
X100740723Y-31335223D01*
X100758902Y-31318747D01*
X100778607Y-31304133D01*
X100799651Y-31291520D01*
X100821829Y-31281030D01*
X100844929Y-31272765D01*
X100868727Y-31266804D01*
X100892996Y-31263204D01*
X100917500Y-31262000D01*
X102917500Y-31262000D01*
X102942004Y-31263204D01*
G37*
G04 #@! TD.AperFunction*
D14*
X102917500Y-33512000D03*
X101917500Y-33512000D03*
X100917500Y-33512000D03*
X102917500Y-32512000D03*
X101917500Y-32512000D03*
X100917500Y-32512000D03*
X102917500Y-31512000D03*
X101917500Y-31512000D03*
X100917500Y-31512000D03*
G04 #@! TA.AperFunction,Conductor*
D13*
G36*
X81415504Y-31263204D02*
G01*
X81439773Y-31266804D01*
X81463571Y-31272765D01*
X81486671Y-31281030D01*
X81508849Y-31291520D01*
X81529893Y-31304133D01*
X81549598Y-31318747D01*
X81567777Y-31335223D01*
X81584253Y-31353402D01*
X81598867Y-31373107D01*
X81611480Y-31394151D01*
X81621970Y-31416329D01*
X81630235Y-31439429D01*
X81636196Y-31463227D01*
X81639796Y-31487496D01*
X81641000Y-31512000D01*
X81641000Y-33512000D01*
X81639796Y-33536504D01*
X81636196Y-33560773D01*
X81630235Y-33584571D01*
X81621970Y-33607671D01*
X81611480Y-33629849D01*
X81598867Y-33650893D01*
X81584253Y-33670598D01*
X81567777Y-33688777D01*
X81549598Y-33705253D01*
X81529893Y-33719867D01*
X81508849Y-33732480D01*
X81486671Y-33742970D01*
X81463571Y-33751235D01*
X81439773Y-33757196D01*
X81415504Y-33760796D01*
X81391000Y-33762000D01*
X79391000Y-33762000D01*
X79366496Y-33760796D01*
X79342227Y-33757196D01*
X79318429Y-33751235D01*
X79295329Y-33742970D01*
X79273151Y-33732480D01*
X79252107Y-33719867D01*
X79232402Y-33705253D01*
X79214223Y-33688777D01*
X79197747Y-33670598D01*
X79183133Y-33650893D01*
X79170520Y-33629849D01*
X79160030Y-33607671D01*
X79151765Y-33584571D01*
X79145804Y-33560773D01*
X79142204Y-33536504D01*
X79141000Y-33512000D01*
X79141000Y-31512000D01*
X79142204Y-31487496D01*
X79145804Y-31463227D01*
X79151765Y-31439429D01*
X79160030Y-31416329D01*
X79170520Y-31394151D01*
X79183133Y-31373107D01*
X79197747Y-31353402D01*
X79214223Y-31335223D01*
X79232402Y-31318747D01*
X79252107Y-31304133D01*
X79273151Y-31291520D01*
X79295329Y-31281030D01*
X79318429Y-31272765D01*
X79342227Y-31266804D01*
X79366496Y-31263204D01*
X79391000Y-31262000D01*
X81391000Y-31262000D01*
X81415504Y-31263204D01*
G37*
G04 #@! TD.AperFunction*
D14*
X81391000Y-33512000D03*
X80391000Y-33512000D03*
X79391000Y-33512000D03*
X81391000Y-32512000D03*
X80391000Y-32512000D03*
X79391000Y-32512000D03*
X81391000Y-31512000D03*
X80391000Y-31512000D03*
X79391000Y-31512000D03*
G04 #@! TA.AperFunction,Conductor*
D13*
G36*
X58928504Y-31178304D02*
G01*
X58952773Y-31181904D01*
X58976571Y-31187865D01*
X58999671Y-31196130D01*
X59021849Y-31206620D01*
X59042893Y-31219233D01*
X59062598Y-31233847D01*
X59080777Y-31250323D01*
X59097253Y-31268502D01*
X59111867Y-31288207D01*
X59124480Y-31309251D01*
X59134970Y-31331429D01*
X59143235Y-31354529D01*
X59149196Y-31378327D01*
X59152796Y-31402596D01*
X59154000Y-31427100D01*
X59154000Y-33427100D01*
X59152796Y-33451604D01*
X59149196Y-33475873D01*
X59143235Y-33499671D01*
X59134970Y-33522771D01*
X59124480Y-33544949D01*
X59111867Y-33565993D01*
X59097253Y-33585698D01*
X59080777Y-33603877D01*
X59062598Y-33620353D01*
X59042893Y-33634967D01*
X59021849Y-33647580D01*
X58999671Y-33658070D01*
X58976571Y-33666335D01*
X58952773Y-33672296D01*
X58928504Y-33675896D01*
X58904000Y-33677100D01*
X56904000Y-33677100D01*
X56879496Y-33675896D01*
X56855227Y-33672296D01*
X56831429Y-33666335D01*
X56808329Y-33658070D01*
X56786151Y-33647580D01*
X56765107Y-33634967D01*
X56745402Y-33620353D01*
X56727223Y-33603877D01*
X56710747Y-33585698D01*
X56696133Y-33565993D01*
X56683520Y-33544949D01*
X56673030Y-33522771D01*
X56664765Y-33499671D01*
X56658804Y-33475873D01*
X56655204Y-33451604D01*
X56654000Y-33427100D01*
X56654000Y-31427100D01*
X56655204Y-31402596D01*
X56658804Y-31378327D01*
X56664765Y-31354529D01*
X56673030Y-31331429D01*
X56683520Y-31309251D01*
X56696133Y-31288207D01*
X56710747Y-31268502D01*
X56727223Y-31250323D01*
X56745402Y-31233847D01*
X56765107Y-31219233D01*
X56786151Y-31206620D01*
X56808329Y-31196130D01*
X56831429Y-31187865D01*
X56855227Y-31181904D01*
X56879496Y-31178304D01*
X56904000Y-31177100D01*
X58904000Y-31177100D01*
X58928504Y-31178304D01*
G37*
G04 #@! TD.AperFunction*
D14*
X58904000Y-33427100D03*
X57904000Y-33427100D03*
X56904000Y-33427100D03*
X58904000Y-32427100D03*
X57904000Y-32427100D03*
X56904000Y-32427100D03*
X58904000Y-31427100D03*
X57904000Y-31427100D03*
X56904000Y-31427100D03*
G04 #@! TA.AperFunction,Conductor*
D13*
G36*
X37576504Y-31173204D02*
G01*
X37600773Y-31176804D01*
X37624571Y-31182765D01*
X37647671Y-31191030D01*
X37669849Y-31201520D01*
X37690893Y-31214133D01*
X37710598Y-31228747D01*
X37728777Y-31245223D01*
X37745253Y-31263402D01*
X37759867Y-31283107D01*
X37772480Y-31304151D01*
X37782970Y-31326329D01*
X37791235Y-31349429D01*
X37797196Y-31373227D01*
X37800796Y-31397496D01*
X37802000Y-31422000D01*
X37802000Y-33422000D01*
X37800796Y-33446504D01*
X37797196Y-33470773D01*
X37791235Y-33494571D01*
X37782970Y-33517671D01*
X37772480Y-33539849D01*
X37759867Y-33560893D01*
X37745253Y-33580598D01*
X37728777Y-33598777D01*
X37710598Y-33615253D01*
X37690893Y-33629867D01*
X37669849Y-33642480D01*
X37647671Y-33652970D01*
X37624571Y-33661235D01*
X37600773Y-33667196D01*
X37576504Y-33670796D01*
X37552000Y-33672000D01*
X35552000Y-33672000D01*
X35527496Y-33670796D01*
X35503227Y-33667196D01*
X35479429Y-33661235D01*
X35456329Y-33652970D01*
X35434151Y-33642480D01*
X35413107Y-33629867D01*
X35393402Y-33615253D01*
X35375223Y-33598777D01*
X35358747Y-33580598D01*
X35344133Y-33560893D01*
X35331520Y-33539849D01*
X35321030Y-33517671D01*
X35312765Y-33494571D01*
X35306804Y-33470773D01*
X35303204Y-33446504D01*
X35302000Y-33422000D01*
X35302000Y-31422000D01*
X35303204Y-31397496D01*
X35306804Y-31373227D01*
X35312765Y-31349429D01*
X35321030Y-31326329D01*
X35331520Y-31304151D01*
X35344133Y-31283107D01*
X35358747Y-31263402D01*
X35375223Y-31245223D01*
X35393402Y-31228747D01*
X35413107Y-31214133D01*
X35434151Y-31201520D01*
X35456329Y-31191030D01*
X35479429Y-31182765D01*
X35503227Y-31176804D01*
X35527496Y-31173204D01*
X35552000Y-31172000D01*
X37552000Y-31172000D01*
X37576504Y-31173204D01*
G37*
G04 #@! TD.AperFunction*
D14*
X37552000Y-33422000D03*
X36552000Y-33422000D03*
X35552000Y-33422000D03*
X37552000Y-32422000D03*
X36552000Y-32422000D03*
X35552000Y-32422000D03*
X37552000Y-31422000D03*
X36552000Y-31422000D03*
X35552000Y-31422000D03*
D11*
X98171000Y-19939000D03*
X100711000Y-19939000D03*
X103251000Y-19939000D03*
D12*
X105791000Y-19939000D03*
D11*
X76454000Y-19812000D03*
X78994000Y-19812000D03*
X81534000Y-19812000D03*
D12*
X84074000Y-19812000D03*
D11*
X52070000Y-91821000D03*
D12*
X49530000Y-91821000D03*
D11*
X54229000Y-19812000D03*
X56769000Y-19812000D03*
X59309000Y-19812000D03*
D12*
X61849000Y-19812000D03*
D11*
X32766000Y-19812000D03*
X35306000Y-19812000D03*
X37846000Y-19812000D03*
D12*
X40386000Y-19812000D03*
D11*
X74320400Y-87934800D03*
X71780400Y-87934800D03*
X69240400Y-87934800D03*
D12*
X66700400Y-87934800D03*
D11*
X60960000Y-94361000D03*
X58420000Y-94361000D03*
X60960000Y-91821000D03*
X58420000Y-91821000D03*
X60960000Y-89281000D03*
X58420000Y-89281000D03*
X60960000Y-86741000D03*
X58420000Y-86741000D03*
X60960000Y-84201000D03*
D12*
X58420000Y-84201000D03*
D11*
X60960000Y-77978000D03*
X58420000Y-77978000D03*
X60960000Y-75438000D03*
X58420000Y-75438000D03*
X60960000Y-72898000D03*
X58420000Y-72898000D03*
X60960000Y-70358000D03*
X58420000Y-70358000D03*
X60960000Y-67818000D03*
D12*
X58420000Y-67818000D03*
D11*
X116535200Y-70967600D03*
D12*
X116535200Y-68427600D03*
D11*
X107632500Y-68389500D03*
X107632500Y-70929500D03*
X107632500Y-73469500D03*
D12*
X107632500Y-76009500D03*
D11*
X119888000Y-19939000D03*
X122428000Y-19939000D03*
X124968000Y-19939000D03*
D12*
X127508000Y-19939000D03*
X123698000Y-44831000D03*
D11*
X119557800Y-53340000D03*
X117017800Y-53340000D03*
D12*
X114477800Y-53340000D03*
D11*
X106934000Y-56197500D03*
X106934000Y-58737500D03*
D12*
X106934000Y-61277500D03*
D11*
X119557000Y-57895000D03*
X117017000Y-57895000D03*
D12*
X114477000Y-57895000D03*
D11*
X119557800Y-62230000D03*
X117017800Y-62230000D03*
D12*
X114477800Y-62230000D03*
D11*
X80391000Y-45212000D03*
D12*
X82931000Y-45212000D03*
D11*
X57912000Y-45212000D03*
D12*
X60452000Y-45212000D03*
D15*
X61341000Y-108966000D03*
G04 #@! TA.AperFunction,ComponentPad*
D13*
G36*
X54545504Y-107167204D02*
G01*
X54569773Y-107170804D01*
X54593571Y-107176765D01*
X54616671Y-107185030D01*
X54638849Y-107195520D01*
X54659893Y-107208133D01*
X54679598Y-107222747D01*
X54697777Y-107239223D01*
X54714253Y-107257402D01*
X54728867Y-107277107D01*
X54741480Y-107298151D01*
X54751970Y-107320329D01*
X54760235Y-107343429D01*
X54766196Y-107367227D01*
X54769796Y-107391496D01*
X54771000Y-107416000D01*
X54771000Y-110516000D01*
X54769796Y-110540504D01*
X54766196Y-110564773D01*
X54760235Y-110588571D01*
X54751970Y-110611671D01*
X54741480Y-110633849D01*
X54728867Y-110654893D01*
X54714253Y-110674598D01*
X54697777Y-110692777D01*
X54679598Y-110709253D01*
X54659893Y-110723867D01*
X54638849Y-110736480D01*
X54616671Y-110746970D01*
X54593571Y-110755235D01*
X54569773Y-110761196D01*
X54545504Y-110764796D01*
X54521000Y-110766000D01*
X52921000Y-110766000D01*
X52896496Y-110764796D01*
X52872227Y-110761196D01*
X52848429Y-110755235D01*
X52825329Y-110746970D01*
X52803151Y-110736480D01*
X52782107Y-110723867D01*
X52762402Y-110709253D01*
X52744223Y-110692777D01*
X52727747Y-110674598D01*
X52713133Y-110654893D01*
X52700520Y-110633849D01*
X52690030Y-110611671D01*
X52681765Y-110588571D01*
X52675804Y-110564773D01*
X52672204Y-110540504D01*
X52671000Y-110516000D01*
X52671000Y-107416000D01*
X52672204Y-107391496D01*
X52675804Y-107367227D01*
X52681765Y-107343429D01*
X52690030Y-107320329D01*
X52700520Y-107298151D01*
X52713133Y-107277107D01*
X52727747Y-107257402D01*
X52744223Y-107239223D01*
X52762402Y-107222747D01*
X52782107Y-107208133D01*
X52803151Y-107195520D01*
X52825329Y-107185030D01*
X52848429Y-107176765D01*
X52872227Y-107170804D01*
X52896496Y-107167204D01*
X52921000Y-107166000D01*
X54521000Y-107166000D01*
X54545504Y-107167204D01*
G37*
G04 #@! TD.AperFunction*
D12*
X102108000Y-44704000D03*
D11*
X131318000Y-73469500D03*
D12*
X131318000Y-70929500D03*
D11*
X73342500Y-47625000D03*
X73342500Y-45085000D03*
D12*
X73342500Y-42545000D03*
D11*
X100279200Y-88430100D03*
X100279200Y-85890100D03*
D12*
X100279200Y-83350100D03*
D16*
X98806000Y-109855000D03*
G04 #@! TA.AperFunction,ComponentPad*
D13*
G36*
X94400504Y-108056204D02*
G01*
X94424773Y-108059804D01*
X94448571Y-108065765D01*
X94471671Y-108074030D01*
X94493849Y-108084520D01*
X94514893Y-108097133D01*
X94534598Y-108111747D01*
X94552777Y-108128223D01*
X94569253Y-108146402D01*
X94583867Y-108166107D01*
X94596480Y-108187151D01*
X94606970Y-108209329D01*
X94615235Y-108232429D01*
X94621196Y-108256227D01*
X94624796Y-108280496D01*
X94626000Y-108305000D01*
X94626000Y-111405000D01*
X94624796Y-111429504D01*
X94621196Y-111453773D01*
X94615235Y-111477571D01*
X94606970Y-111500671D01*
X94596480Y-111522849D01*
X94583867Y-111543893D01*
X94569253Y-111563598D01*
X94552777Y-111581777D01*
X94534598Y-111598253D01*
X94514893Y-111612867D01*
X94493849Y-111625480D01*
X94471671Y-111635970D01*
X94448571Y-111644235D01*
X94424773Y-111650196D01*
X94400504Y-111653796D01*
X94376000Y-111655000D01*
X93076000Y-111655000D01*
X93051496Y-111653796D01*
X93027227Y-111650196D01*
X93003429Y-111644235D01*
X92980329Y-111635970D01*
X92958151Y-111625480D01*
X92937107Y-111612867D01*
X92917402Y-111598253D01*
X92899223Y-111581777D01*
X92882747Y-111563598D01*
X92868133Y-111543893D01*
X92855520Y-111522849D01*
X92845030Y-111500671D01*
X92836765Y-111477571D01*
X92830804Y-111453773D01*
X92827204Y-111429504D01*
X92826000Y-111405000D01*
X92826000Y-108305000D01*
X92827204Y-108280496D01*
X92830804Y-108256227D01*
X92836765Y-108232429D01*
X92845030Y-108209329D01*
X92855520Y-108187151D01*
X92868133Y-108166107D01*
X92882747Y-108146402D01*
X92899223Y-108128223D01*
X92917402Y-108111747D01*
X92937107Y-108097133D01*
X92958151Y-108084520D01*
X92980329Y-108074030D01*
X93003429Y-108065765D01*
X93027227Y-108059804D01*
X93051496Y-108056204D01*
X93076000Y-108055000D01*
X94376000Y-108055000D01*
X94400504Y-108056204D01*
G37*
G04 #@! TD.AperFunction*
D11*
X36512500Y-45212000D03*
D12*
X39052500Y-45212000D03*
D17*
X26797000Y-93599000D03*
G04 #@! TA.AperFunction,ComponentPad*
D13*
G36*
X28371504Y-100170204D02*
G01*
X28395773Y-100173804D01*
X28419571Y-100179765D01*
X28442671Y-100188030D01*
X28464849Y-100198520D01*
X28485893Y-100211133D01*
X28505598Y-100225747D01*
X28523777Y-100242223D01*
X28540253Y-100260402D01*
X28554867Y-100280107D01*
X28567480Y-100301151D01*
X28577970Y-100323329D01*
X28586235Y-100346429D01*
X28592196Y-100370227D01*
X28595796Y-100394496D01*
X28597000Y-100419000D01*
X28597000Y-102019000D01*
X28595796Y-102043504D01*
X28592196Y-102067773D01*
X28586235Y-102091571D01*
X28577970Y-102114671D01*
X28567480Y-102136849D01*
X28554867Y-102157893D01*
X28540253Y-102177598D01*
X28523777Y-102195777D01*
X28505598Y-102212253D01*
X28485893Y-102226867D01*
X28464849Y-102239480D01*
X28442671Y-102249970D01*
X28419571Y-102258235D01*
X28395773Y-102264196D01*
X28371504Y-102267796D01*
X28347000Y-102269000D01*
X25247000Y-102269000D01*
X25222496Y-102267796D01*
X25198227Y-102264196D01*
X25174429Y-102258235D01*
X25151329Y-102249970D01*
X25129151Y-102239480D01*
X25108107Y-102226867D01*
X25088402Y-102212253D01*
X25070223Y-102195777D01*
X25053747Y-102177598D01*
X25039133Y-102157893D01*
X25026520Y-102136849D01*
X25016030Y-102114671D01*
X25007765Y-102091571D01*
X25001804Y-102067773D01*
X24998204Y-102043504D01*
X24997000Y-102019000D01*
X24997000Y-100419000D01*
X24998204Y-100394496D01*
X25001804Y-100370227D01*
X25007765Y-100346429D01*
X25016030Y-100323329D01*
X25026520Y-100301151D01*
X25039133Y-100280107D01*
X25053747Y-100260402D01*
X25070223Y-100242223D01*
X25088402Y-100225747D01*
X25108107Y-100211133D01*
X25129151Y-100198520D01*
X25151329Y-100188030D01*
X25174429Y-100179765D01*
X25198227Y-100173804D01*
X25222496Y-100170204D01*
X25247000Y-100169000D01*
X28347000Y-100169000D01*
X28371504Y-100170204D01*
G37*
G04 #@! TD.AperFunction*
D11*
X107823000Y-88404700D03*
X107823000Y-85864700D03*
D12*
X107823000Y-83324700D03*
D18*
X41021000Y-104196000D03*
X41021000Y-94996000D03*
D11*
X52832000Y-72898000D03*
D12*
X52832000Y-70358000D03*
D11*
X46786800Y-86817200D03*
D12*
X49326800Y-86817200D03*
G04 #@! TA.AperFunction,ComponentPad*
D13*
G36*
X119483004Y-107548204D02*
G01*
X119507273Y-107551804D01*
X119531071Y-107557765D01*
X119554171Y-107566030D01*
X119576349Y-107576520D01*
X119597393Y-107589133D01*
X119617098Y-107603747D01*
X119635277Y-107620223D01*
X119651753Y-107638402D01*
X119666367Y-107658107D01*
X119678980Y-107679151D01*
X119689470Y-107701329D01*
X119697735Y-107724429D01*
X119703696Y-107748227D01*
X119707296Y-107772496D01*
X119708500Y-107797000D01*
X119708500Y-110897000D01*
X119707296Y-110921504D01*
X119703696Y-110945773D01*
X119697735Y-110969571D01*
X119689470Y-110992671D01*
X119678980Y-111014849D01*
X119666367Y-111035893D01*
X119651753Y-111055598D01*
X119635277Y-111073777D01*
X119617098Y-111090253D01*
X119597393Y-111104867D01*
X119576349Y-111117480D01*
X119554171Y-111127970D01*
X119531071Y-111136235D01*
X119507273Y-111142196D01*
X119483004Y-111145796D01*
X119458500Y-111147000D01*
X118158500Y-111147000D01*
X118133996Y-111145796D01*
X118109727Y-111142196D01*
X118085929Y-111136235D01*
X118062829Y-111127970D01*
X118040651Y-111117480D01*
X118019607Y-111104867D01*
X117999902Y-111090253D01*
X117981723Y-111073777D01*
X117965247Y-111055598D01*
X117950633Y-111035893D01*
X117938020Y-111014849D01*
X117927530Y-110992671D01*
X117919265Y-110969571D01*
X117913304Y-110945773D01*
X117909704Y-110921504D01*
X117908500Y-110897000D01*
X117908500Y-107797000D01*
X117909704Y-107772496D01*
X117913304Y-107748227D01*
X117919265Y-107724429D01*
X117927530Y-107701329D01*
X117938020Y-107679151D01*
X117950633Y-107658107D01*
X117965247Y-107638402D01*
X117981723Y-107620223D01*
X117999902Y-107603747D01*
X118019607Y-107589133D01*
X118040651Y-107576520D01*
X118062829Y-107566030D01*
X118085929Y-107557765D01*
X118109727Y-107551804D01*
X118133996Y-107548204D01*
X118158500Y-107547000D01*
X119458500Y-107547000D01*
X119483004Y-107548204D01*
G37*
G04 #@! TD.AperFunction*
D16*
X123888500Y-109347000D03*
D19*
X31623100Y-71754900D03*
X43844300Y-80768100D03*
X30226000Y-28448000D03*
X27940000Y-33528000D03*
X32385000Y-35433000D03*
X26924000Y-70205600D03*
X26998085Y-71956085D03*
X30734000Y-22369000D03*
X27940000Y-28448000D03*
X42164000Y-28956000D03*
X60325000Y-60325000D03*
X58166000Y-58166000D03*
X115316000Y-47879000D03*
X118745000Y-48006000D03*
X96075500Y-64452500D03*
X97980500Y-69088000D03*
X103489000Y-64024000D03*
X95059500Y-73406000D03*
X86969600Y-54610000D03*
X76872300Y-54660800D03*
X79806800Y-65176400D03*
X77863200Y-62216800D03*
X51943000Y-59055000D03*
X93535500Y-85026500D03*
X91884500Y-77851000D03*
X97599500Y-88074500D03*
X110426500Y-55118000D03*
X94742000Y-63627000D03*
X96393000Y-65595500D03*
X101346000Y-49466500D03*
X103949500Y-53530500D03*
X110236000Y-64897000D03*
X67881500Y-55689500D03*
X62484000Y-53340000D03*
X79057500Y-52768500D03*
X78994000Y-62077600D03*
X87884000Y-97536000D03*
X87223600Y-67411600D03*
X114490500Y-76390500D03*
X80060800Y-62077600D03*
X104711500Y-93535500D03*
X51181000Y-50673000D03*
X52959000Y-48895000D03*
X69469000Y-60579000D03*
X70866000Y-64262000D03*
X65786000Y-65532000D03*
X64643000Y-59436000D03*
X51308000Y-28448000D03*
X49022000Y-34036000D03*
X67564000Y-50546000D03*
X83820000Y-53340000D03*
X83947000Y-50038000D03*
X73533000Y-28575000D03*
X72009000Y-34798000D03*
X94869000Y-28321000D03*
X93091000Y-34671000D03*
X87122000Y-50546000D03*
X85344000Y-53213000D03*
X67564000Y-53340000D03*
X71310500Y-50990500D03*
X71374000Y-53213000D03*
X77724000Y-52832000D03*
X77724000Y-50927000D03*
X79883000Y-50038000D03*
X81229200Y-55626000D03*
X83280000Y-73692000D03*
X69977000Y-78486000D03*
X84937600Y-73761600D03*
X90932000Y-75133200D03*
X93421200Y-74218800D03*
X76708000Y-68834000D03*
X66040000Y-77978000D03*
X76454000Y-67437000D03*
X65151000Y-78740000D03*
X77343000Y-66548000D03*
X64262000Y-79629000D03*
X75692000Y-66802000D03*
X63881000Y-80645000D03*
X78232000Y-73710800D03*
X79400400Y-73507600D03*
X88392000Y-51054000D03*
X86741000Y-53086000D03*
X81407000Y-54483000D03*
X91313000Y-48006000D03*
X86258400Y-48006000D03*
X81407000Y-49555400D03*
X53086000Y-36068000D03*
X51308000Y-22860000D03*
X48768000Y-28354000D03*
X63754000Y-28702000D03*
X73533000Y-22987000D03*
X71120000Y-28321000D03*
X86233000Y-28448000D03*
X76009500Y-36512500D03*
X92329000Y-29464000D03*
X95377000Y-23114000D03*
X97345500Y-36639500D03*
X107191000Y-29334000D03*
X119380000Y-36449000D03*
X128908000Y-29334000D03*
X117094000Y-23114000D03*
X114300000Y-29337000D03*
X67183000Y-64325500D03*
X65532000Y-74295000D03*
X101346000Y-76454000D03*
X80264000Y-101346000D03*
X81534000Y-101346000D03*
X83803351Y-103013649D03*
X84963000Y-101473000D03*
X83312000Y-101346000D03*
X101282500Y-99377500D03*
X103060500Y-99377500D03*
X101949250Y-98266250D03*
X103882500Y-98365000D03*
X103441500Y-96964500D03*
X122809000Y-88963500D03*
X122809000Y-87185500D03*
X122872500Y-85915500D03*
X122872500Y-84455000D03*
X124145500Y-84515500D03*
X122618500Y-77533500D03*
X122022000Y-75857500D03*
X122999500Y-76390500D03*
X84582000Y-77343000D03*
X71628000Y-78105000D03*
X63309500Y-68834000D03*
X71755000Y-68770500D03*
X67183000Y-72199500D03*
X64770000Y-82677000D03*
X85344000Y-72796400D03*
X86619468Y-72776468D03*
X69596000Y-80010000D03*
X63627000Y-82804000D03*
X75692000Y-68453000D03*
X84963000Y-78359000D03*
X72701401Y-76802999D03*
X75374500Y-63373000D03*
X75755500Y-62230000D03*
X68783200Y-84937600D03*
X120523000Y-28829000D03*
X123063000Y-23495000D03*
X124460000Y-23495000D03*
X127254000Y-29083000D03*
X87325200Y-81076800D03*
X87604600Y-79679800D03*
X86969600Y-63500000D03*
X89471500Y-92710000D03*
X87172800Y-64668400D03*
X90741500Y-92710000D03*
X43180000Y-55118000D03*
X53213000Y-62484000D03*
X33782000Y-28956000D03*
X35814000Y-24130000D03*
X37338000Y-24130000D03*
X39370000Y-28956000D03*
X54864000Y-28956000D03*
X57150000Y-24384000D03*
X58674000Y-24384000D03*
X61214000Y-28956000D03*
X77216000Y-29083000D03*
X79756000Y-23114000D03*
X81280000Y-23241000D03*
X83947000Y-29210000D03*
X98806000Y-28829000D03*
X101219000Y-23749000D03*
X102417500Y-23296500D03*
X105537000Y-28956000D03*
X81851500Y-58356500D03*
X99441000Y-55308500D03*
X44196000Y-42545000D03*
X48387000Y-43053000D03*
X62865000Y-64389000D03*
X62865000Y-57531000D03*
X42037000Y-41529000D03*
X48641000Y-41529000D03*
X64135000Y-64262000D03*
X63735001Y-56642000D03*
X66536001Y-66559999D03*
X65836011Y-55575989D03*
X65836011Y-57861989D03*
X65836011Y-50368989D03*
X69215000Y-50927000D03*
X72771000Y-54229000D03*
X72771000Y-56515000D03*
X84201000Y-62103000D03*
X84582000Y-65532000D03*
X85344000Y-67437000D03*
X86931500Y-46164500D03*
X93154500Y-50165000D03*
X105029000Y-41973500D03*
X102679500Y-52705000D03*
X99676490Y-58184510D03*
X87258793Y-69052807D03*
X95123000Y-60896500D03*
X91122500Y-68961000D03*
X125730000Y-38732000D03*
X127063500Y-46164500D03*
X116967000Y-28448000D03*
X115062000Y-34671000D03*
X103886000Y-49022000D03*
X103886000Y-51181000D03*
X105548999Y-51931001D03*
X105664000Y-49530000D03*
X86817200Y-62179200D03*
X125031500Y-80200500D03*
D20*
X31623100Y-71754900D02*
X37566500Y-71754900D01*
X37566500Y-71754900D02*
X40589200Y-74777600D01*
X40589200Y-77513000D02*
X43844300Y-80768100D01*
X40589200Y-74777600D02*
X40589200Y-77513000D01*
D21*
X28956000Y-31242000D02*
X28956000Y-31242000D01*
X27940000Y-32258000D02*
X27940000Y-33528000D01*
X30226000Y-28448000D02*
X30226000Y-29972000D01*
X30226000Y-29972000D02*
X27940000Y-32258000D01*
D22*
X26924000Y-71882000D02*
X26998085Y-71956085D01*
X26924000Y-70205600D02*
X26924000Y-71882000D01*
X23317200Y-76202655D02*
X23317200Y-80416400D01*
X26998085Y-72521770D02*
X23317200Y-76202655D01*
X26998085Y-71956085D02*
X26998085Y-72521770D01*
D23*
X23300990Y-80450990D02*
X23317200Y-80416400D01*
X46726799Y-85773619D02*
X46726799Y-86817200D01*
X23300990Y-85766610D02*
X46719790Y-85766610D01*
X23300990Y-85766610D02*
X23300990Y-80450990D01*
X46719790Y-85766610D02*
X46726799Y-85773619D01*
D24*
X36552000Y-32422000D02*
X36552000Y-33422000D01*
D25*
X34541000Y-35433000D02*
X36552000Y-33422000D01*
X32385000Y-35433000D02*
X34541000Y-35433000D01*
D23*
X94626000Y-110755000D02*
X94626000Y-111050500D01*
X94626000Y-110755000D02*
X93726000Y-109855000D01*
X117602000Y-109040500D02*
X117602000Y-108585000D01*
X118808500Y-109347000D02*
X117602000Y-108585000D01*
X117908500Y-110247000D02*
X117908500Y-110479000D01*
X118808500Y-109347000D02*
X117908500Y-110247000D01*
X117908500Y-110479000D02*
X118935500Y-111506000D01*
D22*
X131318000Y-70929500D02*
X133032500Y-70929500D01*
D26*
X57170000Y-84201000D02*
X58420000Y-84201000D01*
X57119999Y-84150999D02*
X57170000Y-84201000D01*
X57119999Y-67868001D02*
X57119999Y-84150999D01*
X57170000Y-67818000D02*
X57119999Y-67868001D01*
X58420000Y-67818000D02*
X57170000Y-67818000D01*
D27*
X65550400Y-87934800D02*
X66700400Y-87934800D01*
X65494199Y-87991001D02*
X65550400Y-87934800D01*
X60359999Y-87991001D02*
X65494199Y-87991001D01*
X59709999Y-87341001D02*
X60359999Y-87991001D01*
X59709999Y-84340999D02*
X59709999Y-87341001D01*
X59570000Y-84201000D02*
X59709999Y-84340999D01*
X58420000Y-84201000D02*
X59570000Y-84201000D01*
D22*
X51943000Y-84201000D02*
X58420000Y-84201000D01*
X49326800Y-86817200D02*
X51943000Y-84201000D01*
D28*
X58420000Y-66468000D02*
X60325000Y-64563000D01*
X58420000Y-67818000D02*
X58420000Y-66468000D01*
X60325000Y-64563000D02*
X60325000Y-60325000D01*
X60325000Y-60325000D02*
X60325000Y-60325000D01*
X58990002Y-58166000D02*
X64262000Y-52894002D01*
X58166000Y-58166000D02*
X58990002Y-58166000D01*
X64262000Y-52894002D02*
X64262000Y-50546000D01*
X69723000Y-45085000D02*
X73342500Y-45085000D01*
X64262000Y-50546000D02*
X69723000Y-45085000D01*
D29*
X77329001Y-41098499D02*
X110313499Y-41098499D01*
X73342500Y-45085000D02*
X77329001Y-41098499D01*
X110313499Y-41098499D02*
X115316000Y-46101000D01*
X115316000Y-46101000D02*
X115316000Y-47879000D01*
X115316000Y-47879000D02*
X115316000Y-47879000D01*
X120882801Y-62866001D02*
X119232802Y-64516000D01*
X118745000Y-48006000D02*
X120882801Y-50143801D01*
X120882801Y-50143801D02*
X120882801Y-62866001D01*
X119232802Y-64516000D02*
X118110000Y-64516000D01*
X116535200Y-66090800D02*
X116535200Y-68427600D01*
X118110000Y-64516000D02*
X116535200Y-66090800D01*
D21*
X94381999Y-62876999D02*
X93991999Y-63266999D01*
X95065684Y-62876999D02*
X94381999Y-62876999D01*
X96075500Y-64452500D02*
X96075500Y-63886815D01*
X93991999Y-63266999D02*
X93991999Y-67575999D01*
X96075500Y-63886815D02*
X95065684Y-62876999D01*
X93991999Y-67575999D02*
X95504000Y-69088000D01*
X95504000Y-69088000D02*
X97980500Y-69088000D01*
X97980500Y-69088000D02*
X97980500Y-69088000D01*
D27*
X103060500Y-64452500D02*
X103489000Y-64024000D01*
X96075500Y-64452500D02*
X103060500Y-64452500D01*
D21*
X97980500Y-70485000D02*
X97980500Y-69088000D01*
X95059500Y-73406000D02*
X97980500Y-70485000D01*
X95059500Y-73406000D02*
X93980000Y-72326500D01*
D30*
X83392202Y-54610000D02*
X86969600Y-54610000D01*
X76872300Y-54660800D02*
X79298800Y-54660800D01*
X79298800Y-54660800D02*
X80454199Y-55816199D01*
X80454199Y-55998001D02*
X80857199Y-56401001D01*
X80454199Y-55816199D02*
X80454199Y-55998001D01*
X81601201Y-56401001D02*
X83392202Y-54610000D01*
X80857199Y-56401001D02*
X81601201Y-56401001D01*
D21*
X79806800Y-65176400D02*
X78790800Y-65176400D01*
X77863200Y-64248800D02*
X77863200Y-62216800D01*
X78790800Y-65176400D02*
X77863200Y-64248800D01*
D20*
X52342999Y-59454999D02*
X51943000Y-59055000D01*
X54263001Y-61375001D02*
X52342999Y-59454999D01*
X54263001Y-67276999D02*
X54263001Y-61375001D01*
X52832000Y-68708000D02*
X54263001Y-67276999D01*
X52832000Y-70358000D02*
X52832000Y-68708000D01*
X54263001Y-61375001D02*
X57115999Y-61375001D01*
X57115999Y-61375001D02*
X62357000Y-56134000D01*
X62357000Y-56134000D02*
X62992000Y-55499000D01*
D28*
X70991955Y-54789499D02*
X71291946Y-55089490D01*
X67449499Y-54789499D02*
X70991955Y-54789499D01*
X66981499Y-55257499D02*
X67449499Y-54789499D01*
X66981499Y-55762503D02*
X66981499Y-55257499D01*
X63003001Y-55510001D02*
X64438021Y-55510001D01*
X62992000Y-55499000D02*
X63003001Y-55510001D01*
X64438021Y-55510001D02*
X65404010Y-56475990D01*
X65404010Y-56475990D02*
X66268012Y-56475990D01*
X66268012Y-56475990D02*
X66981499Y-55762503D01*
X71291946Y-55089490D02*
X72390000Y-55089490D01*
D29*
X72488490Y-55089490D02*
X72513490Y-55114490D01*
X72390000Y-55089490D02*
X72488490Y-55089490D01*
X72513490Y-55114490D02*
X73152000Y-55114490D01*
D20*
X76872300Y-54660800D02*
X73938690Y-54660800D01*
X73938690Y-54660800D02*
X73660000Y-54939490D01*
D28*
X73242311Y-55089490D02*
X73152000Y-55089490D01*
X73938690Y-54660800D02*
X73671001Y-54660800D01*
X73671001Y-54660800D02*
X73242311Y-55089490D01*
D21*
X93535500Y-85026500D02*
X93535500Y-82677000D01*
X93535500Y-82677000D02*
X91884500Y-81026000D01*
X91884500Y-81026000D02*
X91884500Y-77851000D01*
X91884500Y-77851000D02*
X91884500Y-77851000D01*
D25*
X106973001Y-87554701D02*
X107823000Y-88404700D01*
X106673399Y-87255099D02*
X106973001Y-87554701D01*
X97599500Y-87508815D02*
X97726500Y-87381815D01*
X97599500Y-88074500D02*
X97599500Y-87508815D01*
X97726500Y-87381815D02*
X97726500Y-87376000D01*
X97847401Y-87255099D02*
X106673399Y-87255099D01*
X97726500Y-87376000D02*
X97847401Y-87255099D01*
D21*
X92794499Y-50915001D02*
X99643499Y-50915001D01*
X92404499Y-50525001D02*
X92794499Y-50915001D01*
X82931000Y-46262000D02*
X83924999Y-47255999D01*
X82931000Y-45212000D02*
X82931000Y-46262000D01*
X83924999Y-47255999D02*
X91673001Y-47255999D01*
X91673001Y-47255999D02*
X92404499Y-47987497D01*
X92404499Y-47987497D02*
X92404499Y-50525001D01*
X100920990Y-52620546D02*
X102592944Y-54292500D01*
X99643499Y-50915001D02*
X100920990Y-52192492D01*
X100920990Y-52192492D02*
X100920990Y-52620546D01*
X102592944Y-54292500D02*
X109601000Y-54292500D01*
X109601000Y-54292500D02*
X110426500Y-55118000D01*
X110426500Y-55118000D02*
X110426500Y-55118000D01*
D25*
X114490500Y-63182500D02*
X114477800Y-62230000D01*
X113384499Y-64171999D02*
X114373998Y-63182500D01*
X109818001Y-64171999D02*
X113384499Y-64171999D01*
X107605999Y-66384001D02*
X109818001Y-64171999D01*
X94742000Y-63627000D02*
X94640502Y-63627000D01*
X114373998Y-63182500D02*
X114490500Y-63182500D01*
X94640502Y-63627000D02*
X94424511Y-63842991D01*
X94424511Y-65652513D02*
X95155999Y-66384001D01*
X94424511Y-63842991D02*
X94424511Y-65652513D01*
X95155999Y-66384001D02*
X107605999Y-66384001D01*
X113459499Y-59912501D02*
X114477000Y-58895000D01*
X101346000Y-52444502D02*
X102431998Y-53530500D01*
X101346000Y-49466500D02*
X101346000Y-52444502D01*
X102431998Y-53530500D02*
X103949500Y-53530500D01*
X103949500Y-53530500D02*
X103949500Y-53530500D01*
X114477000Y-58895000D02*
X114477000Y-57895000D01*
X107776500Y-65595500D02*
X114477000Y-58895000D01*
X96393000Y-65595500D02*
X107776500Y-65595500D01*
X115477800Y-53340000D02*
X114477800Y-53340000D01*
X115652801Y-53515001D02*
X115477800Y-53340000D01*
X115652801Y-63340001D02*
X115652801Y-53515001D01*
X114095802Y-64897000D02*
X115652801Y-63340001D01*
X110236000Y-64897000D02*
X114095802Y-64897000D01*
D21*
X39052500Y-45212000D02*
X51816000Y-45212000D01*
X67881500Y-55689500D02*
X76644500Y-55689500D01*
X80061501Y-59106501D02*
X83577999Y-59106501D01*
X76644500Y-55689500D02*
X80061501Y-59106501D01*
X83577999Y-59106501D02*
X84645500Y-58039000D01*
X84645500Y-58039000D02*
X88709500Y-58039000D01*
X114477800Y-54390000D02*
X114477800Y-53340000D01*
X111470299Y-57397501D02*
X114477800Y-54390000D01*
X89350999Y-57397501D02*
X111470299Y-57397501D01*
X88709500Y-58039000D02*
X89350999Y-57397501D01*
X59944000Y-53340000D02*
X62484000Y-53340000D01*
X51816000Y-45212000D02*
X59944000Y-53340000D01*
X62484000Y-53340000D02*
X62484000Y-53340000D01*
X79057500Y-52768500D02*
X79057500Y-50419000D01*
X76263500Y-47625000D02*
X73342500Y-47625000D01*
X79057500Y-50419000D02*
X76263500Y-47625000D01*
D25*
X78994000Y-62077600D02*
X78994000Y-63296800D01*
X78994000Y-63296800D02*
X80568800Y-64871600D01*
X80568800Y-64871600D02*
X80568800Y-69589102D01*
X80568800Y-69589102D02*
X82607698Y-71628000D01*
X82607698Y-71628000D02*
X82985249Y-72005551D01*
X82985249Y-72005551D02*
X87194751Y-72005551D01*
X87194751Y-72005551D02*
X87426800Y-72237600D01*
X87426800Y-72237600D02*
X87426800Y-76403200D01*
X87426800Y-76403200D02*
X87426800Y-78409800D01*
X88329601Y-79312601D02*
X88329601Y-81469399D01*
X87426800Y-78409800D02*
X88329601Y-79312601D01*
X88329601Y-81469399D02*
X87884000Y-81915000D01*
X87884000Y-81915000D02*
X87884000Y-97536000D01*
X87884000Y-97536000D02*
X87884000Y-97536000D01*
X86533792Y-68667093D02*
X86533792Y-69705608D01*
X87223600Y-67411600D02*
X87223600Y-67977285D01*
X87223600Y-67977285D02*
X86533792Y-68667093D01*
X86533792Y-69705608D02*
X86833685Y-70005501D01*
X88023196Y-70005501D02*
X89426850Y-71409155D01*
X86833685Y-70005501D02*
X88023196Y-70005501D01*
X89426850Y-71409155D02*
X89426850Y-72136000D01*
X89426850Y-72136000D02*
X89426850Y-72961500D01*
X89426850Y-72961500D02*
X89426850Y-73107350D01*
X89426850Y-73107350D02*
X89789000Y-73469500D01*
X89789000Y-73469500D02*
X93916500Y-73469500D01*
X94578001Y-74131001D02*
X99531001Y-74131001D01*
X93916500Y-73469500D02*
X94578001Y-74131001D01*
X99531001Y-74131001D02*
X100139500Y-74739500D01*
X100139500Y-74739500D02*
X100139500Y-76517500D01*
X100801001Y-77179001D02*
X105373001Y-77179001D01*
X100139500Y-76517500D02*
X100801001Y-77179001D01*
X105373001Y-77179001D02*
X105918000Y-77724000D01*
X105918000Y-77724000D02*
X113157000Y-77724000D01*
X113157000Y-77724000D02*
X114490500Y-76390500D01*
X114490500Y-76390500D02*
X114490500Y-76390500D01*
X88729611Y-81635088D02*
X88284010Y-82080689D01*
X89027000Y-95123000D02*
X103124000Y-95123000D01*
X80968810Y-64705911D02*
X80968810Y-69423414D01*
X80968810Y-69423414D02*
X83150937Y-71605541D01*
X80060800Y-63797902D02*
X80968810Y-64705911D01*
X103124000Y-95123000D02*
X104711500Y-93535500D01*
X88284010Y-94380010D02*
X89027000Y-95123000D01*
X88284010Y-82080689D02*
X88284010Y-94380010D01*
X87826810Y-72071911D02*
X87826810Y-78244112D01*
X83150937Y-71605541D02*
X87360440Y-71605541D01*
X87826810Y-78244112D02*
X88729611Y-79146912D01*
X80060800Y-62077600D02*
X80060800Y-63797902D01*
X87360440Y-71605541D02*
X87826810Y-72071911D01*
X88729611Y-79146912D02*
X88729611Y-81635088D01*
D21*
X51181000Y-50673000D02*
X51580999Y-50273001D01*
X51580999Y-50273001D02*
X52959000Y-48895000D01*
X52959000Y-48895000D02*
X52959000Y-48895000D01*
X69469000Y-60579000D02*
X69469000Y-62992000D01*
X69469000Y-62992000D02*
X69469000Y-63627000D01*
X69469000Y-63627000D02*
X70104000Y-64262000D01*
X70104000Y-64262000D02*
X70866000Y-64262000D01*
X70866000Y-64262000D02*
X70866000Y-64262000D01*
D25*
X65386001Y-60179001D02*
X64643000Y-59436000D01*
X65386001Y-63862001D02*
X65386001Y-60179001D01*
D21*
X65386001Y-65132001D02*
X65786000Y-65532000D01*
X65386001Y-63862001D02*
X65386001Y-65132001D01*
D30*
X51308000Y-28448000D02*
X51308000Y-29972000D01*
X51308000Y-29972000D02*
X49022000Y-32258000D01*
X49022000Y-32258000D02*
X49022000Y-34036000D01*
X49022000Y-34036000D02*
X49022000Y-34036000D01*
D21*
X83820000Y-50165000D02*
X83947000Y-50038000D01*
X83820000Y-53340000D02*
X83820000Y-50165000D01*
D30*
X73533000Y-28575000D02*
X73533000Y-29140685D01*
X73533000Y-29140685D02*
X73533000Y-30226000D01*
X73533000Y-30226000D02*
X72009000Y-31750000D01*
X72009000Y-31750000D02*
X72009000Y-34798000D01*
X72009000Y-34798000D02*
X72009000Y-34798000D01*
X94869000Y-28321000D02*
X94869000Y-30099000D01*
X94869000Y-30099000D02*
X93091000Y-31877000D01*
X93091000Y-31877000D02*
X93091000Y-34671000D01*
X93091000Y-34671000D02*
X93091000Y-34671000D01*
D21*
X87122000Y-50546000D02*
X86556315Y-50546000D01*
X86556315Y-50546000D02*
X85598000Y-50546000D01*
X85598000Y-50546000D02*
X85344000Y-50800000D01*
X85344000Y-50800000D02*
X85344000Y-53213000D01*
X85344000Y-53213000D02*
X85344000Y-53213000D01*
X67564000Y-50546000D02*
X67564000Y-51111685D01*
X67564000Y-51111685D02*
X67564000Y-53086000D01*
X67564000Y-53086000D02*
X67564000Y-53340000D01*
X67564000Y-53340000D02*
X67564000Y-53340000D01*
X71374000Y-51054000D02*
X71310500Y-50990500D01*
X71374000Y-53213000D02*
X71374000Y-51054000D01*
X77724000Y-52832000D02*
X77724000Y-50927000D01*
X80448685Y-50038000D02*
X80645000Y-50234315D01*
X79883000Y-50038000D02*
X80448685Y-50038000D01*
X80645000Y-54165500D02*
X80656999Y-54177499D01*
X80645000Y-50234315D02*
X80645000Y-54165500D01*
X80656999Y-54843001D02*
X81229200Y-55415202D01*
X80656999Y-54177499D02*
X80656999Y-54843001D01*
X81229200Y-55415202D02*
X81229200Y-55626000D01*
D25*
X69977000Y-78486000D02*
X69977000Y-78486000D01*
X71596050Y-75527649D02*
X71596050Y-76393445D01*
X71596050Y-76393445D02*
X69977000Y-78012494D01*
X71672410Y-72624278D02*
X71672410Y-75451289D01*
X72401127Y-71895561D02*
X71672410Y-72624278D01*
X83280000Y-73692000D02*
X83280000Y-73431699D01*
X83280000Y-73431699D02*
X80504712Y-70656410D01*
X78279768Y-70656410D02*
X77040618Y-71895561D01*
X69977000Y-78012494D02*
X69977000Y-78486000D01*
X71672410Y-75451289D02*
X71596050Y-75527649D01*
X80504712Y-70656410D02*
X78279768Y-70656410D01*
X77040618Y-71895561D02*
X72401127Y-71895561D01*
X83280000Y-73692000D02*
X83845685Y-73692000D01*
X83845685Y-73692000D02*
X84868000Y-73692000D01*
X84868000Y-73692000D02*
X84937600Y-73761600D01*
X84937600Y-73761600D02*
X84937600Y-73761600D01*
X91497685Y-75133200D02*
X92412085Y-74218800D01*
X90932000Y-75133200D02*
X91497685Y-75133200D01*
X92412085Y-74218800D02*
X93421200Y-74218800D01*
X93421200Y-74218800D02*
X93421200Y-74218800D01*
X66040000Y-77978000D02*
X66040000Y-77978000D01*
X76708000Y-68834000D02*
X76708000Y-69399685D01*
X67437000Y-77724000D02*
X67183000Y-77978000D01*
X69596000Y-75184000D02*
X69596000Y-75565000D01*
X76212174Y-69895511D02*
X74815188Y-69895511D01*
X76708000Y-69399685D02*
X76212174Y-69895511D01*
X67564000Y-77597000D02*
X67437000Y-77724000D01*
X69596000Y-71872198D02*
X69596000Y-74295000D01*
X67183000Y-77978000D02*
X66040000Y-77978000D01*
X69596000Y-74803000D02*
X69596000Y-75184000D01*
X69596000Y-75565000D02*
X67564000Y-77597000D01*
X69596000Y-74295000D02*
X69596000Y-74803000D01*
X74815188Y-69895511D02*
X71572687Y-69895511D01*
X71572687Y-69895511D02*
X69596000Y-71872198D01*
X65151000Y-78740000D02*
X65151000Y-78740000D01*
X76377863Y-70295521D02*
X71738375Y-70295521D01*
X76454000Y-67437000D02*
X77433001Y-68416001D01*
X71738375Y-70295521D02*
X69996010Y-72037886D01*
X77433001Y-68416001D02*
X77433001Y-69240382D01*
X69996010Y-72037886D02*
X69996010Y-74129311D01*
X66986699Y-78740000D02*
X65151000Y-78740000D01*
X77433001Y-69240382D02*
X76377863Y-70295521D01*
X69996010Y-75730689D02*
X66986699Y-78740000D01*
X69996010Y-74803000D02*
X69996010Y-75730689D01*
X69996010Y-74129311D02*
X69996010Y-74803000D01*
X64262000Y-79629000D02*
X64262000Y-79629000D01*
X67552397Y-78740000D02*
X66663397Y-79629000D01*
X77833011Y-67038011D02*
X77833011Y-69406071D01*
X70396020Y-75896378D02*
X67552397Y-78740000D01*
X77343000Y-66548000D02*
X77833011Y-67038011D01*
X70396020Y-72203574D02*
X70396020Y-73963622D01*
X77833011Y-69406071D02*
X77135082Y-70104000D01*
X70396020Y-74422000D02*
X70396020Y-75896378D01*
X77135082Y-70104000D02*
X76543552Y-70695531D01*
X66663397Y-79629000D02*
X64262000Y-79629000D01*
X76543552Y-70695531D02*
X71904063Y-70695531D01*
X70396020Y-73963622D02*
X70396020Y-74422000D01*
X71904063Y-70695531D02*
X70396020Y-72203574D01*
X63881000Y-80645000D02*
X63881000Y-80645000D01*
X66213097Y-80645000D02*
X63881000Y-80645000D01*
X78233021Y-69571760D02*
X76709241Y-71095541D01*
X72069751Y-71095541D02*
X70796030Y-72369262D01*
X70796030Y-76062067D02*
X66213097Y-80645000D01*
X70796030Y-72369262D02*
X70796030Y-73797933D01*
X70796030Y-74168000D02*
X70796030Y-76062067D01*
X70796030Y-73797933D02*
X70796030Y-74168000D01*
X76709241Y-71095541D02*
X72069751Y-71095541D01*
X75692000Y-66802000D02*
X76671001Y-65822999D01*
X78233021Y-66365019D02*
X78233021Y-69571760D01*
X76671001Y-65822999D02*
X77691001Y-65822999D01*
X77691001Y-65822999D02*
X78233021Y-66365019D01*
X75336400Y-73710800D02*
X73826412Y-75220788D01*
X71780400Y-86715600D02*
X71780400Y-87934800D01*
X78232000Y-73710800D02*
X75336400Y-73710800D01*
X71755000Y-86690200D02*
X71780400Y-86715600D01*
X73826412Y-75220788D02*
X73826412Y-77545289D01*
X73826412Y-77545289D02*
X71755000Y-79616700D01*
X71755000Y-79616700D02*
X71755000Y-86690200D01*
X77890201Y-74435801D02*
X77565210Y-74110810D01*
X77565210Y-74110810D02*
X75502088Y-74110810D01*
X79400400Y-74073285D02*
X79037884Y-74435801D01*
X79037884Y-74435801D02*
X77890201Y-74435801D01*
X75502088Y-74110810D02*
X74226422Y-75386476D01*
X74226422Y-75386476D02*
X74226422Y-77710978D01*
X74226422Y-77710978D02*
X72155010Y-79782389D01*
X79400400Y-73507600D02*
X79400400Y-74073285D01*
X72155010Y-85769410D02*
X74320400Y-87934800D01*
X72155010Y-79782389D02*
X72155010Y-85769410D01*
D21*
X87992001Y-51453999D02*
X87230001Y-51453999D01*
X88392000Y-51054000D02*
X87992001Y-51453999D01*
X87230001Y-51453999D02*
X86741000Y-51943000D01*
X86741000Y-51943000D02*
X86741000Y-52705000D01*
X86741000Y-52705000D02*
X86741000Y-53086000D01*
X86741000Y-53086000D02*
X86741000Y-53086000D01*
X91313000Y-48006000D02*
X86258400Y-48006000D01*
X81407000Y-49555400D02*
X81407000Y-54483000D01*
D24*
X57904000Y-32427100D02*
X57904000Y-32012000D01*
D26*
X63754000Y-28702000D02*
X63754000Y-29464000D01*
X60790900Y-32427100D02*
X58904000Y-32427100D01*
X63754000Y-29464000D02*
X60790900Y-32427100D01*
D24*
X80391000Y-32512000D02*
X80391000Y-33512000D01*
D26*
X81641000Y-32512000D02*
X80391000Y-32512000D01*
X82734685Y-32512000D02*
X81641000Y-32512000D01*
X86233000Y-29013685D02*
X82734685Y-32512000D01*
X86233000Y-28448000D02*
X86233000Y-29013685D01*
D24*
X101917500Y-32512000D02*
X101917500Y-33512000D01*
D25*
X101473000Y-32512000D02*
X101917500Y-32512000D01*
X97345500Y-36639500D02*
X101473000Y-32512000D01*
D24*
X123698000Y-32520000D02*
X123698000Y-33020000D01*
D30*
X124948000Y-32520000D02*
X123698000Y-32520000D01*
X126287685Y-32520000D02*
X124948000Y-32520000D01*
X128908000Y-29899685D02*
X126287685Y-32520000D01*
X128908000Y-29334000D02*
X128908000Y-29899685D01*
D26*
X117017800Y-52137919D02*
X117030500Y-52125219D01*
X117017800Y-53340000D02*
X117017800Y-52137919D01*
X117030500Y-52125219D02*
X117030500Y-35306000D01*
X122698000Y-32873553D02*
X122698000Y-32520000D01*
X122698000Y-33520000D02*
X122698000Y-32873553D01*
X120912000Y-35306000D02*
X122698000Y-33520000D01*
X117030500Y-35306000D02*
X120912000Y-35306000D01*
D21*
X67183000Y-64325500D02*
X67183000Y-66096996D01*
X67183000Y-66096996D02*
X67286002Y-66199998D01*
X65532000Y-74295000D02*
X65532000Y-74295000D01*
X67286002Y-66199998D02*
X67286002Y-67206998D01*
X65532000Y-68961000D02*
X65532000Y-74295000D01*
X67286002Y-67206998D02*
X65532000Y-68961000D01*
D26*
X60960000Y-82998919D02*
X60960000Y-84201000D01*
X60960000Y-79902002D02*
X60960000Y-82998919D01*
X64159501Y-76702501D02*
X60960000Y-79902002D01*
X64159501Y-68425999D02*
X64159501Y-76702501D01*
X63551502Y-67818000D02*
X64159501Y-68425999D01*
X60960000Y-67818000D02*
X63551502Y-67818000D01*
X68390401Y-87084801D02*
X69240400Y-87934800D01*
X66356599Y-85050999D02*
X68390401Y-87084801D01*
X61809999Y-85050999D02*
X66356599Y-85050999D01*
X60960000Y-84201000D02*
X61809999Y-85050999D01*
D22*
X46786800Y-78943200D02*
X52832000Y-72898000D01*
X46786800Y-86817200D02*
X46786800Y-78943200D01*
D30*
X117017800Y-63432081D02*
X117017800Y-62230000D01*
X113247282Y-67202599D02*
X117017800Y-63432081D01*
X108819401Y-67202599D02*
X113247282Y-67202599D01*
X107632500Y-68389500D02*
X108819401Y-67202599D01*
X106782501Y-69239499D02*
X104242501Y-69239499D01*
X107632500Y-68389500D02*
X106782501Y-69239499D01*
X104242501Y-69239499D02*
X101346000Y-72136000D01*
X101346000Y-72136000D02*
X101346000Y-76454000D01*
X101346000Y-76454000D02*
X101346000Y-76454000D01*
D20*
X47117000Y-87147400D02*
X46786800Y-86817200D01*
D24*
X26416000Y-101219000D02*
X26797000Y-101219000D01*
X26797000Y-101219000D02*
X28597000Y-101219000D01*
D31*
X52070000Y-90618919D02*
X52070000Y-91821000D01*
X51672080Y-90220999D02*
X52070000Y-90618919D01*
X48988518Y-90220999D02*
X51672080Y-90220999D01*
X46786800Y-88019281D02*
X48988518Y-90220999D01*
X46786800Y-86817200D02*
X46786800Y-88019281D01*
D25*
X71628000Y-78105000D02*
X71628000Y-78105000D01*
X71761739Y-76793455D02*
X71761738Y-76793455D01*
X71628000Y-76927193D02*
X71628000Y-78105000D01*
X71761739Y-76793455D02*
X71628000Y-76927193D01*
X71996060Y-75693338D02*
X71996060Y-76559134D01*
X72072420Y-75616978D02*
X71996060Y-75693338D01*
X82554999Y-74040001D02*
X82554999Y-73272396D01*
X84201000Y-74549000D02*
X83063998Y-74549000D01*
X83063998Y-74549000D02*
X82554999Y-74040001D01*
X84582000Y-74930000D02*
X84201000Y-74549000D01*
X72072420Y-72789966D02*
X72072420Y-75616978D01*
X84582000Y-77343000D02*
X84582000Y-74930000D01*
X72566815Y-72295571D02*
X72072420Y-72789966D01*
X71996060Y-76559134D02*
X71761739Y-76793455D01*
X82554999Y-73272396D02*
X80339023Y-71056420D01*
X80339023Y-71056420D02*
X78445457Y-71056420D01*
X78445457Y-71056420D02*
X77206307Y-72295571D01*
X77206307Y-72295571D02*
X72566815Y-72295571D01*
X60110001Y-74588001D02*
X60960000Y-75438000D01*
X59784999Y-74262999D02*
X60110001Y-74588001D01*
X59784999Y-72333999D02*
X59784999Y-74262999D01*
X60395999Y-71722999D02*
X59784999Y-72333999D01*
X61334003Y-71722999D02*
X60395999Y-71722999D01*
X63309500Y-69747502D02*
X61334003Y-71722999D01*
X63309500Y-68834000D02*
X63309500Y-69747502D01*
X71189315Y-68770500D02*
X67760315Y-72199500D01*
X71755000Y-68770500D02*
X71189315Y-68770500D01*
X67760315Y-72199500D02*
X67183000Y-72199500D01*
X64770000Y-82677000D02*
X64770000Y-82677000D01*
X64770000Y-81534000D02*
X64770000Y-82677000D01*
X78114080Y-70256400D02*
X76874929Y-71495551D01*
X80670400Y-70256400D02*
X78114080Y-70256400D01*
X83261200Y-72796400D02*
X80670400Y-70256400D01*
X76874929Y-71495551D02*
X72235439Y-71495551D01*
X71196040Y-75361960D02*
X71196040Y-76227756D01*
X85344000Y-72796400D02*
X83261200Y-72796400D01*
X65258990Y-81045010D02*
X64770000Y-81534000D01*
X72235439Y-71495551D02*
X71272400Y-72458590D01*
X71272400Y-72458590D02*
X71272400Y-75285600D01*
X71272400Y-75285600D02*
X71196040Y-75361960D01*
X71196040Y-76227756D02*
X66378786Y-81045010D01*
X66378786Y-81045010D02*
X65258990Y-81045010D01*
X69596000Y-80010000D02*
X69596000Y-80010000D01*
X70161685Y-80010000D02*
X69596000Y-80010000D01*
X73426402Y-77379600D02*
X70796002Y-80010000D01*
X83185000Y-75438000D02*
X83096020Y-75349020D01*
X82732621Y-75349020D02*
X82381001Y-74997399D01*
X83185000Y-77654002D02*
X83185000Y-75438000D01*
X85311001Y-79084001D02*
X84614999Y-79084001D01*
X70796002Y-80010000D02*
X70161685Y-80010000D01*
X84614999Y-79084001D02*
X83185000Y-77654002D01*
X86619468Y-72776468D02*
X87019467Y-73176467D01*
X73426402Y-76454998D02*
X73426402Y-77379600D01*
X83096020Y-75349020D02*
X82732621Y-75349020D01*
X87019467Y-75159533D02*
X85688001Y-76490999D01*
X85688001Y-76490999D02*
X85688001Y-78707001D01*
X73019004Y-76047600D02*
X73426402Y-76454998D01*
X82381001Y-74997399D02*
X81754979Y-74371379D01*
X81754979Y-74371379D02*
X81754979Y-73603772D01*
X87019467Y-73176467D02*
X87019467Y-75159533D01*
X80007647Y-71856440D02*
X78776834Y-71856440D01*
X78776834Y-71856440D02*
X77537683Y-73095591D01*
X77537683Y-73095591D02*
X72898191Y-73095591D01*
X85688001Y-78707001D02*
X85311001Y-79084001D01*
X72898191Y-73095591D02*
X72872440Y-73121342D01*
X72872440Y-73121342D02*
X72872440Y-76047600D01*
X81754979Y-73603772D02*
X80007647Y-71856440D01*
X72872440Y-76047600D02*
X73019004Y-76047600D01*
X71406999Y-69495501D02*
X74649499Y-69495501D01*
X69596000Y-71306500D02*
X71406999Y-69495501D01*
X74649499Y-69495501D02*
X75692000Y-68453000D01*
X75692000Y-68453000D02*
X75692000Y-68453000D01*
X63155999Y-80993001D02*
X63155999Y-79661999D01*
X67379302Y-77216000D02*
X69195990Y-75399312D01*
X65601998Y-77216000D02*
X67379302Y-77216000D01*
X69528500Y-71374000D02*
X69625750Y-71276750D01*
X63155999Y-79661999D02*
X65601998Y-77216000D01*
X69195990Y-75399312D02*
X69195990Y-71706509D01*
X69195990Y-71706509D02*
X69528500Y-71374000D01*
X63532999Y-81370001D02*
X63155999Y-80993001D01*
X63590001Y-81370001D02*
X63532999Y-81370001D01*
X63627000Y-81407000D02*
X63590001Y-81370001D01*
X63627000Y-82804000D02*
X63627000Y-81407000D01*
X69195990Y-71706509D02*
X69195990Y-71723210D01*
X72472430Y-76384030D02*
X72701401Y-76613001D01*
X72472430Y-72955654D02*
X72472430Y-76384030D01*
X72732503Y-72695581D02*
X72472430Y-72955654D01*
X83712010Y-74949010D02*
X82898310Y-74949010D01*
X72701401Y-76613001D02*
X72701401Y-76802999D01*
X84524998Y-78359000D02*
X83856999Y-77691001D01*
X83856999Y-77691001D02*
X83856999Y-75093999D01*
X77371995Y-72695581D02*
X72732503Y-72695581D01*
X82898310Y-74949010D02*
X82154989Y-74205690D01*
X82154989Y-73438084D02*
X80173335Y-71456430D01*
X78611146Y-71456430D02*
X77371995Y-72695581D01*
X83856999Y-75093999D02*
X83712010Y-74949010D01*
X84963000Y-78359000D02*
X84524998Y-78359000D01*
X82154989Y-74205690D02*
X82154989Y-73438084D01*
X80173335Y-71456430D02*
X78611146Y-71456430D01*
X75374500Y-63373000D02*
X72193698Y-63373000D01*
X72193698Y-63373000D02*
X72009000Y-63557698D01*
X72009000Y-64757701D02*
X70834691Y-65932010D01*
X72009000Y-63557698D02*
X72009000Y-64757701D01*
X70834691Y-65932010D02*
X69253688Y-65932010D01*
X68111022Y-67548731D02*
X66698752Y-68961000D01*
X69253688Y-65932010D02*
X68111022Y-67074676D01*
X68111022Y-67074676D02*
X68111022Y-67548731D01*
X66698752Y-68961000D02*
X66357020Y-69302732D01*
X66357020Y-73240312D02*
X66657011Y-73540302D01*
X66357020Y-69302732D02*
X66357020Y-73240312D01*
X66657011Y-73540302D02*
X66657011Y-74676000D01*
X66657011Y-74676000D02*
X66657011Y-74683411D01*
X65503801Y-90772999D02*
X65328800Y-90948000D01*
X66657011Y-74676000D02*
X66657011Y-76548189D01*
X65328800Y-90948000D02*
X65328800Y-91948000D01*
X66657011Y-76548189D02*
X66389210Y-76815990D01*
X66389210Y-76815990D02*
X65436309Y-76815990D01*
X65436309Y-76815990D02*
X62755989Y-79496310D01*
X62755989Y-79496310D02*
X62755989Y-83005991D01*
X70415401Y-88498801D02*
X68141203Y-90772999D01*
X62755989Y-83005991D02*
X63417598Y-83667600D01*
X63417598Y-83667600D02*
X68935600Y-83667600D01*
X68141203Y-90772999D02*
X65503801Y-90772999D01*
X68935600Y-83667600D02*
X70415401Y-85147401D01*
X70415401Y-85147401D02*
X70415401Y-88498801D01*
X66257001Y-76382501D02*
X66223522Y-76415980D01*
X70669002Y-65532000D02*
X69088000Y-65532000D01*
X67711012Y-66908988D02*
X67711012Y-67383042D01*
X71591001Y-64610001D02*
X70669002Y-65532000D01*
X71591001Y-63409999D02*
X71591001Y-64610001D01*
X72771000Y-62230000D02*
X71591001Y-63409999D01*
X75755500Y-62230000D02*
X72771000Y-62230000D01*
X69088000Y-65532000D02*
X67711012Y-66908988D01*
X66223522Y-76415980D02*
X65270620Y-76415980D01*
X67711012Y-67383042D02*
X65957010Y-69137044D01*
X65270620Y-76415980D02*
X65024000Y-76662601D01*
X65957010Y-69137044D02*
X65957010Y-73406000D01*
X65957010Y-73406000D02*
X66257001Y-73705991D01*
X65024000Y-76662601D02*
X62355979Y-79330621D01*
X66257001Y-73705991D02*
X66257001Y-76382501D01*
X62355979Y-83171680D02*
X63251909Y-84067610D01*
X62355979Y-82779621D02*
X62355979Y-83171680D01*
X62355979Y-79330621D02*
X62355979Y-82779621D01*
X63251909Y-84067610D02*
X68268810Y-84067610D01*
X68268810Y-84067610D02*
X68783200Y-84582000D01*
X68783200Y-84582000D02*
X68783200Y-84937600D01*
X68783200Y-84937600D02*
X68783200Y-84937600D01*
D30*
X120523000Y-20574000D02*
X119888000Y-19939000D01*
X120523000Y-28829000D02*
X120523000Y-20574000D01*
X122428000Y-22860000D02*
X122428000Y-19939000D01*
X123063000Y-23495000D02*
X122428000Y-22860000D01*
X124968000Y-22987000D02*
X124968000Y-19939000D01*
X124460000Y-23495000D02*
X124968000Y-22987000D01*
X127254000Y-20193000D02*
X127508000Y-19939000D01*
X127254000Y-29083000D02*
X127254000Y-20193000D01*
D25*
X80568800Y-88805298D02*
X80568800Y-91948000D01*
X86353610Y-83020488D02*
X80568800Y-88805298D01*
X87325200Y-81076800D02*
X86353610Y-82048390D01*
X86353610Y-82048390D02*
X86353610Y-83020488D01*
X87038915Y-79679800D02*
X85953600Y-80765115D01*
X87604600Y-79679800D02*
X87038915Y-79679800D01*
X85953600Y-80765115D02*
X85953600Y-82854800D01*
X85953600Y-82854800D02*
X78994000Y-89814400D01*
X78994000Y-89814400D02*
X78435200Y-89814400D01*
X78028800Y-90220800D02*
X78028800Y-91948000D01*
X78435200Y-89814400D02*
X78028800Y-90220800D01*
X86969600Y-63500000D02*
X86069001Y-64400599D01*
X86069001Y-67785001D02*
X85680402Y-68173600D01*
X86069001Y-64400599D02*
X86069001Y-67785001D01*
X85680402Y-68173600D02*
X85140800Y-68173600D01*
X85140800Y-68173600D02*
X84220010Y-69094390D01*
X84220010Y-69094390D02*
X84220010Y-70805521D01*
X84220010Y-70805521D02*
X86664800Y-70805521D01*
X87691818Y-70805521D02*
X88626830Y-71740533D01*
X86664800Y-70805521D02*
X87691818Y-70805521D01*
X88626830Y-71740533D02*
X88626830Y-74879200D01*
X88626830Y-74879200D02*
X88626830Y-75164830D01*
X88626830Y-75164830D02*
X88626830Y-75323111D01*
X89529631Y-78815534D02*
X89529631Y-81966464D01*
X88626830Y-75323111D02*
X88626830Y-77912734D01*
X88626830Y-77912734D02*
X89529631Y-78815534D01*
X89529631Y-81966464D02*
X89084030Y-82412065D01*
X89084030Y-82412065D02*
X89084030Y-91591811D01*
X89084030Y-91591811D02*
X89084030Y-92322530D01*
X89084030Y-92322530D02*
X89471500Y-92710000D01*
X89471500Y-92710000D02*
X89471500Y-92710000D01*
X86607115Y-64668400D02*
X86469011Y-64806504D01*
X87172800Y-64668400D02*
X86607115Y-64668400D01*
X86469011Y-67950690D02*
X85846091Y-68573610D01*
X86469011Y-64806504D02*
X86469011Y-67950690D01*
X85846091Y-68573610D02*
X85306488Y-68573610D01*
X85306488Y-68573610D02*
X84620020Y-69260078D01*
X84620020Y-70294420D02*
X84731111Y-70405511D01*
X84620020Y-69260078D02*
X84620020Y-70294420D01*
X87857507Y-70405511D02*
X89026840Y-71574844D01*
X84731111Y-70405511D02*
X87857507Y-70405511D01*
X89026840Y-71574844D02*
X89026840Y-74472800D01*
X89026840Y-74472800D02*
X89026840Y-74599640D01*
X89026840Y-77747045D02*
X89929641Y-78649845D01*
X89026840Y-74599640D02*
X89026840Y-77747045D01*
X89929641Y-82132153D02*
X89484040Y-82577754D01*
X89929641Y-78649845D02*
X89929641Y-82132153D01*
X89484040Y-82577754D02*
X89484040Y-91249500D01*
X89484040Y-91249500D02*
X89484040Y-91452540D01*
X89484040Y-91452540D02*
X90741500Y-92710000D01*
X90741500Y-92710000D02*
X90741500Y-92710000D01*
D30*
X116535200Y-70967600D02*
X111150400Y-70967600D01*
X108732500Y-76009500D02*
X107632500Y-76009500D01*
X108857501Y-75884499D02*
X108732500Y-76009500D01*
X108857501Y-73260499D02*
X108857501Y-75884499D01*
X111150400Y-70967600D02*
X108857501Y-73260499D01*
D25*
X52705000Y-62484000D02*
X45339000Y-55118000D01*
X45339000Y-55118000D02*
X43180000Y-55118000D01*
X43180000Y-55118000D02*
X43180000Y-55118000D01*
X53213000Y-62484000D02*
X52705000Y-62484000D01*
D27*
X33782000Y-20828000D02*
X32766000Y-19812000D01*
X33782000Y-28956000D02*
X33782000Y-20828000D01*
D30*
X35814000Y-20320000D02*
X35306000Y-19812000D01*
X35814000Y-24130000D02*
X35814000Y-20320000D01*
X37338000Y-20320000D02*
X37846000Y-19812000D01*
X37338000Y-24130000D02*
X37338000Y-20320000D01*
D27*
X39370000Y-20828000D02*
X40386000Y-19812000D01*
X39370000Y-28956000D02*
X39370000Y-20828000D01*
D30*
X54864000Y-20447000D02*
X54229000Y-19812000D01*
X54864000Y-28956000D02*
X54864000Y-20447000D01*
X57150000Y-20193000D02*
X56769000Y-19812000D01*
X57150000Y-24384000D02*
X57150000Y-20193000D01*
X58674000Y-20447000D02*
X59309000Y-19812000D01*
X58674000Y-24384000D02*
X58674000Y-20447000D01*
X61214000Y-20447000D02*
X61849000Y-19812000D01*
X61214000Y-28956000D02*
X61214000Y-20447000D01*
X77216000Y-20574000D02*
X76454000Y-19812000D01*
X77216000Y-29083000D02*
X77216000Y-20574000D01*
X79756000Y-20574000D02*
X78994000Y-19812000D01*
X79756000Y-23114000D02*
X79756000Y-20574000D01*
X81280000Y-20066000D02*
X81534000Y-19812000D01*
X81280000Y-23241000D02*
X81280000Y-20066000D01*
X83947000Y-19939000D02*
X84074000Y-19812000D01*
X83947000Y-29210000D02*
X83947000Y-19939000D01*
X98806000Y-20574000D02*
X98171000Y-19939000D01*
X98806000Y-28829000D02*
X98806000Y-20574000D01*
X101219000Y-20447000D02*
X100711000Y-19939000D01*
X101219000Y-23749000D02*
X101219000Y-20447000D01*
X102417500Y-20772500D02*
X103251000Y-19939000D01*
X102417500Y-23296500D02*
X102417500Y-20772500D01*
X105537000Y-20193000D02*
X105791000Y-19939000D01*
X105537000Y-28956000D02*
X105537000Y-20193000D01*
D21*
X81851500Y-58356500D02*
X81851500Y-58356500D01*
X81851500Y-58356500D02*
X84182001Y-56025999D01*
X98723501Y-56025999D02*
X99441000Y-55308500D01*
X84182001Y-56025999D02*
X98723501Y-56025999D01*
X44196000Y-42545000D02*
X47879000Y-42545000D01*
X47879000Y-42545000D02*
X48387000Y-43053000D01*
X48387000Y-43053000D02*
X48387000Y-43053000D01*
X62865000Y-64389000D02*
X62865000Y-57531000D01*
X62865000Y-57531000D02*
X62865000Y-57531000D01*
X42037000Y-41529000D02*
X42602685Y-41529000D01*
X42602685Y-41529000D02*
X48641000Y-41529000D01*
X48641000Y-41529000D02*
X48641000Y-41529000D01*
X63735001Y-57041999D02*
X63735001Y-57041999D01*
X63735001Y-63862001D02*
X64135000Y-64262000D01*
X63735001Y-56642000D02*
X63735001Y-63862001D01*
X66536001Y-66559999D02*
X66536001Y-66559999D01*
X66536001Y-65171999D02*
X65836011Y-64472009D01*
X66536001Y-66559999D02*
X66536001Y-65171999D01*
X65836011Y-64472009D02*
X65836011Y-57861989D01*
X65836011Y-55575989D02*
X65836011Y-50368989D01*
X69215000Y-52164002D02*
X71279998Y-54229000D01*
X69215000Y-50927000D02*
X69215000Y-52164002D01*
X71279998Y-54229000D02*
X72771000Y-54229000D01*
X72771000Y-54229000D02*
X72771000Y-54229000D01*
X72771000Y-56515000D02*
X72771000Y-57080685D01*
X72771000Y-57080685D02*
X72771000Y-58039000D01*
X72771000Y-58039000D02*
X74288511Y-59556511D01*
X74288511Y-59556511D02*
X79875101Y-59556511D01*
X79875101Y-59556511D02*
X83432511Y-59556511D01*
X83432511Y-59556511D02*
X84201000Y-60325000D01*
X84201000Y-60325000D02*
X84201000Y-62103000D01*
X84201000Y-62103000D02*
X84201000Y-62103000D01*
X84981999Y-65931999D02*
X84981999Y-67074999D01*
X84582000Y-65532000D02*
X84981999Y-65931999D01*
X84981999Y-67074999D02*
X85217000Y-67310000D01*
X85217000Y-67310000D02*
X85344000Y-67437000D01*
X85344000Y-67437000D02*
X85344000Y-67437000D01*
X86931500Y-46164500D02*
X92011500Y-46164500D01*
X92011500Y-46164500D02*
X93154500Y-47307500D01*
X93154500Y-47307500D02*
X93154500Y-49466500D01*
X93154500Y-49466500D02*
X93154500Y-50165000D01*
X93154500Y-50165000D02*
X93154500Y-50165000D01*
X105029000Y-46768998D02*
X102679500Y-49118498D01*
X105029000Y-41973500D02*
X105029000Y-46768998D01*
X102679500Y-49118498D02*
X102679500Y-52705000D01*
X102679500Y-52705000D02*
X102679500Y-52705000D01*
D25*
X99676490Y-58184510D02*
X98552000Y-59309000D01*
X95637498Y-59309000D02*
X93599000Y-61347498D01*
X98552000Y-59309000D02*
X95637498Y-59309000D01*
X93599000Y-62420487D02*
X91059000Y-64960487D01*
X93599000Y-61347498D02*
X93599000Y-62420487D01*
X91059000Y-64960487D02*
X91059000Y-67373500D01*
X91059000Y-67373500D02*
X90106500Y-68326000D01*
X90106500Y-68326000D02*
X87566500Y-68326000D01*
X87258793Y-68791922D02*
X87274400Y-68776315D01*
X87274400Y-68618100D02*
X87566500Y-68326000D01*
X87274400Y-68776315D02*
X87274400Y-68618100D01*
X87258793Y-69052807D02*
X87258793Y-68791922D01*
X95123000Y-61462185D02*
X92900500Y-63684685D01*
X95123000Y-60896500D02*
X95123000Y-61462185D01*
X92900500Y-63684685D02*
X92900500Y-67183000D01*
X92900500Y-67183000D02*
X91122500Y-68961000D01*
X91122500Y-68961000D02*
X91122500Y-68961000D01*
D21*
X125730000Y-39297685D02*
X126428500Y-39996185D01*
X125730000Y-38732000D02*
X125730000Y-39297685D01*
X126428500Y-39996185D02*
X126428500Y-45529500D01*
X126428500Y-45529500D02*
X127063500Y-46164500D01*
X127063500Y-46164500D02*
X127063500Y-46164500D01*
D30*
X116567001Y-28847999D02*
X116567001Y-31133999D01*
X116967000Y-28448000D02*
X116567001Y-28847999D01*
X116567001Y-31133999D02*
X115062000Y-32639000D01*
X115062000Y-32639000D02*
X115062000Y-34671000D01*
X115062000Y-34671000D02*
X115062000Y-34671000D01*
D21*
X103886000Y-49022000D02*
X103886000Y-49587685D01*
X103886000Y-49587685D02*
X103886000Y-50800000D01*
X103886000Y-50800000D02*
X103886000Y-51181000D01*
X103886000Y-51181000D02*
X103886000Y-51181000D01*
X105548999Y-49645001D02*
X105664000Y-49530000D01*
X105548999Y-51931001D02*
X105548999Y-49645001D01*
D25*
X86817200Y-62179200D02*
X83820000Y-65176400D01*
X83820000Y-65176400D02*
X83820000Y-70916800D01*
X83820000Y-70916800D02*
X83820000Y-71018400D01*
X83820000Y-71018400D02*
X84007131Y-71205531D01*
X87526129Y-71205531D02*
X88226820Y-71906222D01*
X84007131Y-71205531D02*
X87526129Y-71205531D01*
X88226820Y-71906222D02*
X88226820Y-75488800D01*
X89129621Y-78981223D02*
X89129621Y-81800776D01*
X88226820Y-75488800D02*
X88226820Y-78078423D01*
X88226820Y-78078423D02*
X89129621Y-78981223D01*
X89129621Y-81800776D02*
X88684020Y-82246377D01*
X88684020Y-82246377D02*
X88684020Y-91757500D01*
X88684020Y-91757500D02*
X88684020Y-92226811D01*
X88684020Y-92226811D02*
X88684020Y-93535500D01*
X88684020Y-93535500D02*
X88684020Y-93637020D01*
X88684020Y-93637020D02*
X89217500Y-94170500D01*
X89217500Y-94170500D02*
X102616000Y-94170500D01*
X102616000Y-94170500D02*
X106426000Y-90360500D01*
X106426000Y-90360500D02*
X119888000Y-90360500D01*
X119888000Y-90360500D02*
X121094500Y-89154000D01*
X121094500Y-89154000D02*
X121094500Y-85090000D01*
X121094500Y-85090000D02*
X121094500Y-81470500D01*
X121094500Y-81470500D02*
X122364500Y-80200500D01*
X122364500Y-80200500D02*
X125031500Y-80200500D01*
X125031500Y-80200500D02*
X125031500Y-80200500D01*
D32*
G36*
X47625000Y-85598726D02*
G01*
X47553720Y-85545559D01*
X47290899Y-85420375D01*
X47143690Y-85375724D01*
X46913800Y-85497045D01*
X46913800Y-86690200D01*
X46933800Y-86690200D01*
X46933800Y-86944200D01*
X46913800Y-86944200D01*
X46913800Y-86964200D01*
X46659800Y-86964200D01*
X46659800Y-86944200D01*
X45465986Y-86944200D01*
X45464879Y-86946309D01*
X24003000Y-86489674D01*
X24003000Y-86460309D01*
X45345319Y-86460309D01*
X45465986Y-86690200D01*
X46659800Y-86690200D01*
X46659800Y-85497045D01*
X46429910Y-85375724D01*
X46282701Y-85420375D01*
X46019880Y-85545559D01*
X45786531Y-85719612D01*
X45591622Y-85935845D01*
X45442643Y-86185948D01*
X45345319Y-86460309D01*
X24003000Y-86460309D01*
X24003000Y-82677000D01*
X47625000Y-82677000D01*
X47625000Y-85598726D01*
G37*
X47625000Y-85598726D02*
X47553720Y-85545559D01*
X47290899Y-85420375D01*
X47143690Y-85375724D01*
X46913800Y-85497045D01*
X46913800Y-86690200D01*
X46933800Y-86690200D01*
X46933800Y-86944200D01*
X46913800Y-86944200D01*
X46913800Y-86964200D01*
X46659800Y-86964200D01*
X46659800Y-86944200D01*
X45465986Y-86944200D01*
X45464879Y-86946309D01*
X24003000Y-86489674D01*
X24003000Y-86460309D01*
X45345319Y-86460309D01*
X45465986Y-86690200D01*
X46659800Y-86690200D01*
X46659800Y-85497045D01*
X46429910Y-85375724D01*
X46282701Y-85420375D01*
X46019880Y-85545559D01*
X45786531Y-85719612D01*
X45591622Y-85935845D01*
X45442643Y-86185948D01*
X45345319Y-86460309D01*
X24003000Y-86460309D01*
X24003000Y-82677000D01*
X47625000Y-82677000D01*
X47625000Y-85598726D01*
G36*
X40767000Y-36195000D02*
G01*
X31623000Y-36195000D01*
X31623000Y-31172000D01*
X34663928Y-31172000D01*
X34667000Y-32136250D01*
X34699856Y-32169106D01*
X34666887Y-32335998D01*
X34667116Y-32510328D01*
X34700039Y-32674711D01*
X34667000Y-32707750D01*
X34663928Y-33672000D01*
X34676188Y-33796482D01*
X34712498Y-33916180D01*
X34771463Y-34026494D01*
X34850815Y-34123185D01*
X34947506Y-34202537D01*
X35057820Y-34261502D01*
X35177518Y-34297812D01*
X35302000Y-34310072D01*
X36266250Y-34307000D01*
X36299106Y-34274144D01*
X36465998Y-34307113D01*
X36640328Y-34306884D01*
X36804711Y-34273961D01*
X36837750Y-34307000D01*
X37802000Y-34310072D01*
X37926482Y-34297812D01*
X38046180Y-34261502D01*
X38156494Y-34202537D01*
X38253185Y-34123185D01*
X38332537Y-34026494D01*
X38391502Y-33916180D01*
X38427812Y-33796482D01*
X38440072Y-33672000D01*
X38437000Y-32707750D01*
X38404144Y-32674894D01*
X38437113Y-32508002D01*
X38436884Y-32333672D01*
X38403961Y-32169289D01*
X38437000Y-32136250D01*
X38440072Y-31172000D01*
X38427812Y-31047518D01*
X38391502Y-30927820D01*
X38332537Y-30817506D01*
X38253185Y-30720815D01*
X38156494Y-30641463D01*
X38046180Y-30582498D01*
X37926482Y-30546188D01*
X37802000Y-30533928D01*
X36837750Y-30537000D01*
X36804894Y-30569856D01*
X36638002Y-30536887D01*
X36463672Y-30537116D01*
X36299289Y-30570039D01*
X36266250Y-30537000D01*
X35302000Y-30533928D01*
X35177518Y-30546188D01*
X35057820Y-30582498D01*
X34947506Y-30641463D01*
X34850815Y-30720815D01*
X34771463Y-30817506D01*
X34712498Y-30927820D01*
X34676188Y-31047518D01*
X34663928Y-31172000D01*
X31623000Y-31172000D01*
X31623000Y-30099000D01*
X40767000Y-30099000D01*
X40767000Y-36195000D01*
G37*
X40767000Y-36195000D02*
X31623000Y-36195000D01*
X31623000Y-31172000D01*
X34663928Y-31172000D01*
X34667000Y-32136250D01*
X34699856Y-32169106D01*
X34666887Y-32335998D01*
X34667116Y-32510328D01*
X34700039Y-32674711D01*
X34667000Y-32707750D01*
X34663928Y-33672000D01*
X34676188Y-33796482D01*
X34712498Y-33916180D01*
X34771463Y-34026494D01*
X34850815Y-34123185D01*
X34947506Y-34202537D01*
X35057820Y-34261502D01*
X35177518Y-34297812D01*
X35302000Y-34310072D01*
X36266250Y-34307000D01*
X36299106Y-34274144D01*
X36465998Y-34307113D01*
X36640328Y-34306884D01*
X36804711Y-34273961D01*
X36837750Y-34307000D01*
X37802000Y-34310072D01*
X37926482Y-34297812D01*
X38046180Y-34261502D01*
X38156494Y-34202537D01*
X38253185Y-34123185D01*
X38332537Y-34026494D01*
X38391502Y-33916180D01*
X38427812Y-33796482D01*
X38440072Y-33672000D01*
X38437000Y-32707750D01*
X38404144Y-32674894D01*
X38437113Y-32508002D01*
X38436884Y-32333672D01*
X38403961Y-32169289D01*
X38437000Y-32136250D01*
X38440072Y-31172000D01*
X38427812Y-31047518D01*
X38391502Y-30927820D01*
X38332537Y-30817506D01*
X38253185Y-30720815D01*
X38156494Y-30641463D01*
X38046180Y-30582498D01*
X37926482Y-30546188D01*
X37802000Y-30533928D01*
X36837750Y-30537000D01*
X36804894Y-30569856D01*
X36638002Y-30536887D01*
X36463672Y-30537116D01*
X36299289Y-30570039D01*
X36266250Y-30537000D01*
X35302000Y-30533928D01*
X35177518Y-30546188D01*
X35057820Y-30582498D01*
X34947506Y-30641463D01*
X34850815Y-30720815D01*
X34771463Y-30817506D01*
X34712498Y-30927820D01*
X34676188Y-31047518D01*
X34663928Y-31172000D01*
X31623000Y-31172000D01*
X31623000Y-30099000D01*
X40767000Y-30099000D01*
X40767000Y-36195000D01*
G36*
X36465998Y-33307113D02*
G01*
X36640328Y-33306884D01*
X36644032Y-33306142D01*
X36668042Y-33330152D01*
X36666887Y-33335998D01*
X36667116Y-33510328D01*
X36667858Y-33514032D01*
X36568971Y-33612919D01*
X36552000Y-33595948D01*
X36535029Y-33612919D01*
X36435958Y-33513848D01*
X36437113Y-33508002D01*
X36436884Y-33333672D01*
X36436142Y-33329968D01*
X36460152Y-33305958D01*
X36465998Y-33307113D01*
G37*
X36465998Y-33307113D02*
X36640328Y-33306884D01*
X36644032Y-33306142D01*
X36668042Y-33330152D01*
X36666887Y-33335998D01*
X36667116Y-33510328D01*
X36667858Y-33514032D01*
X36568971Y-33612919D01*
X36552000Y-33595948D01*
X36535029Y-33612919D01*
X36435958Y-33513848D01*
X36437113Y-33508002D01*
X36436884Y-33333672D01*
X36436142Y-33329968D01*
X36460152Y-33305958D01*
X36465998Y-33307113D01*
G36*
X37465998Y-32307113D02*
G01*
X37640328Y-32306884D01*
X37644032Y-32306142D01*
X37742919Y-32405029D01*
X37725948Y-32422000D01*
X37742919Y-32438971D01*
X37643848Y-32538042D01*
X37638002Y-32536887D01*
X37463672Y-32537116D01*
X37459968Y-32537858D01*
X37435958Y-32513848D01*
X37437113Y-32508002D01*
X37436884Y-32333672D01*
X37436142Y-32329968D01*
X37460152Y-32305958D01*
X37465998Y-32307113D01*
G37*
X37465998Y-32307113D02*
X37640328Y-32306884D01*
X37644032Y-32306142D01*
X37742919Y-32405029D01*
X37725948Y-32422000D01*
X37742919Y-32438971D01*
X37643848Y-32538042D01*
X37638002Y-32536887D01*
X37463672Y-32537116D01*
X37459968Y-32537858D01*
X37435958Y-32513848D01*
X37437113Y-32508002D01*
X37436884Y-32333672D01*
X37436142Y-32329968D01*
X37460152Y-32305958D01*
X37465998Y-32307113D01*
G36*
X35465998Y-32307113D02*
G01*
X35640328Y-32306884D01*
X35644032Y-32306142D01*
X35668042Y-32330152D01*
X35666887Y-32335998D01*
X35667116Y-32510328D01*
X35667858Y-32514032D01*
X35643848Y-32538042D01*
X35638002Y-32536887D01*
X35463672Y-32537116D01*
X35459968Y-32537858D01*
X35361081Y-32438971D01*
X35378052Y-32422000D01*
X35361081Y-32405029D01*
X35460152Y-32305958D01*
X35465998Y-32307113D01*
G37*
X35465998Y-32307113D02*
X35640328Y-32306884D01*
X35644032Y-32306142D01*
X35668042Y-32330152D01*
X35666887Y-32335998D01*
X35667116Y-32510328D01*
X35667858Y-32514032D01*
X35643848Y-32538042D01*
X35638002Y-32536887D01*
X35463672Y-32537116D01*
X35459968Y-32537858D01*
X35361081Y-32438971D01*
X35378052Y-32422000D01*
X35361081Y-32405029D01*
X35460152Y-32305958D01*
X35465998Y-32307113D01*
G36*
X36465998Y-32307113D02*
G01*
X36640328Y-32306884D01*
X36644032Y-32306142D01*
X36668042Y-32330152D01*
X36666887Y-32335998D01*
X36667116Y-32510328D01*
X36667858Y-32514032D01*
X36643848Y-32538042D01*
X36638002Y-32536887D01*
X36463672Y-32537116D01*
X36459968Y-32537858D01*
X36435958Y-32513848D01*
X36437113Y-32508002D01*
X36436884Y-32333672D01*
X36436142Y-32329968D01*
X36460152Y-32305958D01*
X36465998Y-32307113D01*
G37*
X36465998Y-32307113D02*
X36640328Y-32306884D01*
X36644032Y-32306142D01*
X36668042Y-32330152D01*
X36666887Y-32335998D01*
X36667116Y-32510328D01*
X36667858Y-32514032D01*
X36643848Y-32538042D01*
X36638002Y-32536887D01*
X36463672Y-32537116D01*
X36459968Y-32537858D01*
X36435958Y-32513848D01*
X36437113Y-32508002D01*
X36436884Y-32333672D01*
X36436142Y-32329968D01*
X36460152Y-32305958D01*
X36465998Y-32307113D01*
G36*
X36668042Y-31330152D02*
G01*
X36666887Y-31335998D01*
X36667116Y-31510328D01*
X36667858Y-31514032D01*
X36643848Y-31538042D01*
X36638002Y-31536887D01*
X36463672Y-31537116D01*
X36459968Y-31537858D01*
X36435958Y-31513848D01*
X36437113Y-31508002D01*
X36436884Y-31333672D01*
X36436142Y-31329968D01*
X36535029Y-31231081D01*
X36552000Y-31248052D01*
X36568971Y-31231081D01*
X36668042Y-31330152D01*
G37*
X36668042Y-31330152D02*
X36666887Y-31335998D01*
X36667116Y-31510328D01*
X36667858Y-31514032D01*
X36643848Y-31538042D01*
X36638002Y-31536887D01*
X36463672Y-31537116D01*
X36459968Y-31537858D01*
X36435958Y-31513848D01*
X36437113Y-31508002D01*
X36436884Y-31333672D01*
X36436142Y-31329968D01*
X36535029Y-31231081D01*
X36552000Y-31248052D01*
X36568971Y-31231081D01*
X36668042Y-31330152D01*
G36*
X35010063Y-24789774D02*
G01*
X35154226Y-24933937D01*
X35323744Y-25047205D01*
X35512102Y-25125226D01*
X35712061Y-25165000D01*
X35915939Y-25165000D01*
X36115898Y-25125226D01*
X36304256Y-25047205D01*
X36473774Y-24933937D01*
X36576000Y-24831711D01*
X36678226Y-24933937D01*
X36847744Y-25047205D01*
X37036102Y-25125226D01*
X37236061Y-25165000D01*
X37439939Y-25165000D01*
X37639898Y-25125226D01*
X37828256Y-25047205D01*
X37997774Y-24933937D01*
X38141937Y-24789774D01*
X38158490Y-24765000D01*
X38481000Y-24765000D01*
X38481000Y-28423532D01*
X38452795Y-28465744D01*
X38374774Y-28654102D01*
X38335000Y-28854061D01*
X38335000Y-29057939D01*
X38374774Y-29257898D01*
X38452795Y-29446256D01*
X38481000Y-29488468D01*
X38481000Y-30099000D01*
X34671000Y-30099000D01*
X34671000Y-29488468D01*
X34699205Y-29446256D01*
X34777226Y-29257898D01*
X34817000Y-29057939D01*
X34817000Y-28854061D01*
X34777226Y-28654102D01*
X34699205Y-28465744D01*
X34671000Y-28423532D01*
X34671000Y-24765000D01*
X34993510Y-24765000D01*
X35010063Y-24789774D01*
G37*
X35010063Y-24789774D02*
X35154226Y-24933937D01*
X35323744Y-25047205D01*
X35512102Y-25125226D01*
X35712061Y-25165000D01*
X35915939Y-25165000D01*
X36115898Y-25125226D01*
X36304256Y-25047205D01*
X36473774Y-24933937D01*
X36576000Y-24831711D01*
X36678226Y-24933937D01*
X36847744Y-25047205D01*
X37036102Y-25125226D01*
X37236061Y-25165000D01*
X37439939Y-25165000D01*
X37639898Y-25125226D01*
X37828256Y-25047205D01*
X37997774Y-24933937D01*
X38141937Y-24789774D01*
X38158490Y-24765000D01*
X38481000Y-24765000D01*
X38481000Y-28423532D01*
X38452795Y-28465744D01*
X38374774Y-28654102D01*
X38335000Y-28854061D01*
X38335000Y-29057939D01*
X38374774Y-29257898D01*
X38452795Y-29446256D01*
X38481000Y-29488468D01*
X38481000Y-30099000D01*
X34671000Y-30099000D01*
X34671000Y-29488468D01*
X34699205Y-29446256D01*
X34777226Y-29257898D01*
X34817000Y-29057939D01*
X34817000Y-28854061D01*
X34777226Y-28654102D01*
X34699205Y-28465744D01*
X34671000Y-28423532D01*
X34671000Y-24765000D01*
X34993510Y-24765000D01*
X35010063Y-24789774D01*
G36*
X44069000Y-36195000D02*
G01*
X40259000Y-36195000D01*
X40259000Y-29488468D01*
X40287205Y-29446256D01*
X40365226Y-29257898D01*
X40405000Y-29057939D01*
X40405000Y-28854061D01*
X40365226Y-28654102D01*
X40287205Y-28465744D01*
X40259000Y-28423532D01*
X40259000Y-22225000D01*
X44069000Y-22225000D01*
X44069000Y-36195000D01*
G37*
X44069000Y-36195000D02*
X40259000Y-36195000D01*
X40259000Y-29488468D01*
X40287205Y-29446256D01*
X40365226Y-29257898D01*
X40405000Y-29057939D01*
X40405000Y-28854061D01*
X40365226Y-28654102D01*
X40287205Y-28465744D01*
X40259000Y-28423532D01*
X40259000Y-22225000D01*
X44069000Y-22225000D01*
X44069000Y-36195000D01*
G36*
X32893000Y-28423532D02*
G01*
X32864795Y-28465744D01*
X32786774Y-28654102D01*
X32747000Y-28854061D01*
X32747000Y-29057939D01*
X32786774Y-29257898D01*
X32864795Y-29446256D01*
X32893000Y-29488468D01*
X32893000Y-30607000D01*
X31802606Y-30607000D01*
X31369000Y-30173394D01*
X31369000Y-27686000D01*
X31366560Y-27661224D01*
X31359333Y-27637399D01*
X31347597Y-27615443D01*
X31331803Y-27596197D01*
X31312557Y-27580403D01*
X31290601Y-27568667D01*
X31266776Y-27561440D01*
X31242000Y-27559000D01*
X30758468Y-27559000D01*
X30716256Y-27530795D01*
X30527898Y-27452774D01*
X30327939Y-27413000D01*
X30124061Y-27413000D01*
X29924102Y-27452774D01*
X29735744Y-27530795D01*
X29693532Y-27559000D01*
X29210000Y-27559000D01*
X29185224Y-27561440D01*
X29161399Y-27568667D01*
X29139443Y-27580403D01*
X29120197Y-27596197D01*
X29104403Y-27615443D01*
X29092667Y-27637399D01*
X29085440Y-27661224D01*
X29083000Y-27686000D01*
X29083000Y-29591000D01*
X27305000Y-29591000D01*
X27305000Y-21896606D01*
X27738606Y-21463000D01*
X32893000Y-21463000D01*
X32893000Y-28423532D01*
G37*
X32893000Y-28423532D02*
X32864795Y-28465744D01*
X32786774Y-28654102D01*
X32747000Y-28854061D01*
X32747000Y-29057939D01*
X32786774Y-29257898D01*
X32864795Y-29446256D01*
X32893000Y-29488468D01*
X32893000Y-30607000D01*
X31802606Y-30607000D01*
X31369000Y-30173394D01*
X31369000Y-27686000D01*
X31366560Y-27661224D01*
X31359333Y-27637399D01*
X31347597Y-27615443D01*
X31331803Y-27596197D01*
X31312557Y-27580403D01*
X31290601Y-27568667D01*
X31266776Y-27561440D01*
X31242000Y-27559000D01*
X30758468Y-27559000D01*
X30716256Y-27530795D01*
X30527898Y-27452774D01*
X30327939Y-27413000D01*
X30124061Y-27413000D01*
X29924102Y-27452774D01*
X29735744Y-27530795D01*
X29693532Y-27559000D01*
X29210000Y-27559000D01*
X29185224Y-27561440D01*
X29161399Y-27568667D01*
X29139443Y-27580403D01*
X29120197Y-27596197D01*
X29104403Y-27615443D01*
X29092667Y-27637399D01*
X29085440Y-27661224D01*
X29083000Y-27686000D01*
X29083000Y-29591000D01*
X27305000Y-29591000D01*
X27305000Y-21896606D01*
X27738606Y-21463000D01*
X32893000Y-21463000D01*
X32893000Y-28423532D01*
G36*
X52451000Y-21336000D02*
G01*
X52453440Y-21360776D01*
X52460667Y-21384601D01*
X52472403Y-21406557D01*
X52488197Y-21425803D01*
X52507443Y-21441597D01*
X52529399Y-21453333D01*
X52553224Y-21460560D01*
X52578000Y-21463000D01*
X54104001Y-21463000D01*
X54104000Y-28252289D01*
X54060063Y-28296226D01*
X53946795Y-28465744D01*
X53868774Y-28654102D01*
X53829000Y-28854061D01*
X53829000Y-29057939D01*
X53868774Y-29257898D01*
X53946795Y-29446256D01*
X54060063Y-29615774D01*
X54204226Y-29759937D01*
X54229000Y-29776490D01*
X54229000Y-36449000D01*
X44069000Y-36449000D01*
X44069000Y-34798000D01*
X44068899Y-34792924D01*
X44034545Y-33934061D01*
X47987000Y-33934061D01*
X47987000Y-34137939D01*
X48026774Y-34337898D01*
X48104795Y-34526256D01*
X48218063Y-34695774D01*
X48362226Y-34839937D01*
X48531744Y-34953205D01*
X48720102Y-35031226D01*
X48920061Y-35071000D01*
X49123939Y-35071000D01*
X49323898Y-35031226D01*
X49512256Y-34953205D01*
X49681774Y-34839937D01*
X49825937Y-34695774D01*
X49939205Y-34526256D01*
X50017226Y-34337898D01*
X50057000Y-34137939D01*
X50057000Y-33934061D01*
X50017226Y-33734102D01*
X49939205Y-33545744D01*
X49825937Y-33376226D01*
X49782000Y-33332289D01*
X49782000Y-32572801D01*
X51819003Y-30535799D01*
X51848001Y-30512001D01*
X51942974Y-30396276D01*
X52013546Y-30264247D01*
X52057003Y-30120986D01*
X52068000Y-30009333D01*
X52068000Y-30009324D01*
X52071676Y-29972001D01*
X52068000Y-29934678D01*
X52068000Y-29151711D01*
X52111937Y-29107774D01*
X52225205Y-28938256D01*
X52303226Y-28749898D01*
X52343000Y-28549939D01*
X52343000Y-28346061D01*
X52303226Y-28146102D01*
X52225205Y-27957744D01*
X52111937Y-27788226D01*
X51967774Y-27644063D01*
X51798256Y-27530795D01*
X51609898Y-27452774D01*
X51409939Y-27413000D01*
X51206061Y-27413000D01*
X51006102Y-27452774D01*
X50817744Y-27530795D01*
X50648226Y-27644063D01*
X50504063Y-27788226D01*
X50390795Y-27957744D01*
X50312774Y-28146102D01*
X50273000Y-28346061D01*
X50273000Y-28549939D01*
X50312774Y-28749898D01*
X50390795Y-28938256D01*
X50504063Y-29107774D01*
X50548000Y-29151711D01*
X50548001Y-29657197D01*
X48511003Y-31694196D01*
X48481999Y-31717999D01*
X48426871Y-31785174D01*
X48387026Y-31833724D01*
X48316455Y-31965753D01*
X48316454Y-31965754D01*
X48272997Y-32109015D01*
X48262000Y-32220668D01*
X48262000Y-32220678D01*
X48258324Y-32258000D01*
X48262000Y-32295323D01*
X48262001Y-33332288D01*
X48218063Y-33376226D01*
X48104795Y-33545744D01*
X48026774Y-33734102D01*
X47987000Y-33934061D01*
X44034545Y-33934061D01*
X43561000Y-22095449D01*
X43561000Y-20193000D01*
X52451000Y-20193000D01*
X52451000Y-21336000D01*
G37*
X52451000Y-21336000D02*
X52453440Y-21360776D01*
X52460667Y-21384601D01*
X52472403Y-21406557D01*
X52488197Y-21425803D01*
X52507443Y-21441597D01*
X52529399Y-21453333D01*
X52553224Y-21460560D01*
X52578000Y-21463000D01*
X54104001Y-21463000D01*
X54104000Y-28252289D01*
X54060063Y-28296226D01*
X53946795Y-28465744D01*
X53868774Y-28654102D01*
X53829000Y-28854061D01*
X53829000Y-29057939D01*
X53868774Y-29257898D01*
X53946795Y-29446256D01*
X54060063Y-29615774D01*
X54204226Y-29759937D01*
X54229000Y-29776490D01*
X54229000Y-36449000D01*
X44069000Y-36449000D01*
X44069000Y-34798000D01*
X44068899Y-34792924D01*
X44034545Y-33934061D01*
X47987000Y-33934061D01*
X47987000Y-34137939D01*
X48026774Y-34337898D01*
X48104795Y-34526256D01*
X48218063Y-34695774D01*
X48362226Y-34839937D01*
X48531744Y-34953205D01*
X48720102Y-35031226D01*
X48920061Y-35071000D01*
X49123939Y-35071000D01*
X49323898Y-35031226D01*
X49512256Y-34953205D01*
X49681774Y-34839937D01*
X49825937Y-34695774D01*
X49939205Y-34526256D01*
X50017226Y-34337898D01*
X50057000Y-34137939D01*
X50057000Y-33934061D01*
X50017226Y-33734102D01*
X49939205Y-33545744D01*
X49825937Y-33376226D01*
X49782000Y-33332289D01*
X49782000Y-32572801D01*
X51819003Y-30535799D01*
X51848001Y-30512001D01*
X51942974Y-30396276D01*
X52013546Y-30264247D01*
X52057003Y-30120986D01*
X52068000Y-30009333D01*
X52068000Y-30009324D01*
X52071676Y-29972001D01*
X52068000Y-29934678D01*
X52068000Y-29151711D01*
X52111937Y-29107774D01*
X52225205Y-28938256D01*
X52303226Y-28749898D01*
X52343000Y-28549939D01*
X52343000Y-28346061D01*
X52303226Y-28146102D01*
X52225205Y-27957744D01*
X52111937Y-27788226D01*
X51967774Y-27644063D01*
X51798256Y-27530795D01*
X51609898Y-27452774D01*
X51409939Y-27413000D01*
X51206061Y-27413000D01*
X51006102Y-27452774D01*
X50817744Y-27530795D01*
X50648226Y-27644063D01*
X50504063Y-27788226D01*
X50390795Y-27957744D01*
X50312774Y-28146102D01*
X50273000Y-28346061D01*
X50273000Y-28549939D01*
X50312774Y-28749898D01*
X50390795Y-28938256D01*
X50504063Y-29107774D01*
X50548000Y-29151711D01*
X50548001Y-29657197D01*
X48511003Y-31694196D01*
X48481999Y-31717999D01*
X48426871Y-31785174D01*
X48387026Y-31833724D01*
X48316455Y-31965753D01*
X48316454Y-31965754D01*
X48272997Y-32109015D01*
X48262000Y-32220668D01*
X48262000Y-32220678D01*
X48258324Y-32258000D01*
X48262000Y-32295323D01*
X48262001Y-33332288D01*
X48218063Y-33376226D01*
X48104795Y-33545744D01*
X48026774Y-33734102D01*
X47987000Y-33934061D01*
X44034545Y-33934061D01*
X43561000Y-22095449D01*
X43561000Y-20193000D01*
X52451000Y-20193000D01*
X52451000Y-21336000D01*
G36*
X64135000Y-36449000D02*
G01*
X54224209Y-36449000D01*
X54021444Y-31177100D01*
X56015928Y-31177100D01*
X56019000Y-32141350D01*
X56051856Y-32174206D01*
X56018887Y-32341098D01*
X56019116Y-32515428D01*
X56052039Y-32679811D01*
X56019000Y-32712850D01*
X56015928Y-33677100D01*
X56028188Y-33801582D01*
X56064498Y-33921280D01*
X56123463Y-34031594D01*
X56202815Y-34128285D01*
X56299506Y-34207637D01*
X56409820Y-34266602D01*
X56529518Y-34302912D01*
X56654000Y-34315172D01*
X57618250Y-34312100D01*
X57651106Y-34279244D01*
X57817998Y-34312213D01*
X57992328Y-34311984D01*
X58156711Y-34279061D01*
X58189750Y-34312100D01*
X59154000Y-34315172D01*
X59278482Y-34302912D01*
X59398180Y-34266602D01*
X59508494Y-34207637D01*
X59605185Y-34128285D01*
X59684537Y-34031594D01*
X59743502Y-33921280D01*
X59779812Y-33801582D01*
X59792072Y-33677100D01*
X59789000Y-32712850D01*
X59756144Y-32679994D01*
X59789113Y-32513102D01*
X59788884Y-32338772D01*
X59755961Y-32174389D01*
X59789000Y-32141350D01*
X59792072Y-31177100D01*
X59779812Y-31052618D01*
X59743502Y-30932920D01*
X59684537Y-30822606D01*
X59605185Y-30725915D01*
X59508494Y-30646563D01*
X59398180Y-30587598D01*
X59278482Y-30551288D01*
X59154000Y-30539028D01*
X58189750Y-30542100D01*
X58156894Y-30574956D01*
X57990002Y-30541987D01*
X57815672Y-30542216D01*
X57651289Y-30575139D01*
X57618250Y-30542100D01*
X56654000Y-30539028D01*
X56529518Y-30551288D01*
X56409820Y-30587598D01*
X56299506Y-30646563D01*
X56202815Y-30725915D01*
X56123463Y-30822606D01*
X56064498Y-30932920D01*
X56028188Y-31052618D01*
X56015928Y-31177100D01*
X54021444Y-31177100D01*
X53979978Y-30099000D01*
X61722000Y-30099000D01*
X61746776Y-30096560D01*
X61770601Y-30089333D01*
X61792557Y-30077597D01*
X61811803Y-30061803D01*
X61827597Y-30042557D01*
X61839333Y-30020601D01*
X61846560Y-29996776D01*
X61849000Y-29972000D01*
X61849000Y-29776490D01*
X61873774Y-29759937D01*
X62017937Y-29615774D01*
X62131205Y-29446256D01*
X62209226Y-29257898D01*
X62249000Y-29057939D01*
X62249000Y-28854061D01*
X62209226Y-28654102D01*
X62131205Y-28465744D01*
X62017937Y-28296226D01*
X61974000Y-28252289D01*
X61974000Y-21463000D01*
X64135000Y-21463000D01*
X64135000Y-36449000D01*
G37*
X64135000Y-36449000D02*
X54224209Y-36449000D01*
X54021444Y-31177100D01*
X56015928Y-31177100D01*
X56019000Y-32141350D01*
X56051856Y-32174206D01*
X56018887Y-32341098D01*
X56019116Y-32515428D01*
X56052039Y-32679811D01*
X56019000Y-32712850D01*
X56015928Y-33677100D01*
X56028188Y-33801582D01*
X56064498Y-33921280D01*
X56123463Y-34031594D01*
X56202815Y-34128285D01*
X56299506Y-34207637D01*
X56409820Y-34266602D01*
X56529518Y-34302912D01*
X56654000Y-34315172D01*
X57618250Y-34312100D01*
X57651106Y-34279244D01*
X57817998Y-34312213D01*
X57992328Y-34311984D01*
X58156711Y-34279061D01*
X58189750Y-34312100D01*
X59154000Y-34315172D01*
X59278482Y-34302912D01*
X59398180Y-34266602D01*
X59508494Y-34207637D01*
X59605185Y-34128285D01*
X59684537Y-34031594D01*
X59743502Y-33921280D01*
X59779812Y-33801582D01*
X59792072Y-33677100D01*
X59789000Y-32712850D01*
X59756144Y-32679994D01*
X59789113Y-32513102D01*
X59788884Y-32338772D01*
X59755961Y-32174389D01*
X59789000Y-32141350D01*
X59792072Y-31177100D01*
X59779812Y-31052618D01*
X59743502Y-30932920D01*
X59684537Y-30822606D01*
X59605185Y-30725915D01*
X59508494Y-30646563D01*
X59398180Y-30587598D01*
X59278482Y-30551288D01*
X59154000Y-30539028D01*
X58189750Y-30542100D01*
X58156894Y-30574956D01*
X57990002Y-30541987D01*
X57815672Y-30542216D01*
X57651289Y-30575139D01*
X57618250Y-30542100D01*
X56654000Y-30539028D01*
X56529518Y-30551288D01*
X56409820Y-30587598D01*
X56299506Y-30646563D01*
X56202815Y-30725915D01*
X56123463Y-30822606D01*
X56064498Y-30932920D01*
X56028188Y-31052618D01*
X56015928Y-31177100D01*
X54021444Y-31177100D01*
X53979978Y-30099000D01*
X61722000Y-30099000D01*
X61746776Y-30096560D01*
X61770601Y-30089333D01*
X61792557Y-30077597D01*
X61811803Y-30061803D01*
X61827597Y-30042557D01*
X61839333Y-30020601D01*
X61846560Y-29996776D01*
X61849000Y-29972000D01*
X61849000Y-29776490D01*
X61873774Y-29759937D01*
X62017937Y-29615774D01*
X62131205Y-29446256D01*
X62209226Y-29257898D01*
X62249000Y-29057939D01*
X62249000Y-28854061D01*
X62209226Y-28654102D01*
X62131205Y-28465744D01*
X62017937Y-28296226D01*
X61974000Y-28252289D01*
X61974000Y-21463000D01*
X64135000Y-21463000D01*
X64135000Y-36449000D01*
G36*
X57817998Y-33312213D02*
G01*
X57992328Y-33311984D01*
X57996032Y-33311242D01*
X58020042Y-33335252D01*
X58018887Y-33341098D01*
X58019116Y-33515428D01*
X58019858Y-33519132D01*
X57920971Y-33618019D01*
X57904000Y-33601048D01*
X57887029Y-33618019D01*
X57787958Y-33518948D01*
X57789113Y-33513102D01*
X57788884Y-33338772D01*
X57788142Y-33335068D01*
X57812152Y-33311058D01*
X57817998Y-33312213D01*
G37*
X57817998Y-33312213D02*
X57992328Y-33311984D01*
X57996032Y-33311242D01*
X58020042Y-33335252D01*
X58018887Y-33341098D01*
X58019116Y-33515428D01*
X58019858Y-33519132D01*
X57920971Y-33618019D01*
X57904000Y-33601048D01*
X57887029Y-33618019D01*
X57787958Y-33518948D01*
X57789113Y-33513102D01*
X57788884Y-33338772D01*
X57788142Y-33335068D01*
X57812152Y-33311058D01*
X57817998Y-33312213D01*
G36*
X58817998Y-32312213D02*
G01*
X58992328Y-32311984D01*
X58996032Y-32311242D01*
X59094919Y-32410129D01*
X59077948Y-32427100D01*
X59094919Y-32444071D01*
X58995848Y-32543142D01*
X58990002Y-32541987D01*
X58815672Y-32542216D01*
X58811968Y-32542958D01*
X58787958Y-32518948D01*
X58789113Y-32513102D01*
X58788884Y-32338772D01*
X58788142Y-32335068D01*
X58812152Y-32311058D01*
X58817998Y-32312213D01*
G37*
X58817998Y-32312213D02*
X58992328Y-32311984D01*
X58996032Y-32311242D01*
X59094919Y-32410129D01*
X59077948Y-32427100D01*
X59094919Y-32444071D01*
X58995848Y-32543142D01*
X58990002Y-32541987D01*
X58815672Y-32542216D01*
X58811968Y-32542958D01*
X58787958Y-32518948D01*
X58789113Y-32513102D01*
X58788884Y-32338772D01*
X58788142Y-32335068D01*
X58812152Y-32311058D01*
X58817998Y-32312213D01*
G36*
X56817998Y-32312213D02*
G01*
X56992328Y-32311984D01*
X56996032Y-32311242D01*
X57020042Y-32335252D01*
X57018887Y-32341098D01*
X57019116Y-32515428D01*
X57019858Y-32519132D01*
X56995848Y-32543142D01*
X56990002Y-32541987D01*
X56815672Y-32542216D01*
X56811968Y-32542958D01*
X56713081Y-32444071D01*
X56730052Y-32427100D01*
X56713081Y-32410129D01*
X56812152Y-32311058D01*
X56817998Y-32312213D01*
G37*
X56817998Y-32312213D02*
X56992328Y-32311984D01*
X56996032Y-32311242D01*
X57020042Y-32335252D01*
X57018887Y-32341098D01*
X57019116Y-32515428D01*
X57019858Y-32519132D01*
X56995848Y-32543142D01*
X56990002Y-32541987D01*
X56815672Y-32542216D01*
X56811968Y-32542958D01*
X56713081Y-32444071D01*
X56730052Y-32427100D01*
X56713081Y-32410129D01*
X56812152Y-32311058D01*
X56817998Y-32312213D01*
G36*
X57817998Y-32312213D02*
G01*
X57992328Y-32311984D01*
X57996032Y-32311242D01*
X58020042Y-32335252D01*
X58018887Y-32341098D01*
X58019116Y-32515428D01*
X58019858Y-32519132D01*
X57995848Y-32543142D01*
X57990002Y-32541987D01*
X57815672Y-32542216D01*
X57811968Y-32542958D01*
X57787958Y-32518948D01*
X57789113Y-32513102D01*
X57788884Y-32338772D01*
X57788142Y-32335068D01*
X57812152Y-32311058D01*
X57817998Y-32312213D01*
G37*
X57817998Y-32312213D02*
X57992328Y-32311984D01*
X57996032Y-32311242D01*
X58020042Y-32335252D01*
X58018887Y-32341098D01*
X58019116Y-32515428D01*
X58019858Y-32519132D01*
X57995848Y-32543142D01*
X57990002Y-32541987D01*
X57815672Y-32542216D01*
X57811968Y-32542958D01*
X57787958Y-32518948D01*
X57789113Y-32513102D01*
X57788884Y-32338772D01*
X57788142Y-32335068D01*
X57812152Y-32311058D01*
X57817998Y-32312213D01*
G36*
X58020042Y-31335252D02*
G01*
X58018887Y-31341098D01*
X58019116Y-31515428D01*
X58019858Y-31519132D01*
X57995848Y-31543142D01*
X57990002Y-31541987D01*
X57815672Y-31542216D01*
X57811968Y-31542958D01*
X57787958Y-31518948D01*
X57789113Y-31513102D01*
X57788884Y-31338772D01*
X57788142Y-31335068D01*
X57887029Y-31236181D01*
X57904000Y-31253152D01*
X57920971Y-31236181D01*
X58020042Y-31335252D01*
G37*
X58020042Y-31335252D02*
X58018887Y-31341098D01*
X58019116Y-31515428D01*
X58019858Y-31519132D01*
X57995848Y-31543142D01*
X57990002Y-31541987D01*
X57815672Y-31542216D01*
X57811968Y-31542958D01*
X57787958Y-31518948D01*
X57789113Y-31513102D01*
X57788884Y-31338772D01*
X57788142Y-31335068D01*
X57887029Y-31236181D01*
X57904000Y-31253152D01*
X57920971Y-31236181D01*
X58020042Y-31335252D01*
G36*
X56390000Y-23680289D02*
G01*
X56346063Y-23724226D01*
X56232795Y-23893744D01*
X56154774Y-24082102D01*
X56115000Y-24282061D01*
X56115000Y-24485939D01*
X56154774Y-24685898D01*
X56232795Y-24874256D01*
X56346063Y-25043774D01*
X56490226Y-25187937D01*
X56659744Y-25301205D01*
X56848102Y-25379226D01*
X57048061Y-25419000D01*
X57251939Y-25419000D01*
X57451898Y-25379226D01*
X57640256Y-25301205D01*
X57809774Y-25187937D01*
X57912000Y-25085711D01*
X58014226Y-25187937D01*
X58183744Y-25301205D01*
X58372102Y-25379226D01*
X58572061Y-25419000D01*
X58775939Y-25419000D01*
X58975898Y-25379226D01*
X59164256Y-25301205D01*
X59333774Y-25187937D01*
X59477937Y-25043774D01*
X59591205Y-24874256D01*
X59669226Y-24685898D01*
X59709000Y-24485939D01*
X59709000Y-24282061D01*
X59669226Y-24082102D01*
X59591205Y-23893744D01*
X59477937Y-23724226D01*
X59434000Y-23680289D01*
X59434000Y-21717000D01*
X60454001Y-21717000D01*
X60454000Y-28252289D01*
X60410063Y-28296226D01*
X60296795Y-28465744D01*
X60218774Y-28654102D01*
X60179000Y-28854061D01*
X60179000Y-29057939D01*
X60218774Y-29257898D01*
X60296795Y-29446256D01*
X60410063Y-29615774D01*
X60554226Y-29759937D01*
X60579000Y-29776490D01*
X60579000Y-30099000D01*
X55753000Y-30099000D01*
X55753000Y-29488468D01*
X55781205Y-29446256D01*
X55859226Y-29257898D01*
X55899000Y-29057939D01*
X55899000Y-28854061D01*
X55859226Y-28654102D01*
X55781205Y-28465744D01*
X55753000Y-28423532D01*
X55753000Y-21717000D01*
X56390001Y-21717000D01*
X56390000Y-23680289D01*
G37*
X56390000Y-23680289D02*
X56346063Y-23724226D01*
X56232795Y-23893744D01*
X56154774Y-24082102D01*
X56115000Y-24282061D01*
X56115000Y-24485939D01*
X56154774Y-24685898D01*
X56232795Y-24874256D01*
X56346063Y-25043774D01*
X56490226Y-25187937D01*
X56659744Y-25301205D01*
X56848102Y-25379226D01*
X57048061Y-25419000D01*
X57251939Y-25419000D01*
X57451898Y-25379226D01*
X57640256Y-25301205D01*
X57809774Y-25187937D01*
X57912000Y-25085711D01*
X58014226Y-25187937D01*
X58183744Y-25301205D01*
X58372102Y-25379226D01*
X58572061Y-25419000D01*
X58775939Y-25419000D01*
X58975898Y-25379226D01*
X59164256Y-25301205D01*
X59333774Y-25187937D01*
X59477937Y-25043774D01*
X59591205Y-24874256D01*
X59669226Y-24685898D01*
X59709000Y-24485939D01*
X59709000Y-24282061D01*
X59669226Y-24082102D01*
X59591205Y-23893744D01*
X59477937Y-23724226D01*
X59434000Y-23680289D01*
X59434000Y-21717000D01*
X60454001Y-21717000D01*
X60454000Y-28252289D01*
X60410063Y-28296226D01*
X60296795Y-28465744D01*
X60218774Y-28654102D01*
X60179000Y-28854061D01*
X60179000Y-29057939D01*
X60218774Y-29257898D01*
X60296795Y-29446256D01*
X60410063Y-29615774D01*
X60554226Y-29759937D01*
X60579000Y-29776490D01*
X60579000Y-30099000D01*
X55753000Y-30099000D01*
X55753000Y-29488468D01*
X55781205Y-29446256D01*
X55859226Y-29257898D01*
X55899000Y-29057939D01*
X55899000Y-28854061D01*
X55859226Y-28654102D01*
X55781205Y-28465744D01*
X55753000Y-28423532D01*
X55753000Y-21717000D01*
X56390001Y-21717000D01*
X56390000Y-23680289D01*
G36*
X87122000Y-36449000D02*
G01*
X63879946Y-36449000D01*
X63865339Y-34696061D01*
X70974000Y-34696061D01*
X70974000Y-34899939D01*
X71013774Y-35099898D01*
X71091795Y-35288256D01*
X71205063Y-35457774D01*
X71349226Y-35601937D01*
X71518744Y-35715205D01*
X71707102Y-35793226D01*
X71907061Y-35833000D01*
X72110939Y-35833000D01*
X72310898Y-35793226D01*
X72499256Y-35715205D01*
X72668774Y-35601937D01*
X72812937Y-35457774D01*
X72926205Y-35288256D01*
X73004226Y-35099898D01*
X73044000Y-34899939D01*
X73044000Y-34696061D01*
X73004226Y-34496102D01*
X72926205Y-34307744D01*
X72812937Y-34138226D01*
X72769000Y-34094289D01*
X72769000Y-32064801D01*
X73571802Y-31262000D01*
X78502928Y-31262000D01*
X78506000Y-32226250D01*
X78538856Y-32259106D01*
X78505887Y-32425998D01*
X78506116Y-32600328D01*
X78539039Y-32764711D01*
X78506000Y-32797750D01*
X78502928Y-33762000D01*
X78515188Y-33886482D01*
X78551498Y-34006180D01*
X78610463Y-34116494D01*
X78689815Y-34213185D01*
X78786506Y-34292537D01*
X78896820Y-34351502D01*
X79016518Y-34387812D01*
X79141000Y-34400072D01*
X80105250Y-34397000D01*
X80138106Y-34364144D01*
X80304998Y-34397113D01*
X80479328Y-34396884D01*
X80643711Y-34363961D01*
X80676750Y-34397000D01*
X81641000Y-34400072D01*
X81765482Y-34387812D01*
X81885180Y-34351502D01*
X81995494Y-34292537D01*
X82092185Y-34213185D01*
X82171537Y-34116494D01*
X82230502Y-34006180D01*
X82266812Y-33886482D01*
X82279072Y-33762000D01*
X82276000Y-32797750D01*
X82243144Y-32764894D01*
X82276113Y-32598002D01*
X82275884Y-32423672D01*
X82242961Y-32259289D01*
X82276000Y-32226250D01*
X82279072Y-31262000D01*
X82266812Y-31137518D01*
X82230502Y-31017820D01*
X82171537Y-30907506D01*
X82092185Y-30810815D01*
X81995494Y-30731463D01*
X81885180Y-30672498D01*
X81765482Y-30636188D01*
X81641000Y-30623928D01*
X80676750Y-30627000D01*
X80643894Y-30659856D01*
X80477002Y-30626887D01*
X80302672Y-30627116D01*
X80138289Y-30660039D01*
X80105250Y-30627000D01*
X79141000Y-30623928D01*
X79016518Y-30636188D01*
X78896820Y-30672498D01*
X78786506Y-30731463D01*
X78689815Y-30810815D01*
X78610463Y-30907506D01*
X78551498Y-31017820D01*
X78515188Y-31137518D01*
X78502928Y-31262000D01*
X73571802Y-31262000D01*
X74044008Y-30789795D01*
X74073001Y-30766001D01*
X74096795Y-30737008D01*
X74096799Y-30737004D01*
X74167973Y-30650277D01*
X74180415Y-30627000D01*
X74238546Y-30518247D01*
X74282003Y-30374986D01*
X74293000Y-30263333D01*
X74293000Y-30263324D01*
X74296676Y-30226001D01*
X74293000Y-30188678D01*
X74293000Y-29278711D01*
X74336937Y-29234774D01*
X74450205Y-29065256D01*
X74528226Y-28876898D01*
X74568000Y-28676939D01*
X74568000Y-28473061D01*
X74528226Y-28273102D01*
X74450205Y-28084744D01*
X74336937Y-27915226D01*
X74192774Y-27771063D01*
X74023256Y-27657795D01*
X73834898Y-27579774D01*
X73634939Y-27540000D01*
X73431061Y-27540000D01*
X73231102Y-27579774D01*
X73042744Y-27657795D01*
X72873226Y-27771063D01*
X72729063Y-27915226D01*
X72615795Y-28084744D01*
X72537774Y-28273102D01*
X72498000Y-28473061D01*
X72498000Y-28676939D01*
X72537774Y-28876898D01*
X72615795Y-29065256D01*
X72729063Y-29234774D01*
X72773000Y-29278711D01*
X72773001Y-29911197D01*
X71498002Y-31186197D01*
X71468999Y-31209999D01*
X71413871Y-31277174D01*
X71374026Y-31325724D01*
X71367437Y-31338052D01*
X71303454Y-31457754D01*
X71259997Y-31601015D01*
X71249000Y-31712668D01*
X71249000Y-31712678D01*
X71245324Y-31750000D01*
X71249000Y-31787323D01*
X71249001Y-34094288D01*
X71205063Y-34138226D01*
X71091795Y-34307744D01*
X71013774Y-34496102D01*
X70974000Y-34696061D01*
X63865339Y-34696061D01*
X63755063Y-21463000D01*
X76327000Y-21463000D01*
X76327000Y-28550532D01*
X76298795Y-28592744D01*
X76220774Y-28781102D01*
X76181000Y-28981061D01*
X76181000Y-29184939D01*
X76220774Y-29384898D01*
X76298795Y-29573256D01*
X76327000Y-29615468D01*
X76327000Y-29972000D01*
X76329440Y-29996776D01*
X76336667Y-30020601D01*
X76348403Y-30042557D01*
X76364197Y-30061803D01*
X76383443Y-30077597D01*
X76405399Y-30089333D01*
X76429224Y-30096560D01*
X76454000Y-30099000D01*
X77018541Y-30099000D01*
X77114061Y-30118000D01*
X77317939Y-30118000D01*
X77413459Y-30099000D01*
X83414532Y-30099000D01*
X83456744Y-30127205D01*
X83645102Y-30205226D01*
X83845061Y-30245000D01*
X84048939Y-30245000D01*
X84248898Y-30205226D01*
X84437256Y-30127205D01*
X84479468Y-30099000D01*
X84836000Y-30099000D01*
X84860776Y-30096560D01*
X84884601Y-30089333D01*
X84906557Y-30077597D01*
X84925803Y-30061803D01*
X84941597Y-30042557D01*
X84953333Y-30020601D01*
X84960560Y-29996776D01*
X84963000Y-29972000D01*
X84963000Y-29407459D01*
X84982000Y-29311939D01*
X84982000Y-29108061D01*
X84963000Y-29012541D01*
X84963000Y-21296231D01*
X85048482Y-21287812D01*
X85168180Y-21251502D01*
X85247694Y-21209000D01*
X87122000Y-21209000D01*
X87122000Y-36449000D01*
G37*
X87122000Y-36449000D02*
X63879946Y-36449000D01*
X63865339Y-34696061D01*
X70974000Y-34696061D01*
X70974000Y-34899939D01*
X71013774Y-35099898D01*
X71091795Y-35288256D01*
X71205063Y-35457774D01*
X71349226Y-35601937D01*
X71518744Y-35715205D01*
X71707102Y-35793226D01*
X71907061Y-35833000D01*
X72110939Y-35833000D01*
X72310898Y-35793226D01*
X72499256Y-35715205D01*
X72668774Y-35601937D01*
X72812937Y-35457774D01*
X72926205Y-35288256D01*
X73004226Y-35099898D01*
X73044000Y-34899939D01*
X73044000Y-34696061D01*
X73004226Y-34496102D01*
X72926205Y-34307744D01*
X72812937Y-34138226D01*
X72769000Y-34094289D01*
X72769000Y-32064801D01*
X73571802Y-31262000D01*
X78502928Y-31262000D01*
X78506000Y-32226250D01*
X78538856Y-32259106D01*
X78505887Y-32425998D01*
X78506116Y-32600328D01*
X78539039Y-32764711D01*
X78506000Y-32797750D01*
X78502928Y-33762000D01*
X78515188Y-33886482D01*
X78551498Y-34006180D01*
X78610463Y-34116494D01*
X78689815Y-34213185D01*
X78786506Y-34292537D01*
X78896820Y-34351502D01*
X79016518Y-34387812D01*
X79141000Y-34400072D01*
X80105250Y-34397000D01*
X80138106Y-34364144D01*
X80304998Y-34397113D01*
X80479328Y-34396884D01*
X80643711Y-34363961D01*
X80676750Y-34397000D01*
X81641000Y-34400072D01*
X81765482Y-34387812D01*
X81885180Y-34351502D01*
X81995494Y-34292537D01*
X82092185Y-34213185D01*
X82171537Y-34116494D01*
X82230502Y-34006180D01*
X82266812Y-33886482D01*
X82279072Y-33762000D01*
X82276000Y-32797750D01*
X82243144Y-32764894D01*
X82276113Y-32598002D01*
X82275884Y-32423672D01*
X82242961Y-32259289D01*
X82276000Y-32226250D01*
X82279072Y-31262000D01*
X82266812Y-31137518D01*
X82230502Y-31017820D01*
X82171537Y-30907506D01*
X82092185Y-30810815D01*
X81995494Y-30731463D01*
X81885180Y-30672498D01*
X81765482Y-30636188D01*
X81641000Y-30623928D01*
X80676750Y-30627000D01*
X80643894Y-30659856D01*
X80477002Y-30626887D01*
X80302672Y-30627116D01*
X80138289Y-30660039D01*
X80105250Y-30627000D01*
X79141000Y-30623928D01*
X79016518Y-30636188D01*
X78896820Y-30672498D01*
X78786506Y-30731463D01*
X78689815Y-30810815D01*
X78610463Y-30907506D01*
X78551498Y-31017820D01*
X78515188Y-31137518D01*
X78502928Y-31262000D01*
X73571802Y-31262000D01*
X74044008Y-30789795D01*
X74073001Y-30766001D01*
X74096795Y-30737008D01*
X74096799Y-30737004D01*
X74167973Y-30650277D01*
X74180415Y-30627000D01*
X74238546Y-30518247D01*
X74282003Y-30374986D01*
X74293000Y-30263333D01*
X74293000Y-30263324D01*
X74296676Y-30226001D01*
X74293000Y-30188678D01*
X74293000Y-29278711D01*
X74336937Y-29234774D01*
X74450205Y-29065256D01*
X74528226Y-28876898D01*
X74568000Y-28676939D01*
X74568000Y-28473061D01*
X74528226Y-28273102D01*
X74450205Y-28084744D01*
X74336937Y-27915226D01*
X74192774Y-27771063D01*
X74023256Y-27657795D01*
X73834898Y-27579774D01*
X73634939Y-27540000D01*
X73431061Y-27540000D01*
X73231102Y-27579774D01*
X73042744Y-27657795D01*
X72873226Y-27771063D01*
X72729063Y-27915226D01*
X72615795Y-28084744D01*
X72537774Y-28273102D01*
X72498000Y-28473061D01*
X72498000Y-28676939D01*
X72537774Y-28876898D01*
X72615795Y-29065256D01*
X72729063Y-29234774D01*
X72773000Y-29278711D01*
X72773001Y-29911197D01*
X71498002Y-31186197D01*
X71468999Y-31209999D01*
X71413871Y-31277174D01*
X71374026Y-31325724D01*
X71367437Y-31338052D01*
X71303454Y-31457754D01*
X71259997Y-31601015D01*
X71249000Y-31712668D01*
X71249000Y-31712678D01*
X71245324Y-31750000D01*
X71249000Y-31787323D01*
X71249001Y-34094288D01*
X71205063Y-34138226D01*
X71091795Y-34307744D01*
X71013774Y-34496102D01*
X70974000Y-34696061D01*
X63865339Y-34696061D01*
X63755063Y-21463000D01*
X76327000Y-21463000D01*
X76327000Y-28550532D01*
X76298795Y-28592744D01*
X76220774Y-28781102D01*
X76181000Y-28981061D01*
X76181000Y-29184939D01*
X76220774Y-29384898D01*
X76298795Y-29573256D01*
X76327000Y-29615468D01*
X76327000Y-29972000D01*
X76329440Y-29996776D01*
X76336667Y-30020601D01*
X76348403Y-30042557D01*
X76364197Y-30061803D01*
X76383443Y-30077597D01*
X76405399Y-30089333D01*
X76429224Y-30096560D01*
X76454000Y-30099000D01*
X77018541Y-30099000D01*
X77114061Y-30118000D01*
X77317939Y-30118000D01*
X77413459Y-30099000D01*
X83414532Y-30099000D01*
X83456744Y-30127205D01*
X83645102Y-30205226D01*
X83845061Y-30245000D01*
X84048939Y-30245000D01*
X84248898Y-30205226D01*
X84437256Y-30127205D01*
X84479468Y-30099000D01*
X84836000Y-30099000D01*
X84860776Y-30096560D01*
X84884601Y-30089333D01*
X84906557Y-30077597D01*
X84925803Y-30061803D01*
X84941597Y-30042557D01*
X84953333Y-30020601D01*
X84960560Y-29996776D01*
X84963000Y-29972000D01*
X84963000Y-29407459D01*
X84982000Y-29311939D01*
X84982000Y-29108061D01*
X84963000Y-29012541D01*
X84963000Y-21296231D01*
X85048482Y-21287812D01*
X85168180Y-21251502D01*
X85247694Y-21209000D01*
X87122000Y-21209000D01*
X87122000Y-36449000D01*
G36*
X80304998Y-33397113D02*
G01*
X80479328Y-33396884D01*
X80483032Y-33396142D01*
X80507042Y-33420152D01*
X80505887Y-33425998D01*
X80506116Y-33600328D01*
X80506858Y-33604032D01*
X80407971Y-33702919D01*
X80391000Y-33685948D01*
X80374029Y-33702919D01*
X80274958Y-33603848D01*
X80276113Y-33598002D01*
X80275884Y-33423672D01*
X80275142Y-33419968D01*
X80299152Y-33395958D01*
X80304998Y-33397113D01*
G37*
X80304998Y-33397113D02*
X80479328Y-33396884D01*
X80483032Y-33396142D01*
X80507042Y-33420152D01*
X80505887Y-33425998D01*
X80506116Y-33600328D01*
X80506858Y-33604032D01*
X80407971Y-33702919D01*
X80391000Y-33685948D01*
X80374029Y-33702919D01*
X80274958Y-33603848D01*
X80276113Y-33598002D01*
X80275884Y-33423672D01*
X80275142Y-33419968D01*
X80299152Y-33395958D01*
X80304998Y-33397113D01*
G36*
X79304998Y-32397113D02*
G01*
X79479328Y-32396884D01*
X79483032Y-32396142D01*
X79507042Y-32420152D01*
X79505887Y-32425998D01*
X79506116Y-32600328D01*
X79506858Y-32604032D01*
X79482848Y-32628042D01*
X79477002Y-32626887D01*
X79302672Y-32627116D01*
X79298968Y-32627858D01*
X79200081Y-32528971D01*
X79217052Y-32512000D01*
X79200081Y-32495029D01*
X79299152Y-32395958D01*
X79304998Y-32397113D01*
G37*
X79304998Y-32397113D02*
X79479328Y-32396884D01*
X79483032Y-32396142D01*
X79507042Y-32420152D01*
X79505887Y-32425998D01*
X79506116Y-32600328D01*
X79506858Y-32604032D01*
X79482848Y-32628042D01*
X79477002Y-32626887D01*
X79302672Y-32627116D01*
X79298968Y-32627858D01*
X79200081Y-32528971D01*
X79217052Y-32512000D01*
X79200081Y-32495029D01*
X79299152Y-32395958D01*
X79304998Y-32397113D01*
G36*
X80304998Y-32397113D02*
G01*
X80479328Y-32396884D01*
X80483032Y-32396142D01*
X80507042Y-32420152D01*
X80505887Y-32425998D01*
X80506116Y-32600328D01*
X80506858Y-32604032D01*
X80482848Y-32628042D01*
X80477002Y-32626887D01*
X80302672Y-32627116D01*
X80298968Y-32627858D01*
X80274958Y-32603848D01*
X80276113Y-32598002D01*
X80275884Y-32423672D01*
X80275142Y-32419968D01*
X80299152Y-32395958D01*
X80304998Y-32397113D01*
G37*
X80304998Y-32397113D02*
X80479328Y-32396884D01*
X80483032Y-32396142D01*
X80507042Y-32420152D01*
X80505887Y-32425998D01*
X80506116Y-32600328D01*
X80506858Y-32604032D01*
X80482848Y-32628042D01*
X80477002Y-32626887D01*
X80302672Y-32627116D01*
X80298968Y-32627858D01*
X80274958Y-32603848D01*
X80276113Y-32598002D01*
X80275884Y-32423672D01*
X80275142Y-32419968D01*
X80299152Y-32395958D01*
X80304998Y-32397113D01*
G36*
X81304998Y-32397113D02*
G01*
X81479328Y-32396884D01*
X81483032Y-32396142D01*
X81581919Y-32495029D01*
X81564948Y-32512000D01*
X81581919Y-32528971D01*
X81482848Y-32628042D01*
X81477002Y-32626887D01*
X81302672Y-32627116D01*
X81298968Y-32627858D01*
X81274958Y-32603848D01*
X81276113Y-32598002D01*
X81275884Y-32423672D01*
X81275142Y-32419968D01*
X81299152Y-32395958D01*
X81304998Y-32397113D01*
G37*
X81304998Y-32397113D02*
X81479328Y-32396884D01*
X81483032Y-32396142D01*
X81581919Y-32495029D01*
X81564948Y-32512000D01*
X81581919Y-32528971D01*
X81482848Y-32628042D01*
X81477002Y-32626887D01*
X81302672Y-32627116D01*
X81298968Y-32627858D01*
X81274958Y-32603848D01*
X81276113Y-32598002D01*
X81275884Y-32423672D01*
X81275142Y-32419968D01*
X81299152Y-32395958D01*
X81304998Y-32397113D01*
G36*
X80507042Y-31420152D02*
G01*
X80505887Y-31425998D01*
X80506116Y-31600328D01*
X80506858Y-31604032D01*
X80482848Y-31628042D01*
X80477002Y-31626887D01*
X80302672Y-31627116D01*
X80298968Y-31627858D01*
X80274958Y-31603848D01*
X80276113Y-31598002D01*
X80275884Y-31423672D01*
X80275142Y-31419968D01*
X80374029Y-31321081D01*
X80391000Y-31338052D01*
X80407971Y-31321081D01*
X80507042Y-31420152D01*
G37*
X80507042Y-31420152D02*
X80505887Y-31425998D01*
X80506116Y-31600328D01*
X80506858Y-31604032D01*
X80482848Y-31628042D01*
X80477002Y-31626887D01*
X80302672Y-31627116D01*
X80298968Y-31627858D01*
X80274958Y-31603848D01*
X80276113Y-31598002D01*
X80275884Y-31423672D01*
X80275142Y-31419968D01*
X80374029Y-31321081D01*
X80391000Y-31338052D01*
X80407971Y-31321081D01*
X80507042Y-31420152D01*
G36*
X78996000Y-22410289D02*
G01*
X78952063Y-22454226D01*
X78838795Y-22623744D01*
X78760774Y-22812102D01*
X78721000Y-23012061D01*
X78721000Y-23215939D01*
X78760774Y-23415898D01*
X78838795Y-23604256D01*
X78952063Y-23773774D01*
X79096226Y-23917937D01*
X79265744Y-24031205D01*
X79454102Y-24109226D01*
X79654061Y-24149000D01*
X79857939Y-24149000D01*
X80057898Y-24109226D01*
X80246256Y-24031205D01*
X80415774Y-23917937D01*
X80458789Y-23874922D01*
X80476063Y-23900774D01*
X80620226Y-24044937D01*
X80789744Y-24158205D01*
X80978102Y-24236226D01*
X81178061Y-24276000D01*
X81381939Y-24276000D01*
X81581898Y-24236226D01*
X81770256Y-24158205D01*
X81939774Y-24044937D01*
X82083937Y-23900774D01*
X82197205Y-23731256D01*
X82275226Y-23542898D01*
X82315000Y-23342939D01*
X82315000Y-23139061D01*
X82275226Y-22939102D01*
X82197205Y-22750744D01*
X82083937Y-22581226D01*
X82040000Y-22537289D01*
X82040000Y-21590000D01*
X83185000Y-21590000D01*
X83185000Y-28508289D01*
X83143063Y-28550226D01*
X83029795Y-28719744D01*
X82951774Y-28908102D01*
X82912000Y-29108061D01*
X82912000Y-29311939D01*
X82951774Y-29511898D01*
X83029795Y-29700256D01*
X83143063Y-29869774D01*
X83185000Y-29911711D01*
X83185000Y-29983022D01*
X77851000Y-30467931D01*
X77851000Y-29903490D01*
X77875774Y-29886937D01*
X78019937Y-29742774D01*
X78133205Y-29573256D01*
X78211226Y-29384898D01*
X78251000Y-29184939D01*
X78251000Y-28981061D01*
X78211226Y-28781102D01*
X78133205Y-28592744D01*
X78019937Y-28423226D01*
X77976000Y-28379289D01*
X77976000Y-21590000D01*
X78996001Y-21590000D01*
X78996000Y-22410289D01*
G37*
X78996000Y-22410289D02*
X78952063Y-22454226D01*
X78838795Y-22623744D01*
X78760774Y-22812102D01*
X78721000Y-23012061D01*
X78721000Y-23215939D01*
X78760774Y-23415898D01*
X78838795Y-23604256D01*
X78952063Y-23773774D01*
X79096226Y-23917937D01*
X79265744Y-24031205D01*
X79454102Y-24109226D01*
X79654061Y-24149000D01*
X79857939Y-24149000D01*
X80057898Y-24109226D01*
X80246256Y-24031205D01*
X80415774Y-23917937D01*
X80458789Y-23874922D01*
X80476063Y-23900774D01*
X80620226Y-24044937D01*
X80789744Y-24158205D01*
X80978102Y-24236226D01*
X81178061Y-24276000D01*
X81381939Y-24276000D01*
X81581898Y-24236226D01*
X81770256Y-24158205D01*
X81939774Y-24044937D01*
X82083937Y-23900774D01*
X82197205Y-23731256D01*
X82275226Y-23542898D01*
X82315000Y-23342939D01*
X82315000Y-23139061D01*
X82275226Y-22939102D01*
X82197205Y-22750744D01*
X82083937Y-22581226D01*
X82040000Y-22537289D01*
X82040000Y-21590000D01*
X83185000Y-21590000D01*
X83185000Y-28508289D01*
X83143063Y-28550226D01*
X83029795Y-28719744D01*
X82951774Y-28908102D01*
X82912000Y-29108061D01*
X82912000Y-29311939D01*
X82951774Y-29511898D01*
X83029795Y-29700256D01*
X83143063Y-29869774D01*
X83185000Y-29911711D01*
X83185000Y-29983022D01*
X77851000Y-30467931D01*
X77851000Y-29903490D01*
X77875774Y-29886937D01*
X78019937Y-29742774D01*
X78133205Y-29573256D01*
X78211226Y-29384898D01*
X78251000Y-29184939D01*
X78251000Y-28981061D01*
X78211226Y-28781102D01*
X78133205Y-28592744D01*
X78019937Y-28423226D01*
X77976000Y-28379289D01*
X77976000Y-21590000D01*
X78996001Y-21590000D01*
X78996000Y-22410289D01*
G36*
X85852000Y-37592000D02*
G01*
X31623000Y-37592000D01*
X31623000Y-35813705D01*
X71531955Y-35720677D01*
X71707102Y-35793226D01*
X71907061Y-35833000D01*
X72110939Y-35833000D01*
X72310898Y-35793226D01*
X72491445Y-35718441D01*
X85852000Y-35687297D01*
X85852000Y-37592000D01*
G37*
X85852000Y-37592000D02*
X31623000Y-37592000D01*
X31623000Y-35813705D01*
X71531955Y-35720677D01*
X71707102Y-35793226D01*
X71907061Y-35833000D01*
X72110939Y-35833000D01*
X72310898Y-35793226D01*
X72491445Y-35718441D01*
X85852000Y-35687297D01*
X85852000Y-37592000D01*
G36*
X97467589Y-21254990D02*
G01*
X97737842Y-21366932D01*
X98024740Y-21424000D01*
X98044000Y-21424000D01*
X98044000Y-28127289D01*
X98002063Y-28169226D01*
X97888795Y-28338744D01*
X97810774Y-28527102D01*
X97771000Y-28727061D01*
X97771000Y-28930939D01*
X97810774Y-29130898D01*
X97888795Y-29319256D01*
X98002063Y-29488774D01*
X98044000Y-29530711D01*
X98044000Y-37338000D01*
X85727418Y-37338000D01*
X85779662Y-34569061D01*
X92056000Y-34569061D01*
X92056000Y-34772939D01*
X92095774Y-34972898D01*
X92173795Y-35161256D01*
X92287063Y-35330774D01*
X92431226Y-35474937D01*
X92600744Y-35588205D01*
X92789102Y-35666226D01*
X92989061Y-35706000D01*
X93192939Y-35706000D01*
X93392898Y-35666226D01*
X93581256Y-35588205D01*
X93750774Y-35474937D01*
X93894937Y-35330774D01*
X94008205Y-35161256D01*
X94086226Y-34972898D01*
X94126000Y-34772939D01*
X94126000Y-34569061D01*
X94086226Y-34369102D01*
X94008205Y-34180744D01*
X93894937Y-34011226D01*
X93851000Y-33967289D01*
X93851000Y-32191801D01*
X95380003Y-30662799D01*
X95409001Y-30639001D01*
X95503974Y-30523276D01*
X95574546Y-30391247D01*
X95618003Y-30247986D01*
X95629000Y-30136333D01*
X95629000Y-30136325D01*
X95632676Y-30099000D01*
X95629000Y-30061675D01*
X95629000Y-29024711D01*
X95672937Y-28980774D01*
X95786205Y-28811256D01*
X95864226Y-28622898D01*
X95904000Y-28422939D01*
X95904000Y-28219061D01*
X95864226Y-28019102D01*
X95786205Y-27830744D01*
X95672937Y-27661226D01*
X95528774Y-27517063D01*
X95359256Y-27403795D01*
X95170898Y-27325774D01*
X94970939Y-27286000D01*
X94767061Y-27286000D01*
X94567102Y-27325774D01*
X94378744Y-27403795D01*
X94209226Y-27517063D01*
X94065063Y-27661226D01*
X93951795Y-27830744D01*
X93873774Y-28019102D01*
X93834000Y-28219061D01*
X93834000Y-28422939D01*
X93873774Y-28622898D01*
X93951795Y-28811256D01*
X94065063Y-28980774D01*
X94109000Y-29024711D01*
X94109001Y-29784197D01*
X92580003Y-31313196D01*
X92550999Y-31336999D01*
X92495871Y-31404174D01*
X92456026Y-31452724D01*
X92385455Y-31584753D01*
X92385454Y-31584754D01*
X92341997Y-31728015D01*
X92331000Y-31839668D01*
X92331000Y-31839678D01*
X92327324Y-31877000D01*
X92331000Y-31914323D01*
X92331001Y-33967288D01*
X92287063Y-34011226D01*
X92173795Y-34180744D01*
X92095774Y-34369102D01*
X92056000Y-34569061D01*
X85779662Y-34569061D01*
X85851843Y-30743518D01*
X87106384Y-21209000D01*
X97398760Y-21209000D01*
X97467589Y-21254990D01*
G37*
X97467589Y-21254990D02*
X97737842Y-21366932D01*
X98024740Y-21424000D01*
X98044000Y-21424000D01*
X98044000Y-28127289D01*
X98002063Y-28169226D01*
X97888795Y-28338744D01*
X97810774Y-28527102D01*
X97771000Y-28727061D01*
X97771000Y-28930939D01*
X97810774Y-29130898D01*
X97888795Y-29319256D01*
X98002063Y-29488774D01*
X98044000Y-29530711D01*
X98044000Y-37338000D01*
X85727418Y-37338000D01*
X85779662Y-34569061D01*
X92056000Y-34569061D01*
X92056000Y-34772939D01*
X92095774Y-34972898D01*
X92173795Y-35161256D01*
X92287063Y-35330774D01*
X92431226Y-35474937D01*
X92600744Y-35588205D01*
X92789102Y-35666226D01*
X92989061Y-35706000D01*
X93192939Y-35706000D01*
X93392898Y-35666226D01*
X93581256Y-35588205D01*
X93750774Y-35474937D01*
X93894937Y-35330774D01*
X94008205Y-35161256D01*
X94086226Y-34972898D01*
X94126000Y-34772939D01*
X94126000Y-34569061D01*
X94086226Y-34369102D01*
X94008205Y-34180744D01*
X93894937Y-34011226D01*
X93851000Y-33967289D01*
X93851000Y-32191801D01*
X95380003Y-30662799D01*
X95409001Y-30639001D01*
X95503974Y-30523276D01*
X95574546Y-30391247D01*
X95618003Y-30247986D01*
X95629000Y-30136333D01*
X95629000Y-30136325D01*
X95632676Y-30099000D01*
X95629000Y-30061675D01*
X95629000Y-29024711D01*
X95672937Y-28980774D01*
X95786205Y-28811256D01*
X95864226Y-28622898D01*
X95904000Y-28422939D01*
X95904000Y-28219061D01*
X95864226Y-28019102D01*
X95786205Y-27830744D01*
X95672937Y-27661226D01*
X95528774Y-27517063D01*
X95359256Y-27403795D01*
X95170898Y-27325774D01*
X94970939Y-27286000D01*
X94767061Y-27286000D01*
X94567102Y-27325774D01*
X94378744Y-27403795D01*
X94209226Y-27517063D01*
X94065063Y-27661226D01*
X93951795Y-27830744D01*
X93873774Y-28019102D01*
X93834000Y-28219061D01*
X93834000Y-28422939D01*
X93873774Y-28622898D01*
X93951795Y-28811256D01*
X94065063Y-28980774D01*
X94109000Y-29024711D01*
X94109001Y-29784197D01*
X92580003Y-31313196D01*
X92550999Y-31336999D01*
X92495871Y-31404174D01*
X92456026Y-31452724D01*
X92385455Y-31584753D01*
X92385454Y-31584754D01*
X92341997Y-31728015D01*
X92331000Y-31839668D01*
X92331000Y-31839678D01*
X92327324Y-31877000D01*
X92331000Y-31914323D01*
X92331001Y-33967288D01*
X92287063Y-34011226D01*
X92173795Y-34180744D01*
X92095774Y-34369102D01*
X92056000Y-34569061D01*
X85779662Y-34569061D01*
X85851843Y-30743518D01*
X87106384Y-21209000D01*
X97398760Y-21209000D01*
X97467589Y-21254990D01*
G36*
X100457000Y-23047289D02*
G01*
X100415063Y-23089226D01*
X100301795Y-23258744D01*
X100223774Y-23447102D01*
X100184000Y-23647061D01*
X100184000Y-23850939D01*
X100223774Y-24050898D01*
X100301795Y-24239256D01*
X100415063Y-24408774D01*
X100559226Y-24552937D01*
X100728744Y-24666205D01*
X100917102Y-24744226D01*
X101117061Y-24784000D01*
X101320939Y-24784000D01*
X101520898Y-24744226D01*
X101709256Y-24666205D01*
X101878774Y-24552937D01*
X102022937Y-24408774D01*
X102104279Y-24287036D01*
X102115602Y-24291726D01*
X102315561Y-24331500D01*
X102519439Y-24331500D01*
X102719398Y-24291726D01*
X102907756Y-24213705D01*
X103077274Y-24100437D01*
X103221437Y-23956274D01*
X103334705Y-23786756D01*
X103412726Y-23598398D01*
X103452500Y-23398439D01*
X103452500Y-23194561D01*
X103412726Y-22994602D01*
X103334705Y-22806244D01*
X103221437Y-22636726D01*
X103177500Y-22592789D01*
X103177500Y-21717000D01*
X104648000Y-21717000D01*
X104648000Y-28423532D01*
X104619795Y-28465744D01*
X104541774Y-28654102D01*
X104502000Y-28854061D01*
X104502000Y-29057939D01*
X104541774Y-29257898D01*
X104619795Y-29446256D01*
X104648000Y-29488468D01*
X104648000Y-29718000D01*
X104650440Y-29742776D01*
X104657667Y-29766601D01*
X104669403Y-29788557D01*
X104685197Y-29807803D01*
X104704443Y-29823597D01*
X104726399Y-29835333D01*
X104750224Y-29842560D01*
X104775000Y-29845000D01*
X105004532Y-29845000D01*
X105046744Y-29873205D01*
X105235102Y-29951226D01*
X105435061Y-29991000D01*
X105638939Y-29991000D01*
X105838898Y-29951226D01*
X106027256Y-29873205D01*
X106069468Y-29845000D01*
X106299000Y-29845000D01*
X106323776Y-29842560D01*
X106347601Y-29835333D01*
X106369557Y-29823597D01*
X106388803Y-29807803D01*
X106404597Y-29788557D01*
X106416333Y-29766601D01*
X106423560Y-29742776D01*
X106426000Y-29718000D01*
X106426000Y-29488468D01*
X106454205Y-29446256D01*
X106532226Y-29257898D01*
X106572000Y-29057939D01*
X106572000Y-28854061D01*
X106532226Y-28654102D01*
X106454205Y-28465744D01*
X106426000Y-28423532D01*
X106426000Y-21590000D01*
X109347000Y-21590000D01*
X109347000Y-37338000D01*
X98171000Y-37338000D01*
X98171000Y-31262000D01*
X100029428Y-31262000D01*
X100032500Y-32226250D01*
X100065356Y-32259106D01*
X100032387Y-32425998D01*
X100032616Y-32600328D01*
X100065539Y-32764711D01*
X100032500Y-32797750D01*
X100029428Y-33762000D01*
X100041688Y-33886482D01*
X100077998Y-34006180D01*
X100136963Y-34116494D01*
X100216315Y-34213185D01*
X100313006Y-34292537D01*
X100423320Y-34351502D01*
X100543018Y-34387812D01*
X100667500Y-34400072D01*
X101631750Y-34397000D01*
X101664606Y-34364144D01*
X101831498Y-34397113D01*
X102005828Y-34396884D01*
X102170211Y-34363961D01*
X102203250Y-34397000D01*
X103167500Y-34400072D01*
X103291982Y-34387812D01*
X103411680Y-34351502D01*
X103521994Y-34292537D01*
X103618685Y-34213185D01*
X103698037Y-34116494D01*
X103757002Y-34006180D01*
X103793312Y-33886482D01*
X103805572Y-33762000D01*
X103802500Y-32797750D01*
X103769644Y-32764894D01*
X103802613Y-32598002D01*
X103802384Y-32423672D01*
X103769461Y-32259289D01*
X103802500Y-32226250D01*
X103805572Y-31262000D01*
X103793312Y-31137518D01*
X103757002Y-31017820D01*
X103698037Y-30907506D01*
X103618685Y-30810815D01*
X103521994Y-30731463D01*
X103411680Y-30672498D01*
X103291982Y-30636188D01*
X103167500Y-30623928D01*
X102203250Y-30627000D01*
X102170394Y-30659856D01*
X102003502Y-30626887D01*
X101829172Y-30627116D01*
X101664789Y-30660039D01*
X101631750Y-30627000D01*
X100667500Y-30623928D01*
X100543018Y-30636188D01*
X100423320Y-30672498D01*
X100313006Y-30731463D01*
X100216315Y-30810815D01*
X100136963Y-30907506D01*
X100077998Y-31017820D01*
X100041688Y-31137518D01*
X100029428Y-31262000D01*
X98171000Y-31262000D01*
X98171000Y-29718000D01*
X98273532Y-29718000D01*
X98315744Y-29746205D01*
X98504102Y-29824226D01*
X98704061Y-29864000D01*
X98907939Y-29864000D01*
X99107898Y-29824226D01*
X99296256Y-29746205D01*
X99344900Y-29713702D01*
X99362601Y-29708333D01*
X99384557Y-29696597D01*
X99403803Y-29680803D01*
X99415537Y-29666504D01*
X99465774Y-29632937D01*
X99609937Y-29488774D01*
X99723205Y-29319256D01*
X99801226Y-29130898D01*
X99841000Y-28930939D01*
X99841000Y-28727061D01*
X99801226Y-28527102D01*
X99723205Y-28338744D01*
X99609937Y-28169226D01*
X99566000Y-28125289D01*
X99566000Y-21590000D01*
X100457000Y-21590000D01*
X100457000Y-23047289D01*
G37*
X100457000Y-23047289D02*
X100415063Y-23089226D01*
X100301795Y-23258744D01*
X100223774Y-23447102D01*
X100184000Y-23647061D01*
X100184000Y-23850939D01*
X100223774Y-24050898D01*
X100301795Y-24239256D01*
X100415063Y-24408774D01*
X100559226Y-24552937D01*
X100728744Y-24666205D01*
X100917102Y-24744226D01*
X101117061Y-24784000D01*
X101320939Y-24784000D01*
X101520898Y-24744226D01*
X101709256Y-24666205D01*
X101878774Y-24552937D01*
X102022937Y-24408774D01*
X102104279Y-24287036D01*
X102115602Y-24291726D01*
X102315561Y-24331500D01*
X102519439Y-24331500D01*
X102719398Y-24291726D01*
X102907756Y-24213705D01*
X103077274Y-24100437D01*
X103221437Y-23956274D01*
X103334705Y-23786756D01*
X103412726Y-23598398D01*
X103452500Y-23398439D01*
X103452500Y-23194561D01*
X103412726Y-22994602D01*
X103334705Y-22806244D01*
X103221437Y-22636726D01*
X103177500Y-22592789D01*
X103177500Y-21717000D01*
X104648000Y-21717000D01*
X104648000Y-28423532D01*
X104619795Y-28465744D01*
X104541774Y-28654102D01*
X104502000Y-28854061D01*
X104502000Y-29057939D01*
X104541774Y-29257898D01*
X104619795Y-29446256D01*
X104648000Y-29488468D01*
X104648000Y-29718000D01*
X104650440Y-29742776D01*
X104657667Y-29766601D01*
X104669403Y-29788557D01*
X104685197Y-29807803D01*
X104704443Y-29823597D01*
X104726399Y-29835333D01*
X104750224Y-29842560D01*
X104775000Y-29845000D01*
X105004532Y-29845000D01*
X105046744Y-29873205D01*
X105235102Y-29951226D01*
X105435061Y-29991000D01*
X105638939Y-29991000D01*
X105838898Y-29951226D01*
X106027256Y-29873205D01*
X106069468Y-29845000D01*
X106299000Y-29845000D01*
X106323776Y-29842560D01*
X106347601Y-29835333D01*
X106369557Y-29823597D01*
X106388803Y-29807803D01*
X106404597Y-29788557D01*
X106416333Y-29766601D01*
X106423560Y-29742776D01*
X106426000Y-29718000D01*
X106426000Y-29488468D01*
X106454205Y-29446256D01*
X106532226Y-29257898D01*
X106572000Y-29057939D01*
X106572000Y-28854061D01*
X106532226Y-28654102D01*
X106454205Y-28465744D01*
X106426000Y-28423532D01*
X106426000Y-21590000D01*
X109347000Y-21590000D01*
X109347000Y-37338000D01*
X98171000Y-37338000D01*
X98171000Y-31262000D01*
X100029428Y-31262000D01*
X100032500Y-32226250D01*
X100065356Y-32259106D01*
X100032387Y-32425998D01*
X100032616Y-32600328D01*
X100065539Y-32764711D01*
X100032500Y-32797750D01*
X100029428Y-33762000D01*
X100041688Y-33886482D01*
X100077998Y-34006180D01*
X100136963Y-34116494D01*
X100216315Y-34213185D01*
X100313006Y-34292537D01*
X100423320Y-34351502D01*
X100543018Y-34387812D01*
X100667500Y-34400072D01*
X101631750Y-34397000D01*
X101664606Y-34364144D01*
X101831498Y-34397113D01*
X102005828Y-34396884D01*
X102170211Y-34363961D01*
X102203250Y-34397000D01*
X103167500Y-34400072D01*
X103291982Y-34387812D01*
X103411680Y-34351502D01*
X103521994Y-34292537D01*
X103618685Y-34213185D01*
X103698037Y-34116494D01*
X103757002Y-34006180D01*
X103793312Y-33886482D01*
X103805572Y-33762000D01*
X103802500Y-32797750D01*
X103769644Y-32764894D01*
X103802613Y-32598002D01*
X103802384Y-32423672D01*
X103769461Y-32259289D01*
X103802500Y-32226250D01*
X103805572Y-31262000D01*
X103793312Y-31137518D01*
X103757002Y-31017820D01*
X103698037Y-30907506D01*
X103618685Y-30810815D01*
X103521994Y-30731463D01*
X103411680Y-30672498D01*
X103291982Y-30636188D01*
X103167500Y-30623928D01*
X102203250Y-30627000D01*
X102170394Y-30659856D01*
X102003502Y-30626887D01*
X101829172Y-30627116D01*
X101664789Y-30660039D01*
X101631750Y-30627000D01*
X100667500Y-30623928D01*
X100543018Y-30636188D01*
X100423320Y-30672498D01*
X100313006Y-30731463D01*
X100216315Y-30810815D01*
X100136963Y-30907506D01*
X100077998Y-31017820D01*
X100041688Y-31137518D01*
X100029428Y-31262000D01*
X98171000Y-31262000D01*
X98171000Y-29718000D01*
X98273532Y-29718000D01*
X98315744Y-29746205D01*
X98504102Y-29824226D01*
X98704061Y-29864000D01*
X98907939Y-29864000D01*
X99107898Y-29824226D01*
X99296256Y-29746205D01*
X99344900Y-29713702D01*
X99362601Y-29708333D01*
X99384557Y-29696597D01*
X99403803Y-29680803D01*
X99415537Y-29666504D01*
X99465774Y-29632937D01*
X99609937Y-29488774D01*
X99723205Y-29319256D01*
X99801226Y-29130898D01*
X99841000Y-28930939D01*
X99841000Y-28727061D01*
X99801226Y-28527102D01*
X99723205Y-28338744D01*
X99609937Y-28169226D01*
X99566000Y-28125289D01*
X99566000Y-21590000D01*
X100457000Y-21590000D01*
X100457000Y-23047289D01*
G36*
X101831498Y-33397113D02*
G01*
X102005828Y-33396884D01*
X102009532Y-33396142D01*
X102033542Y-33420152D01*
X102032387Y-33425998D01*
X102032616Y-33600328D01*
X102033358Y-33604032D01*
X101934471Y-33702919D01*
X101917500Y-33685948D01*
X101900529Y-33702919D01*
X101801458Y-33603848D01*
X101802613Y-33598002D01*
X101802384Y-33423672D01*
X101801642Y-33419968D01*
X101825652Y-33395958D01*
X101831498Y-33397113D01*
G37*
X101831498Y-33397113D02*
X102005828Y-33396884D01*
X102009532Y-33396142D01*
X102033542Y-33420152D01*
X102032387Y-33425998D01*
X102032616Y-33600328D01*
X102033358Y-33604032D01*
X101934471Y-33702919D01*
X101917500Y-33685948D01*
X101900529Y-33702919D01*
X101801458Y-33603848D01*
X101802613Y-33598002D01*
X101802384Y-33423672D01*
X101801642Y-33419968D01*
X101825652Y-33395958D01*
X101831498Y-33397113D01*
G36*
X101831498Y-32397113D02*
G01*
X102005828Y-32396884D01*
X102009532Y-32396142D01*
X102033542Y-32420152D01*
X102032387Y-32425998D01*
X102032616Y-32600328D01*
X102033358Y-32604032D01*
X102009348Y-32628042D01*
X102003502Y-32626887D01*
X101829172Y-32627116D01*
X101825468Y-32627858D01*
X101801458Y-32603848D01*
X101802613Y-32598002D01*
X101802384Y-32423672D01*
X101801642Y-32419968D01*
X101825652Y-32395958D01*
X101831498Y-32397113D01*
G37*
X101831498Y-32397113D02*
X102005828Y-32396884D01*
X102009532Y-32396142D01*
X102033542Y-32420152D01*
X102032387Y-32425998D01*
X102032616Y-32600328D01*
X102033358Y-32604032D01*
X102009348Y-32628042D01*
X102003502Y-32626887D01*
X101829172Y-32627116D01*
X101825468Y-32627858D01*
X101801458Y-32603848D01*
X101802613Y-32598002D01*
X101802384Y-32423672D01*
X101801642Y-32419968D01*
X101825652Y-32395958D01*
X101831498Y-32397113D01*
G36*
X100831498Y-32397113D02*
G01*
X101005828Y-32396884D01*
X101009532Y-32396142D01*
X101033542Y-32420152D01*
X101032387Y-32425998D01*
X101032616Y-32600328D01*
X101033358Y-32604032D01*
X101009348Y-32628042D01*
X101003502Y-32626887D01*
X100829172Y-32627116D01*
X100825468Y-32627858D01*
X100726581Y-32528971D01*
X100743552Y-32512000D01*
X100726581Y-32495029D01*
X100825652Y-32395958D01*
X100831498Y-32397113D01*
G37*
X100831498Y-32397113D02*
X101005828Y-32396884D01*
X101009532Y-32396142D01*
X101033542Y-32420152D01*
X101032387Y-32425998D01*
X101032616Y-32600328D01*
X101033358Y-32604032D01*
X101009348Y-32628042D01*
X101003502Y-32626887D01*
X100829172Y-32627116D01*
X100825468Y-32627858D01*
X100726581Y-32528971D01*
X100743552Y-32512000D01*
X100726581Y-32495029D01*
X100825652Y-32395958D01*
X100831498Y-32397113D01*
G36*
X102831498Y-32397113D02*
G01*
X103005828Y-32396884D01*
X103009532Y-32396142D01*
X103108419Y-32495029D01*
X103091448Y-32512000D01*
X103108419Y-32528971D01*
X103009348Y-32628042D01*
X103003502Y-32626887D01*
X102829172Y-32627116D01*
X102825468Y-32627858D01*
X102801458Y-32603848D01*
X102802613Y-32598002D01*
X102802384Y-32423672D01*
X102801642Y-32419968D01*
X102825652Y-32395958D01*
X102831498Y-32397113D01*
G37*
X102831498Y-32397113D02*
X103005828Y-32396884D01*
X103009532Y-32396142D01*
X103108419Y-32495029D01*
X103091448Y-32512000D01*
X103108419Y-32528971D01*
X103009348Y-32628042D01*
X103003502Y-32626887D01*
X102829172Y-32627116D01*
X102825468Y-32627858D01*
X102801458Y-32603848D01*
X102802613Y-32598002D01*
X102802384Y-32423672D01*
X102801642Y-32419968D01*
X102825652Y-32395958D01*
X102831498Y-32397113D01*
G36*
X102033542Y-31420152D02*
G01*
X102032387Y-31425998D01*
X102032616Y-31600328D01*
X102033358Y-31604032D01*
X102009348Y-31628042D01*
X102003502Y-31626887D01*
X101829172Y-31627116D01*
X101825468Y-31627858D01*
X101801458Y-31603848D01*
X101802613Y-31598002D01*
X101802384Y-31423672D01*
X101801642Y-31419968D01*
X101900529Y-31321081D01*
X101917500Y-31338052D01*
X101934471Y-31321081D01*
X102033542Y-31420152D01*
G37*
X102033542Y-31420152D02*
X102032387Y-31425998D01*
X102032616Y-31600328D01*
X102033358Y-31604032D01*
X102009348Y-31628042D01*
X102003502Y-31626887D01*
X101829172Y-31627116D01*
X101825468Y-31627858D01*
X101801458Y-31603848D01*
X101802613Y-31598002D01*
X101802384Y-31423672D01*
X101801642Y-31419968D01*
X101900529Y-31321081D01*
X101917500Y-31338052D01*
X101934471Y-31321081D01*
X102033542Y-31420152D01*
G36*
X130302000Y-37338000D02*
G01*
X109467706Y-37338000D01*
X109099622Y-30099000D01*
X115807002Y-30099000D01*
X115807002Y-30819196D01*
X114551003Y-32075196D01*
X114521999Y-32098999D01*
X114466871Y-32166174D01*
X114427026Y-32214724D01*
X114402432Y-32260736D01*
X114356454Y-32346754D01*
X114312997Y-32490015D01*
X114302000Y-32601668D01*
X114302000Y-32601678D01*
X114298324Y-32639000D01*
X114302000Y-32676323D01*
X114302001Y-33967288D01*
X114258063Y-34011226D01*
X114144795Y-34180744D01*
X114066774Y-34369102D01*
X114027000Y-34569061D01*
X114027000Y-34772939D01*
X114066774Y-34972898D01*
X114144795Y-35161256D01*
X114258063Y-35330774D01*
X114402226Y-35474937D01*
X114571744Y-35588205D01*
X114760102Y-35666226D01*
X114960061Y-35706000D01*
X115163939Y-35706000D01*
X115363898Y-35666226D01*
X115552256Y-35588205D01*
X115721774Y-35474937D01*
X115865937Y-35330774D01*
X115979205Y-35161256D01*
X116057226Y-34972898D01*
X116097000Y-34772939D01*
X116097000Y-34569061D01*
X116057226Y-34369102D01*
X115979205Y-34180744D01*
X115865937Y-34011226D01*
X115822000Y-33967289D01*
X115822000Y-32953801D01*
X117078004Y-31697798D01*
X117107002Y-31674000D01*
X117201975Y-31558275D01*
X117272547Y-31426246D01*
X117316004Y-31282985D01*
X117317282Y-31270000D01*
X121809928Y-31270000D01*
X121813000Y-32234250D01*
X121845856Y-32267106D01*
X121812887Y-32433998D01*
X121813116Y-32608328D01*
X121846039Y-32772711D01*
X121813000Y-32805750D01*
X121809928Y-33770000D01*
X121822188Y-33894482D01*
X121858498Y-34014180D01*
X121917463Y-34124494D01*
X121996815Y-34221185D01*
X122093506Y-34300537D01*
X122203820Y-34359502D01*
X122323518Y-34395812D01*
X122448000Y-34408072D01*
X123412250Y-34405000D01*
X123445106Y-34372144D01*
X123611998Y-34405113D01*
X123786328Y-34404884D01*
X123950711Y-34371961D01*
X123983750Y-34405000D01*
X124948000Y-34408072D01*
X125072482Y-34395812D01*
X125192180Y-34359502D01*
X125302494Y-34300537D01*
X125399185Y-34221185D01*
X125478537Y-34124494D01*
X125537502Y-34014180D01*
X125573812Y-33894482D01*
X125586072Y-33770000D01*
X125583000Y-32805750D01*
X125550144Y-32772894D01*
X125583113Y-32606002D01*
X125582884Y-32431672D01*
X125549961Y-32267289D01*
X125583000Y-32234250D01*
X125586072Y-31270000D01*
X125573812Y-31145518D01*
X125537502Y-31025820D01*
X125478537Y-30915506D01*
X125399185Y-30818815D01*
X125302494Y-30739463D01*
X125192180Y-30680498D01*
X125072482Y-30644188D01*
X124948000Y-30631928D01*
X123983750Y-30635000D01*
X123950894Y-30667856D01*
X123784002Y-30634887D01*
X123609672Y-30635116D01*
X123445289Y-30668039D01*
X123412250Y-30635000D01*
X122448000Y-30631928D01*
X122323518Y-30644188D01*
X122203820Y-30680498D01*
X122093506Y-30739463D01*
X121996815Y-30818815D01*
X121917463Y-30915506D01*
X121858498Y-31025820D01*
X121822188Y-31145518D01*
X121809928Y-31270000D01*
X117317282Y-31270000D01*
X117327001Y-31171332D01*
X117327001Y-31171322D01*
X117330677Y-31133999D01*
X117327001Y-31096676D01*
X117327001Y-30099000D01*
X127056541Y-30099000D01*
X127152061Y-30118000D01*
X127355939Y-30118000D01*
X127451459Y-30099000D01*
X127889000Y-30099000D01*
X127913776Y-30096560D01*
X127937601Y-30089333D01*
X127959557Y-30077597D01*
X127978803Y-30061803D01*
X127994597Y-30042557D01*
X128006333Y-30020601D01*
X128013560Y-29996776D01*
X128016000Y-29972000D01*
X128016000Y-29784711D01*
X128057937Y-29742774D01*
X128171205Y-29573256D01*
X128249226Y-29384898D01*
X128289000Y-29184939D01*
X128289000Y-28981061D01*
X128249226Y-28781102D01*
X128171205Y-28592744D01*
X128057937Y-28423226D01*
X128016000Y-28381289D01*
X128016000Y-21844000D01*
X130302000Y-21844000D01*
X130302000Y-37338000D01*
G37*
X130302000Y-37338000D02*
X109467706Y-37338000D01*
X109099622Y-30099000D01*
X115807002Y-30099000D01*
X115807002Y-30819196D01*
X114551003Y-32075196D01*
X114521999Y-32098999D01*
X114466871Y-32166174D01*
X114427026Y-32214724D01*
X114402432Y-32260736D01*
X114356454Y-32346754D01*
X114312997Y-32490015D01*
X114302000Y-32601668D01*
X114302000Y-32601678D01*
X114298324Y-32639000D01*
X114302000Y-32676323D01*
X114302001Y-33967288D01*
X114258063Y-34011226D01*
X114144795Y-34180744D01*
X114066774Y-34369102D01*
X114027000Y-34569061D01*
X114027000Y-34772939D01*
X114066774Y-34972898D01*
X114144795Y-35161256D01*
X114258063Y-35330774D01*
X114402226Y-35474937D01*
X114571744Y-35588205D01*
X114760102Y-35666226D01*
X114960061Y-35706000D01*
X115163939Y-35706000D01*
X115363898Y-35666226D01*
X115552256Y-35588205D01*
X115721774Y-35474937D01*
X115865937Y-35330774D01*
X115979205Y-35161256D01*
X116057226Y-34972898D01*
X116097000Y-34772939D01*
X116097000Y-34569061D01*
X116057226Y-34369102D01*
X115979205Y-34180744D01*
X115865937Y-34011226D01*
X115822000Y-33967289D01*
X115822000Y-32953801D01*
X117078004Y-31697798D01*
X117107002Y-31674000D01*
X117201975Y-31558275D01*
X117272547Y-31426246D01*
X117316004Y-31282985D01*
X117317282Y-31270000D01*
X121809928Y-31270000D01*
X121813000Y-32234250D01*
X121845856Y-32267106D01*
X121812887Y-32433998D01*
X121813116Y-32608328D01*
X121846039Y-32772711D01*
X121813000Y-32805750D01*
X121809928Y-33770000D01*
X121822188Y-33894482D01*
X121858498Y-34014180D01*
X121917463Y-34124494D01*
X121996815Y-34221185D01*
X122093506Y-34300537D01*
X122203820Y-34359502D01*
X122323518Y-34395812D01*
X122448000Y-34408072D01*
X123412250Y-34405000D01*
X123445106Y-34372144D01*
X123611998Y-34405113D01*
X123786328Y-34404884D01*
X123950711Y-34371961D01*
X123983750Y-34405000D01*
X124948000Y-34408072D01*
X125072482Y-34395812D01*
X125192180Y-34359502D01*
X125302494Y-34300537D01*
X125399185Y-34221185D01*
X125478537Y-34124494D01*
X125537502Y-34014180D01*
X125573812Y-33894482D01*
X125586072Y-33770000D01*
X125583000Y-32805750D01*
X125550144Y-32772894D01*
X125583113Y-32606002D01*
X125582884Y-32431672D01*
X125549961Y-32267289D01*
X125583000Y-32234250D01*
X125586072Y-31270000D01*
X125573812Y-31145518D01*
X125537502Y-31025820D01*
X125478537Y-30915506D01*
X125399185Y-30818815D01*
X125302494Y-30739463D01*
X125192180Y-30680498D01*
X125072482Y-30644188D01*
X124948000Y-30631928D01*
X123983750Y-30635000D01*
X123950894Y-30667856D01*
X123784002Y-30634887D01*
X123609672Y-30635116D01*
X123445289Y-30668039D01*
X123412250Y-30635000D01*
X122448000Y-30631928D01*
X122323518Y-30644188D01*
X122203820Y-30680498D01*
X122093506Y-30739463D01*
X121996815Y-30818815D01*
X121917463Y-30915506D01*
X121858498Y-31025820D01*
X121822188Y-31145518D01*
X121809928Y-31270000D01*
X117317282Y-31270000D01*
X117327001Y-31171332D01*
X117327001Y-31171322D01*
X117330677Y-31133999D01*
X117327001Y-31096676D01*
X117327001Y-30099000D01*
X127056541Y-30099000D01*
X127152061Y-30118000D01*
X127355939Y-30118000D01*
X127451459Y-30099000D01*
X127889000Y-30099000D01*
X127913776Y-30096560D01*
X127937601Y-30089333D01*
X127959557Y-30077597D01*
X127978803Y-30061803D01*
X127994597Y-30042557D01*
X128006333Y-30020601D01*
X128013560Y-29996776D01*
X128016000Y-29972000D01*
X128016000Y-29784711D01*
X128057937Y-29742774D01*
X128171205Y-29573256D01*
X128249226Y-29384898D01*
X128289000Y-29184939D01*
X128289000Y-28981061D01*
X128249226Y-28781102D01*
X128171205Y-28592744D01*
X128057937Y-28423226D01*
X128016000Y-28381289D01*
X128016000Y-21844000D01*
X130302000Y-21844000D01*
X130302000Y-37338000D01*
G36*
X123611998Y-33405113D02*
G01*
X123786328Y-33404884D01*
X123790032Y-33404142D01*
X123814042Y-33428152D01*
X123812887Y-33433998D01*
X123813116Y-33608328D01*
X123813858Y-33612032D01*
X123714971Y-33710919D01*
X123698000Y-33693948D01*
X123681029Y-33710919D01*
X123581958Y-33611848D01*
X123583113Y-33606002D01*
X123582884Y-33431672D01*
X123582142Y-33427968D01*
X123606152Y-33403958D01*
X123611998Y-33405113D01*
G37*
X123611998Y-33405113D02*
X123786328Y-33404884D01*
X123790032Y-33404142D01*
X123814042Y-33428152D01*
X123812887Y-33433998D01*
X123813116Y-33608328D01*
X123813858Y-33612032D01*
X123714971Y-33710919D01*
X123698000Y-33693948D01*
X123681029Y-33710919D01*
X123581958Y-33611848D01*
X123583113Y-33606002D01*
X123582884Y-33431672D01*
X123582142Y-33427968D01*
X123606152Y-33403958D01*
X123611998Y-33405113D01*
G36*
X124611998Y-32405113D02*
G01*
X124786328Y-32404884D01*
X124790032Y-32404142D01*
X124888919Y-32503029D01*
X124871948Y-32520000D01*
X124888919Y-32536971D01*
X124789848Y-32636042D01*
X124784002Y-32634887D01*
X124609672Y-32635116D01*
X124605968Y-32635858D01*
X124581958Y-32611848D01*
X124583113Y-32606002D01*
X124582884Y-32431672D01*
X124582142Y-32427968D01*
X124606152Y-32403958D01*
X124611998Y-32405113D01*
G37*
X124611998Y-32405113D02*
X124786328Y-32404884D01*
X124790032Y-32404142D01*
X124888919Y-32503029D01*
X124871948Y-32520000D01*
X124888919Y-32536971D01*
X124789848Y-32636042D01*
X124784002Y-32634887D01*
X124609672Y-32635116D01*
X124605968Y-32635858D01*
X124581958Y-32611848D01*
X124583113Y-32606002D01*
X124582884Y-32431672D01*
X124582142Y-32427968D01*
X124606152Y-32403958D01*
X124611998Y-32405113D01*
G36*
X122611998Y-32405113D02*
G01*
X122786328Y-32404884D01*
X122790032Y-32404142D01*
X122814042Y-32428152D01*
X122812887Y-32433998D01*
X122813116Y-32608328D01*
X122813858Y-32612032D01*
X122789848Y-32636042D01*
X122784002Y-32634887D01*
X122609672Y-32635116D01*
X122605968Y-32635858D01*
X122507081Y-32536971D01*
X122524052Y-32520000D01*
X122507081Y-32503029D01*
X122606152Y-32403958D01*
X122611998Y-32405113D01*
G37*
X122611998Y-32405113D02*
X122786328Y-32404884D01*
X122790032Y-32404142D01*
X122814042Y-32428152D01*
X122812887Y-32433998D01*
X122813116Y-32608328D01*
X122813858Y-32612032D01*
X122789848Y-32636042D01*
X122784002Y-32634887D01*
X122609672Y-32635116D01*
X122605968Y-32635858D01*
X122507081Y-32536971D01*
X122524052Y-32520000D01*
X122507081Y-32503029D01*
X122606152Y-32403958D01*
X122611998Y-32405113D01*
G36*
X123611998Y-32405113D02*
G01*
X123786328Y-32404884D01*
X123790032Y-32404142D01*
X123814042Y-32428152D01*
X123812887Y-32433998D01*
X123813116Y-32608328D01*
X123813858Y-32612032D01*
X123789848Y-32636042D01*
X123784002Y-32634887D01*
X123609672Y-32635116D01*
X123605968Y-32635858D01*
X123581958Y-32611848D01*
X123583113Y-32606002D01*
X123582884Y-32431672D01*
X123582142Y-32427968D01*
X123606152Y-32403958D01*
X123611998Y-32405113D01*
G37*
X123611998Y-32405113D02*
X123786328Y-32404884D01*
X123790032Y-32404142D01*
X123814042Y-32428152D01*
X123812887Y-32433998D01*
X123813116Y-32608328D01*
X123813858Y-32612032D01*
X123789848Y-32636042D01*
X123784002Y-32634887D01*
X123609672Y-32635116D01*
X123605968Y-32635858D01*
X123581958Y-32611848D01*
X123583113Y-32606002D01*
X123582884Y-32431672D01*
X123582142Y-32427968D01*
X123606152Y-32403958D01*
X123611998Y-32405113D01*
G36*
X123814042Y-31428152D02*
G01*
X123812887Y-31433998D01*
X123813116Y-31608328D01*
X123813858Y-31612032D01*
X123789848Y-31636042D01*
X123784002Y-31634887D01*
X123609672Y-31635116D01*
X123605968Y-31635858D01*
X123581958Y-31611848D01*
X123583113Y-31606002D01*
X123582884Y-31431672D01*
X123582142Y-31427968D01*
X123681029Y-31329081D01*
X123698000Y-31346052D01*
X123714971Y-31329081D01*
X123814042Y-31428152D01*
G37*
X123814042Y-31428152D02*
X123812887Y-31433998D01*
X123813116Y-31608328D01*
X123813858Y-31612032D01*
X123789848Y-31636042D01*
X123784002Y-31634887D01*
X123609672Y-31635116D01*
X123605968Y-31635858D01*
X123581958Y-31611848D01*
X123583113Y-31606002D01*
X123582884Y-31431672D01*
X123582142Y-31427968D01*
X123681029Y-31329081D01*
X123698000Y-31346052D01*
X123714971Y-31329081D01*
X123814042Y-31428152D01*
G36*
X119761000Y-28127289D02*
G01*
X119719063Y-28169226D01*
X119605795Y-28338744D01*
X119527774Y-28527102D01*
X119488000Y-28727061D01*
X119488000Y-28930939D01*
X119527774Y-29130898D01*
X119605795Y-29319256D01*
X119719063Y-29488774D01*
X119761000Y-29530711D01*
X119761000Y-30482886D01*
X117327001Y-30538840D01*
X117327001Y-29419159D01*
X117457256Y-29365205D01*
X117626774Y-29251937D01*
X117770937Y-29107774D01*
X117884205Y-28938256D01*
X117962226Y-28749898D01*
X118002000Y-28549939D01*
X118002000Y-28346061D01*
X117962226Y-28146102D01*
X117884205Y-27957744D01*
X117770937Y-27788226D01*
X117626774Y-27644063D01*
X117457256Y-27530795D01*
X117268898Y-27452774D01*
X117068939Y-27413000D01*
X116865061Y-27413000D01*
X116665102Y-27452774D01*
X116476744Y-27530795D01*
X116307226Y-27644063D01*
X116163063Y-27788226D01*
X116049795Y-27957744D01*
X115971774Y-28146102D01*
X115932000Y-28346061D01*
X115932000Y-28423774D01*
X115864563Y-28549939D01*
X115861455Y-28555753D01*
X115817998Y-28699014D01*
X115807001Y-28810667D01*
X115807001Y-28810677D01*
X115803325Y-28847999D01*
X115807001Y-28885322D01*
X115807002Y-30573782D01*
X108969561Y-30730965D01*
X109216614Y-21590000D01*
X119761000Y-21590000D01*
X119761000Y-28127289D01*
G37*
X119761000Y-28127289D02*
X119719063Y-28169226D01*
X119605795Y-28338744D01*
X119527774Y-28527102D01*
X119488000Y-28727061D01*
X119488000Y-28930939D01*
X119527774Y-29130898D01*
X119605795Y-29319256D01*
X119719063Y-29488774D01*
X119761000Y-29530711D01*
X119761000Y-30482886D01*
X117327001Y-30538840D01*
X117327001Y-29419159D01*
X117457256Y-29365205D01*
X117626774Y-29251937D01*
X117770937Y-29107774D01*
X117884205Y-28938256D01*
X117962226Y-28749898D01*
X118002000Y-28549939D01*
X118002000Y-28346061D01*
X117962226Y-28146102D01*
X117884205Y-27957744D01*
X117770937Y-27788226D01*
X117626774Y-27644063D01*
X117457256Y-27530795D01*
X117268898Y-27452774D01*
X117068939Y-27413000D01*
X116865061Y-27413000D01*
X116665102Y-27452774D01*
X116476744Y-27530795D01*
X116307226Y-27644063D01*
X116163063Y-27788226D01*
X116049795Y-27957744D01*
X115971774Y-28146102D01*
X115932000Y-28346061D01*
X115932000Y-28423774D01*
X115864563Y-28549939D01*
X115861455Y-28555753D01*
X115817998Y-28699014D01*
X115807001Y-28810667D01*
X115807001Y-28810677D01*
X115803325Y-28847999D01*
X115807001Y-28885322D01*
X115807002Y-30573782D01*
X108969561Y-30730965D01*
X109216614Y-21590000D01*
X119761000Y-21590000D01*
X119761000Y-28127289D01*
G36*
X121668000Y-22822677D02*
G01*
X121664324Y-22860000D01*
X121668000Y-22897322D01*
X121668000Y-22897332D01*
X121678997Y-23008985D01*
X121717521Y-23135985D01*
X121722454Y-23152246D01*
X121793026Y-23284276D01*
X121832871Y-23332826D01*
X121887999Y-23400001D01*
X121917002Y-23423803D01*
X122028000Y-23534801D01*
X122028000Y-23596939D01*
X122067774Y-23796898D01*
X122145795Y-23985256D01*
X122259063Y-24154774D01*
X122403226Y-24298937D01*
X122572744Y-24412205D01*
X122761102Y-24490226D01*
X122961061Y-24530000D01*
X123164939Y-24530000D01*
X123364898Y-24490226D01*
X123553256Y-24412205D01*
X123722774Y-24298937D01*
X123761500Y-24260211D01*
X123800226Y-24298937D01*
X123969744Y-24412205D01*
X124158102Y-24490226D01*
X124358061Y-24530000D01*
X124561939Y-24530000D01*
X124761898Y-24490226D01*
X124950256Y-24412205D01*
X125119774Y-24298937D01*
X125263937Y-24154774D01*
X125377205Y-23985256D01*
X125455226Y-23796898D01*
X125495000Y-23596939D01*
X125495000Y-23537671D01*
X125508001Y-23527001D01*
X125602974Y-23411276D01*
X125673546Y-23279247D01*
X125717003Y-23135986D01*
X125728000Y-23024333D01*
X125728000Y-23024324D01*
X125731676Y-22987001D01*
X125728000Y-22949678D01*
X125728000Y-21717000D01*
X126494001Y-21717000D01*
X126494000Y-28379289D01*
X126450063Y-28423226D01*
X126336795Y-28592744D01*
X126258774Y-28781102D01*
X126219000Y-28981061D01*
X126219000Y-29184939D01*
X126258774Y-29384898D01*
X126336795Y-29573256D01*
X126450063Y-29742774D01*
X126594226Y-29886937D01*
X126763744Y-30000205D01*
X126952102Y-30078226D01*
X127152061Y-30118000D01*
X127355939Y-30118000D01*
X127555898Y-30078226D01*
X127744256Y-30000205D01*
X127913774Y-29886937D01*
X128016000Y-29784711D01*
X128016000Y-30603265D01*
X119561311Y-30358202D01*
X119841450Y-29611161D01*
X119863226Y-29632937D01*
X120032744Y-29746205D01*
X120221102Y-29824226D01*
X120421061Y-29864000D01*
X120624939Y-29864000D01*
X120824898Y-29824226D01*
X121013256Y-29746205D01*
X121182774Y-29632937D01*
X121326937Y-29488774D01*
X121440205Y-29319256D01*
X121518226Y-29130898D01*
X121558000Y-28930939D01*
X121558000Y-28727061D01*
X121518226Y-28527102D01*
X121440205Y-28338744D01*
X121326937Y-28169226D01*
X121285000Y-28127289D01*
X121285000Y-21717000D01*
X121668001Y-21717000D01*
X121668000Y-22822677D01*
G37*
X121668000Y-22822677D02*
X121664324Y-22860000D01*
X121668000Y-22897322D01*
X121668000Y-22897332D01*
X121678997Y-23008985D01*
X121717521Y-23135985D01*
X121722454Y-23152246D01*
X121793026Y-23284276D01*
X121832871Y-23332826D01*
X121887999Y-23400001D01*
X121917002Y-23423803D01*
X122028000Y-23534801D01*
X122028000Y-23596939D01*
X122067774Y-23796898D01*
X122145795Y-23985256D01*
X122259063Y-24154774D01*
X122403226Y-24298937D01*
X122572744Y-24412205D01*
X122761102Y-24490226D01*
X122961061Y-24530000D01*
X123164939Y-24530000D01*
X123364898Y-24490226D01*
X123553256Y-24412205D01*
X123722774Y-24298937D01*
X123761500Y-24260211D01*
X123800226Y-24298937D01*
X123969744Y-24412205D01*
X124158102Y-24490226D01*
X124358061Y-24530000D01*
X124561939Y-24530000D01*
X124761898Y-24490226D01*
X124950256Y-24412205D01*
X125119774Y-24298937D01*
X125263937Y-24154774D01*
X125377205Y-23985256D01*
X125455226Y-23796898D01*
X125495000Y-23596939D01*
X125495000Y-23537671D01*
X125508001Y-23527001D01*
X125602974Y-23411276D01*
X125673546Y-23279247D01*
X125717003Y-23135986D01*
X125728000Y-23024333D01*
X125728000Y-23024324D01*
X125731676Y-22987001D01*
X125728000Y-22949678D01*
X125728000Y-21717000D01*
X126494001Y-21717000D01*
X126494000Y-28379289D01*
X126450063Y-28423226D01*
X126336795Y-28592744D01*
X126258774Y-28781102D01*
X126219000Y-28981061D01*
X126219000Y-29184939D01*
X126258774Y-29384898D01*
X126336795Y-29573256D01*
X126450063Y-29742774D01*
X126594226Y-29886937D01*
X126763744Y-30000205D01*
X126952102Y-30078226D01*
X127152061Y-30118000D01*
X127355939Y-30118000D01*
X127555898Y-30078226D01*
X127744256Y-30000205D01*
X127913774Y-29886937D01*
X128016000Y-29784711D01*
X128016000Y-30603265D01*
X119561311Y-30358202D01*
X119841450Y-29611161D01*
X119863226Y-29632937D01*
X120032744Y-29746205D01*
X120221102Y-29824226D01*
X120421061Y-29864000D01*
X120624939Y-29864000D01*
X120824898Y-29824226D01*
X121013256Y-29746205D01*
X121182774Y-29632937D01*
X121326937Y-29488774D01*
X121440205Y-29319256D01*
X121518226Y-29130898D01*
X121558000Y-28930939D01*
X121558000Y-28727061D01*
X121518226Y-28527102D01*
X121440205Y-28338744D01*
X121326937Y-28169226D01*
X121285000Y-28127289D01*
X121285000Y-21717000D01*
X121668001Y-21717000D01*
X121668000Y-22822677D01*
G36*
X33146900Y-34047867D02*
G01*
X33021020Y-49657000D01*
X24003000Y-49657000D01*
X23978224Y-49659440D01*
X23954399Y-49666667D01*
X23932443Y-49678403D01*
X23913197Y-49694197D01*
X23897403Y-49713443D01*
X23885667Y-49735399D01*
X23878440Y-49759224D01*
X23876000Y-49784000D01*
X23876000Y-67310000D01*
X23878440Y-67334776D01*
X23885667Y-67358601D01*
X23897403Y-67380557D01*
X23913197Y-67399803D01*
X23932443Y-67415597D01*
X23954399Y-67427333D01*
X23978224Y-67434560D01*
X24003000Y-67437000D01*
X27051000Y-67437000D01*
X27051000Y-76327000D01*
X21209000Y-76327000D01*
X21209000Y-44196000D01*
X26416000Y-44196000D01*
X26440776Y-44193560D01*
X26458268Y-44188760D01*
X28617268Y-43426760D01*
X28639820Y-43416213D01*
X28659881Y-43401468D01*
X28676680Y-43383094D01*
X28684909Y-43370632D01*
X30081909Y-40957632D01*
X30092211Y-40934967D01*
X30097894Y-40910728D01*
X30099000Y-40894000D01*
X30099000Y-38862000D01*
X30096560Y-38837224D01*
X30089333Y-38813399D01*
X30077597Y-38791443D01*
X30068766Y-38779749D01*
X27909766Y-36239749D01*
X27891861Y-36222451D01*
X27870924Y-36208979D01*
X27847762Y-36199850D01*
X27813000Y-36195000D01*
X21209000Y-36195000D01*
X21209000Y-33426061D01*
X26905000Y-33426061D01*
X26905000Y-33629939D01*
X26944774Y-33829898D01*
X27022795Y-34018256D01*
X27136063Y-34187774D01*
X27280226Y-34331937D01*
X27449744Y-34445205D01*
X27638102Y-34523226D01*
X27838061Y-34563000D01*
X28041939Y-34563000D01*
X28241898Y-34523226D01*
X28430256Y-34445205D01*
X28599774Y-34331937D01*
X28743937Y-34187774D01*
X28857205Y-34018256D01*
X28935226Y-33829898D01*
X28975000Y-33629939D01*
X28975000Y-33426061D01*
X28935226Y-33226102D01*
X28857205Y-33037744D01*
X28743937Y-32868226D01*
X28675000Y-32799289D01*
X28675000Y-32562446D01*
X29450190Y-31787257D01*
X29478238Y-31764238D01*
X29501257Y-31736190D01*
X30720193Y-30517254D01*
X30748238Y-30494238D01*
X30840087Y-30382320D01*
X30908337Y-30254633D01*
X30950365Y-30116085D01*
X30961000Y-30008105D01*
X30961000Y-30008096D01*
X30964555Y-29972001D01*
X30961000Y-29935906D01*
X30961000Y-29176711D01*
X31029937Y-29107774D01*
X31143205Y-28938256D01*
X31221226Y-28749898D01*
X31261000Y-28549939D01*
X31261000Y-28346061D01*
X31221226Y-28146102D01*
X31143205Y-27957744D01*
X31029937Y-27788226D01*
X30885774Y-27644063D01*
X30716256Y-27530795D01*
X30527898Y-27452774D01*
X30327939Y-27413000D01*
X30124061Y-27413000D01*
X29924102Y-27452774D01*
X29735744Y-27530795D01*
X29566226Y-27644063D01*
X29422063Y-27788226D01*
X29308795Y-27957744D01*
X29230774Y-28146102D01*
X29191000Y-28346061D01*
X29191000Y-28549939D01*
X29230774Y-28749898D01*
X29308795Y-28938256D01*
X29422063Y-29107774D01*
X29491000Y-29176711D01*
X29491001Y-29667552D01*
X28461810Y-30696743D01*
X28433762Y-30719762D01*
X28410743Y-30747810D01*
X27445808Y-31712746D01*
X27417762Y-31735763D01*
X27325913Y-31847681D01*
X27257663Y-31975368D01*
X27228384Y-32071887D01*
X27215635Y-32113915D01*
X27201444Y-32258000D01*
X27205000Y-32294106D01*
X27205000Y-32799289D01*
X27136063Y-32868226D01*
X27022795Y-33037744D01*
X26944774Y-33226102D01*
X26905000Y-33426061D01*
X21209000Y-33426061D01*
X21209000Y-27178000D01*
X27813000Y-27178000D01*
X27837133Y-27175686D01*
X31649827Y-26437745D01*
X33146900Y-34047867D01*
G37*
X33146900Y-34047867D02*
X33021020Y-49657000D01*
X24003000Y-49657000D01*
X23978224Y-49659440D01*
X23954399Y-49666667D01*
X23932443Y-49678403D01*
X23913197Y-49694197D01*
X23897403Y-49713443D01*
X23885667Y-49735399D01*
X23878440Y-49759224D01*
X23876000Y-49784000D01*
X23876000Y-67310000D01*
X23878440Y-67334776D01*
X23885667Y-67358601D01*
X23897403Y-67380557D01*
X23913197Y-67399803D01*
X23932443Y-67415597D01*
X23954399Y-67427333D01*
X23978224Y-67434560D01*
X24003000Y-67437000D01*
X27051000Y-67437000D01*
X27051000Y-76327000D01*
X21209000Y-76327000D01*
X21209000Y-44196000D01*
X26416000Y-44196000D01*
X26440776Y-44193560D01*
X26458268Y-44188760D01*
X28617268Y-43426760D01*
X28639820Y-43416213D01*
X28659881Y-43401468D01*
X28676680Y-43383094D01*
X28684909Y-43370632D01*
X30081909Y-40957632D01*
X30092211Y-40934967D01*
X30097894Y-40910728D01*
X30099000Y-40894000D01*
X30099000Y-38862000D01*
X30096560Y-38837224D01*
X30089333Y-38813399D01*
X30077597Y-38791443D01*
X30068766Y-38779749D01*
X27909766Y-36239749D01*
X27891861Y-36222451D01*
X27870924Y-36208979D01*
X27847762Y-36199850D01*
X27813000Y-36195000D01*
X21209000Y-36195000D01*
X21209000Y-33426061D01*
X26905000Y-33426061D01*
X26905000Y-33629939D01*
X26944774Y-33829898D01*
X27022795Y-34018256D01*
X27136063Y-34187774D01*
X27280226Y-34331937D01*
X27449744Y-34445205D01*
X27638102Y-34523226D01*
X27838061Y-34563000D01*
X28041939Y-34563000D01*
X28241898Y-34523226D01*
X28430256Y-34445205D01*
X28599774Y-34331937D01*
X28743937Y-34187774D01*
X28857205Y-34018256D01*
X28935226Y-33829898D01*
X28975000Y-33629939D01*
X28975000Y-33426061D01*
X28935226Y-33226102D01*
X28857205Y-33037744D01*
X28743937Y-32868226D01*
X28675000Y-32799289D01*
X28675000Y-32562446D01*
X29450190Y-31787257D01*
X29478238Y-31764238D01*
X29501257Y-31736190D01*
X30720193Y-30517254D01*
X30748238Y-30494238D01*
X30840087Y-30382320D01*
X30908337Y-30254633D01*
X30950365Y-30116085D01*
X30961000Y-30008105D01*
X30961000Y-30008096D01*
X30964555Y-29972001D01*
X30961000Y-29935906D01*
X30961000Y-29176711D01*
X31029937Y-29107774D01*
X31143205Y-28938256D01*
X31221226Y-28749898D01*
X31261000Y-28549939D01*
X31261000Y-28346061D01*
X31221226Y-28146102D01*
X31143205Y-27957744D01*
X31029937Y-27788226D01*
X30885774Y-27644063D01*
X30716256Y-27530795D01*
X30527898Y-27452774D01*
X30327939Y-27413000D01*
X30124061Y-27413000D01*
X29924102Y-27452774D01*
X29735744Y-27530795D01*
X29566226Y-27644063D01*
X29422063Y-27788226D01*
X29308795Y-27957744D01*
X29230774Y-28146102D01*
X29191000Y-28346061D01*
X29191000Y-28549939D01*
X29230774Y-28749898D01*
X29308795Y-28938256D01*
X29422063Y-29107774D01*
X29491000Y-29176711D01*
X29491001Y-29667552D01*
X28461810Y-30696743D01*
X28433762Y-30719762D01*
X28410743Y-30747810D01*
X27445808Y-31712746D01*
X27417762Y-31735763D01*
X27325913Y-31847681D01*
X27257663Y-31975368D01*
X27228384Y-32071887D01*
X27215635Y-32113915D01*
X27201444Y-32258000D01*
X27205000Y-32294106D01*
X27205000Y-32799289D01*
X27136063Y-32868226D01*
X27022795Y-33037744D01*
X26944774Y-33226102D01*
X26905000Y-33426061D01*
X21209000Y-33426061D01*
X21209000Y-27178000D01*
X27813000Y-27178000D01*
X27837133Y-27175686D01*
X31649827Y-26437745D01*
X33146900Y-34047867D01*
G36*
X27051000Y-86106000D02*
G01*
X27053440Y-86130776D01*
X27060667Y-86154601D01*
X27072403Y-86176557D01*
X27088197Y-86195803D01*
X27107443Y-86211597D01*
X27129399Y-86223333D01*
X27153224Y-86230560D01*
X27178000Y-86233000D01*
X30861000Y-86233000D01*
X30861000Y-104775000D01*
X21336000Y-104775000D01*
X21336000Y-102269000D01*
X24358928Y-102269000D01*
X24371188Y-102393482D01*
X24407498Y-102513180D01*
X24466463Y-102623494D01*
X24545815Y-102720185D01*
X24642506Y-102799537D01*
X24752820Y-102858502D01*
X24872518Y-102894812D01*
X24997000Y-102907072D01*
X26511250Y-102904000D01*
X26670000Y-102745250D01*
X26670000Y-101346000D01*
X26924000Y-101346000D01*
X26924000Y-102745250D01*
X27082750Y-102904000D01*
X28597000Y-102907072D01*
X28721482Y-102894812D01*
X28841180Y-102858502D01*
X28951494Y-102799537D01*
X29048185Y-102720185D01*
X29127537Y-102623494D01*
X29186502Y-102513180D01*
X29222812Y-102393482D01*
X29235072Y-102269000D01*
X29232000Y-101504750D01*
X29073250Y-101346000D01*
X26924000Y-101346000D01*
X26670000Y-101346000D01*
X24520750Y-101346000D01*
X24362000Y-101504750D01*
X24358928Y-102269000D01*
X21336000Y-102269000D01*
X21336000Y-100169000D01*
X24358928Y-100169000D01*
X24362000Y-100933250D01*
X24520750Y-101092000D01*
X26670000Y-101092000D01*
X26670000Y-99692750D01*
X26924000Y-99692750D01*
X26924000Y-101092000D01*
X29073250Y-101092000D01*
X29232000Y-100933250D01*
X29235072Y-100169000D01*
X29222812Y-100044518D01*
X29186502Y-99924820D01*
X29127537Y-99814506D01*
X29048185Y-99717815D01*
X28951494Y-99638463D01*
X28841180Y-99579498D01*
X28721482Y-99543188D01*
X28597000Y-99530928D01*
X27082750Y-99534000D01*
X26924000Y-99692750D01*
X26670000Y-99692750D01*
X26511250Y-99534000D01*
X24997000Y-99530928D01*
X24872518Y-99543188D01*
X24752820Y-99579498D01*
X24642506Y-99638463D01*
X24545815Y-99717815D01*
X24466463Y-99814506D01*
X24407498Y-99924820D01*
X24371188Y-100044518D01*
X24358928Y-100169000D01*
X21336000Y-100169000D01*
X21336000Y-93599000D01*
X24353848Y-93599000D01*
X24386381Y-93929318D01*
X24482732Y-94246941D01*
X24639196Y-94539665D01*
X24849761Y-94796239D01*
X25106335Y-95006804D01*
X25399059Y-95163268D01*
X25716682Y-95259619D01*
X25964230Y-95284000D01*
X27629770Y-95284000D01*
X27877318Y-95259619D01*
X28194941Y-95163268D01*
X28487665Y-95006804D01*
X28744239Y-94796239D01*
X28954804Y-94539665D01*
X29111268Y-94246941D01*
X29207619Y-93929318D01*
X29240152Y-93599000D01*
X29207619Y-93268682D01*
X29111268Y-92951059D01*
X28954804Y-92658335D01*
X28744239Y-92401761D01*
X28487665Y-92191196D01*
X28194941Y-92034732D01*
X27877318Y-91938381D01*
X27629770Y-91914000D01*
X25964230Y-91914000D01*
X25716682Y-91938381D01*
X25399059Y-92034732D01*
X25106335Y-92191196D01*
X24849761Y-92401761D01*
X24639196Y-92658335D01*
X24482732Y-92951059D01*
X24386381Y-93268682D01*
X24353848Y-93599000D01*
X21336000Y-93599000D01*
X21336000Y-76200000D01*
X27051000Y-76200000D01*
X27051000Y-86106000D01*
G37*
X27051000Y-86106000D02*
X27053440Y-86130776D01*
X27060667Y-86154601D01*
X27072403Y-86176557D01*
X27088197Y-86195803D01*
X27107443Y-86211597D01*
X27129399Y-86223333D01*
X27153224Y-86230560D01*
X27178000Y-86233000D01*
X30861000Y-86233000D01*
X30861000Y-104775000D01*
X21336000Y-104775000D01*
X21336000Y-102269000D01*
X24358928Y-102269000D01*
X24371188Y-102393482D01*
X24407498Y-102513180D01*
X24466463Y-102623494D01*
X24545815Y-102720185D01*
X24642506Y-102799537D01*
X24752820Y-102858502D01*
X24872518Y-102894812D01*
X24997000Y-102907072D01*
X26511250Y-102904000D01*
X26670000Y-102745250D01*
X26670000Y-101346000D01*
X26924000Y-101346000D01*
X26924000Y-102745250D01*
X27082750Y-102904000D01*
X28597000Y-102907072D01*
X28721482Y-102894812D01*
X28841180Y-102858502D01*
X28951494Y-102799537D01*
X29048185Y-102720185D01*
X29127537Y-102623494D01*
X29186502Y-102513180D01*
X29222812Y-102393482D01*
X29235072Y-102269000D01*
X29232000Y-101504750D01*
X29073250Y-101346000D01*
X26924000Y-101346000D01*
X26670000Y-101346000D01*
X24520750Y-101346000D01*
X24362000Y-101504750D01*
X24358928Y-102269000D01*
X21336000Y-102269000D01*
X21336000Y-100169000D01*
X24358928Y-100169000D01*
X24362000Y-100933250D01*
X24520750Y-101092000D01*
X26670000Y-101092000D01*
X26670000Y-99692750D01*
X26924000Y-99692750D01*
X26924000Y-101092000D01*
X29073250Y-101092000D01*
X29232000Y-100933250D01*
X29235072Y-100169000D01*
X29222812Y-100044518D01*
X29186502Y-99924820D01*
X29127537Y-99814506D01*
X29048185Y-99717815D01*
X28951494Y-99638463D01*
X28841180Y-99579498D01*
X28721482Y-99543188D01*
X28597000Y-99530928D01*
X27082750Y-99534000D01*
X26924000Y-99692750D01*
X26670000Y-99692750D01*
X26511250Y-99534000D01*
X24997000Y-99530928D01*
X24872518Y-99543188D01*
X24752820Y-99579498D01*
X24642506Y-99638463D01*
X24545815Y-99717815D01*
X24466463Y-99814506D01*
X24407498Y-99924820D01*
X24371188Y-100044518D01*
X24358928Y-100169000D01*
X21336000Y-100169000D01*
X21336000Y-93599000D01*
X24353848Y-93599000D01*
X24386381Y-93929318D01*
X24482732Y-94246941D01*
X24639196Y-94539665D01*
X24849761Y-94796239D01*
X25106335Y-95006804D01*
X25399059Y-95163268D01*
X25716682Y-95259619D01*
X25964230Y-95284000D01*
X27629770Y-95284000D01*
X27877318Y-95259619D01*
X28194941Y-95163268D01*
X28487665Y-95006804D01*
X28744239Y-94796239D01*
X28954804Y-94539665D01*
X29111268Y-94246941D01*
X29207619Y-93929318D01*
X29240152Y-93599000D01*
X29207619Y-93268682D01*
X29111268Y-92951059D01*
X28954804Y-92658335D01*
X28744239Y-92401761D01*
X28487665Y-92191196D01*
X28194941Y-92034732D01*
X27877318Y-91938381D01*
X27629770Y-91914000D01*
X25964230Y-91914000D01*
X25716682Y-91938381D01*
X25399059Y-92034732D01*
X25106335Y-92191196D01*
X24849761Y-92401761D01*
X24639196Y-92658335D01*
X24482732Y-92951059D01*
X24386381Y-93268682D01*
X24353848Y-93599000D01*
X21336000Y-93599000D01*
X21336000Y-76200000D01*
X27051000Y-76200000D01*
X27051000Y-86106000D01*
G36*
X38056518Y-99060750D02*
G01*
X37986000Y-99415268D01*
X37986000Y-99776732D01*
X38056518Y-100131250D01*
X38194844Y-100465199D01*
X38395662Y-100765744D01*
X38651256Y-101021338D01*
X38951801Y-101222156D01*
X39285750Y-101360482D01*
X39640268Y-101431000D01*
X40001732Y-101431000D01*
X40356250Y-101360482D01*
X40690199Y-101222156D01*
X40990744Y-101021338D01*
X41246338Y-100765744D01*
X41447156Y-100465199D01*
X41585482Y-100131250D01*
X41656000Y-99776732D01*
X41656000Y-99415268D01*
X41585482Y-99060750D01*
X41479961Y-98806000D01*
X88519000Y-98806000D01*
X88519000Y-113157000D01*
X30099000Y-113157000D01*
X30099000Y-107416000D01*
X52032928Y-107416000D01*
X52032928Y-110516000D01*
X52049992Y-110689254D01*
X52100528Y-110855850D01*
X52182595Y-111009386D01*
X52293038Y-111143962D01*
X52427614Y-111254405D01*
X52581150Y-111336472D01*
X52747746Y-111387008D01*
X52921000Y-111404072D01*
X54521000Y-111404072D01*
X54694254Y-111387008D01*
X54860850Y-111336472D01*
X55014386Y-111254405D01*
X55148962Y-111143962D01*
X55259405Y-111009386D01*
X55341472Y-110855850D01*
X55392008Y-110689254D01*
X55409072Y-110516000D01*
X55409072Y-108133231D01*
X59656000Y-108133231D01*
X59656000Y-109798770D01*
X59680381Y-110046318D01*
X59776733Y-110363941D01*
X59933197Y-110656665D01*
X60143762Y-110913239D01*
X60400336Y-111123804D01*
X60693060Y-111280268D01*
X61010683Y-111376619D01*
X61341000Y-111409152D01*
X61671318Y-111376619D01*
X61988941Y-111280268D01*
X62281665Y-111123804D01*
X62538239Y-110913239D01*
X62748804Y-110656665D01*
X62905268Y-110363941D01*
X63001619Y-110046318D01*
X63026000Y-109798770D01*
X63026000Y-108133230D01*
X63001619Y-107885682D01*
X62905268Y-107568059D01*
X62748804Y-107275335D01*
X62538239Y-107018761D01*
X62281664Y-106808196D01*
X61988940Y-106651732D01*
X61671317Y-106555381D01*
X61341000Y-106522848D01*
X61010682Y-106555381D01*
X60693059Y-106651732D01*
X60400335Y-106808196D01*
X60143761Y-107018761D01*
X59933196Y-107275336D01*
X59776732Y-107568060D01*
X59680381Y-107885683D01*
X59656000Y-108133231D01*
X55409072Y-108133231D01*
X55409072Y-107416000D01*
X55392008Y-107242746D01*
X55341472Y-107076150D01*
X55259405Y-106922614D01*
X55148962Y-106788038D01*
X55014386Y-106677595D01*
X54860850Y-106595528D01*
X54694254Y-106544992D01*
X54521000Y-106527928D01*
X52921000Y-106527928D01*
X52747746Y-106544992D01*
X52581150Y-106595528D01*
X52427614Y-106677595D01*
X52293038Y-106788038D01*
X52182595Y-106922614D01*
X52100528Y-107076150D01*
X52049992Y-107242746D01*
X52032928Y-107416000D01*
X30099000Y-107416000D01*
X30099000Y-103964490D01*
X30105784Y-103961098D01*
X38636000Y-103961098D01*
X38636000Y-104430902D01*
X38727654Y-104891679D01*
X38907440Y-105325721D01*
X39168450Y-105716349D01*
X39500651Y-106048550D01*
X39891279Y-106309560D01*
X40325321Y-106489346D01*
X40786098Y-106581000D01*
X41255902Y-106581000D01*
X41716679Y-106489346D01*
X42150721Y-106309560D01*
X42541349Y-106048550D01*
X42873550Y-105716349D01*
X43134560Y-105325721D01*
X43314346Y-104891679D01*
X43406000Y-104430902D01*
X43406000Y-103961098D01*
X43314346Y-103500321D01*
X43134560Y-103066279D01*
X42873550Y-102675651D01*
X42541349Y-102343450D01*
X42150721Y-102082440D01*
X41716679Y-101902654D01*
X41255902Y-101811000D01*
X40786098Y-101811000D01*
X40325321Y-101902654D01*
X39891279Y-102082440D01*
X39500651Y-102343450D01*
X39168450Y-102675651D01*
X38907440Y-103066279D01*
X38727654Y-103500321D01*
X38636000Y-103961098D01*
X30105784Y-103961098D01*
X30790796Y-103618592D01*
X30811866Y-103605329D01*
X30829943Y-103588211D01*
X30844333Y-103567894D01*
X30854483Y-103545161D01*
X30860003Y-103520884D01*
X30859446Y-103485193D01*
X30120626Y-98806000D01*
X38162039Y-98806000D01*
X38056518Y-99060750D01*
G37*
X38056518Y-99060750D02*
X37986000Y-99415268D01*
X37986000Y-99776732D01*
X38056518Y-100131250D01*
X38194844Y-100465199D01*
X38395662Y-100765744D01*
X38651256Y-101021338D01*
X38951801Y-101222156D01*
X39285750Y-101360482D01*
X39640268Y-101431000D01*
X40001732Y-101431000D01*
X40356250Y-101360482D01*
X40690199Y-101222156D01*
X40990744Y-101021338D01*
X41246338Y-100765744D01*
X41447156Y-100465199D01*
X41585482Y-100131250D01*
X41656000Y-99776732D01*
X41656000Y-99415268D01*
X41585482Y-99060750D01*
X41479961Y-98806000D01*
X88519000Y-98806000D01*
X88519000Y-113157000D01*
X30099000Y-113157000D01*
X30099000Y-107416000D01*
X52032928Y-107416000D01*
X52032928Y-110516000D01*
X52049992Y-110689254D01*
X52100528Y-110855850D01*
X52182595Y-111009386D01*
X52293038Y-111143962D01*
X52427614Y-111254405D01*
X52581150Y-111336472D01*
X52747746Y-111387008D01*
X52921000Y-111404072D01*
X54521000Y-111404072D01*
X54694254Y-111387008D01*
X54860850Y-111336472D01*
X55014386Y-111254405D01*
X55148962Y-111143962D01*
X55259405Y-111009386D01*
X55341472Y-110855850D01*
X55392008Y-110689254D01*
X55409072Y-110516000D01*
X55409072Y-108133231D01*
X59656000Y-108133231D01*
X59656000Y-109798770D01*
X59680381Y-110046318D01*
X59776733Y-110363941D01*
X59933197Y-110656665D01*
X60143762Y-110913239D01*
X60400336Y-111123804D01*
X60693060Y-111280268D01*
X61010683Y-111376619D01*
X61341000Y-111409152D01*
X61671318Y-111376619D01*
X61988941Y-111280268D01*
X62281665Y-111123804D01*
X62538239Y-110913239D01*
X62748804Y-110656665D01*
X62905268Y-110363941D01*
X63001619Y-110046318D01*
X63026000Y-109798770D01*
X63026000Y-108133230D01*
X63001619Y-107885682D01*
X62905268Y-107568059D01*
X62748804Y-107275335D01*
X62538239Y-107018761D01*
X62281664Y-106808196D01*
X61988940Y-106651732D01*
X61671317Y-106555381D01*
X61341000Y-106522848D01*
X61010682Y-106555381D01*
X60693059Y-106651732D01*
X60400335Y-106808196D01*
X60143761Y-107018761D01*
X59933196Y-107275336D01*
X59776732Y-107568060D01*
X59680381Y-107885683D01*
X59656000Y-108133231D01*
X55409072Y-108133231D01*
X55409072Y-107416000D01*
X55392008Y-107242746D01*
X55341472Y-107076150D01*
X55259405Y-106922614D01*
X55148962Y-106788038D01*
X55014386Y-106677595D01*
X54860850Y-106595528D01*
X54694254Y-106544992D01*
X54521000Y-106527928D01*
X52921000Y-106527928D01*
X52747746Y-106544992D01*
X52581150Y-106595528D01*
X52427614Y-106677595D01*
X52293038Y-106788038D01*
X52182595Y-106922614D01*
X52100528Y-107076150D01*
X52049992Y-107242746D01*
X52032928Y-107416000D01*
X30099000Y-107416000D01*
X30099000Y-103964490D01*
X30105784Y-103961098D01*
X38636000Y-103961098D01*
X38636000Y-104430902D01*
X38727654Y-104891679D01*
X38907440Y-105325721D01*
X39168450Y-105716349D01*
X39500651Y-106048550D01*
X39891279Y-106309560D01*
X40325321Y-106489346D01*
X40786098Y-106581000D01*
X41255902Y-106581000D01*
X41716679Y-106489346D01*
X42150721Y-106309560D01*
X42541349Y-106048550D01*
X42873550Y-105716349D01*
X43134560Y-105325721D01*
X43314346Y-104891679D01*
X43406000Y-104430902D01*
X43406000Y-103961098D01*
X43314346Y-103500321D01*
X43134560Y-103066279D01*
X42873550Y-102675651D01*
X42541349Y-102343450D01*
X42150721Y-102082440D01*
X41716679Y-101902654D01*
X41255902Y-101811000D01*
X40786098Y-101811000D01*
X40325321Y-101902654D01*
X39891279Y-102082440D01*
X39500651Y-102343450D01*
X39168450Y-102675651D01*
X38907440Y-103066279D01*
X38727654Y-103500321D01*
X38636000Y-103961098D01*
X30105784Y-103961098D01*
X30790796Y-103618592D01*
X30811866Y-103605329D01*
X30829943Y-103588211D01*
X30844333Y-103567894D01*
X30854483Y-103545161D01*
X30860003Y-103520884D01*
X30859446Y-103485193D01*
X30120626Y-98806000D01*
X38162039Y-98806000D01*
X38056518Y-99060750D01*
G36*
X107315000Y-101219000D02*
G01*
X88637252Y-101219000D01*
X88464895Y-98806000D01*
X89217500Y-98806000D01*
X89242276Y-98803560D01*
X89266101Y-98796333D01*
X89288057Y-98784597D01*
X89307303Y-98768803D01*
X89323097Y-98749557D01*
X89334833Y-98727601D01*
X89342060Y-98703776D01*
X89344500Y-98679000D01*
X89344500Y-95833000D01*
X103089125Y-95833000D01*
X103124000Y-95836435D01*
X103158875Y-95833000D01*
X103158877Y-95833000D01*
X103263184Y-95822727D01*
X103397020Y-95782128D01*
X103442160Y-95758000D01*
X107315000Y-95758000D01*
X107315000Y-101219000D01*
G37*
X107315000Y-101219000D02*
X88637252Y-101219000D01*
X88464895Y-98806000D01*
X89217500Y-98806000D01*
X89242276Y-98803560D01*
X89266101Y-98796333D01*
X89288057Y-98784597D01*
X89307303Y-98768803D01*
X89323097Y-98749557D01*
X89334833Y-98727601D01*
X89342060Y-98703776D01*
X89344500Y-98679000D01*
X89344500Y-95833000D01*
X103089125Y-95833000D01*
X103124000Y-95836435D01*
X103158875Y-95833000D01*
X103158877Y-95833000D01*
X103263184Y-95822727D01*
X103397020Y-95782128D01*
X103442160Y-95758000D01*
X107315000Y-95758000D01*
X107315000Y-101219000D01*
G36*
X107315000Y-106743500D02*
G01*
X88392000Y-106743500D01*
X88367224Y-106745940D01*
X88343399Y-106753167D01*
X88321443Y-106764903D01*
X88302197Y-106780697D01*
X88286330Y-106800053D01*
X88252898Y-106850201D01*
X88078381Y-101091150D01*
X107315000Y-100965830D01*
X107315000Y-106743500D01*
G37*
X107315000Y-106743500D02*
X88392000Y-106743500D01*
X88367224Y-106745940D01*
X88343399Y-106753167D01*
X88321443Y-106764903D01*
X88302197Y-106780697D01*
X88286330Y-106800053D01*
X88252898Y-106850201D01*
X88078381Y-101091150D01*
X107315000Y-100965830D01*
X107315000Y-106743500D01*
G36*
X130492500Y-99758160D02*
G01*
X106955796Y-99695227D01*
X105464363Y-96056130D01*
X105868525Y-96011223D01*
X105892880Y-96006062D01*
X105915761Y-95996248D01*
X105936287Y-95982159D01*
X105953670Y-95964336D01*
X105967243Y-95943465D01*
X105976482Y-95920346D01*
X105981500Y-95885000D01*
X105981500Y-91809091D01*
X106287091Y-91503500D01*
X121793000Y-91503500D01*
X121817776Y-91501060D01*
X121841601Y-91493833D01*
X121863557Y-91482097D01*
X121882803Y-91466303D01*
X121898597Y-91447057D01*
X121910333Y-91425101D01*
X121917560Y-91401276D01*
X121920000Y-91376500D01*
X121920000Y-84836000D01*
X130492500Y-84836000D01*
X130492500Y-99758160D01*
G37*
X130492500Y-99758160D02*
X106955796Y-99695227D01*
X105464363Y-96056130D01*
X105868525Y-96011223D01*
X105892880Y-96006062D01*
X105915761Y-95996248D01*
X105936287Y-95982159D01*
X105953670Y-95964336D01*
X105967243Y-95943465D01*
X105976482Y-95920346D01*
X105981500Y-95885000D01*
X105981500Y-91809091D01*
X106287091Y-91503500D01*
X121793000Y-91503500D01*
X121817776Y-91501060D01*
X121841601Y-91493833D01*
X121863557Y-91482097D01*
X121882803Y-91466303D01*
X121898597Y-91447057D01*
X121910333Y-91425101D01*
X121917560Y-91401276D01*
X121920000Y-91376500D01*
X121920000Y-84836000D01*
X130492500Y-84836000D01*
X130492500Y-99758160D01*
G36*
X125539500Y-85335399D02*
G01*
X121920000Y-85098055D01*
X121920000Y-83375500D01*
X125539500Y-83375500D01*
X125539500Y-85335399D01*
G37*
X125539500Y-85335399D02*
X121920000Y-85098055D01*
X121920000Y-83375500D01*
X125539500Y-83375500D01*
X125539500Y-85335399D01*
G36*
X120332500Y-107416545D02*
G01*
X120298002Y-107302820D01*
X120239037Y-107192506D01*
X120159685Y-107095815D01*
X120062994Y-107016463D01*
X119952680Y-106957498D01*
X119832982Y-106921188D01*
X119708500Y-106908928D01*
X119094250Y-106912000D01*
X118935500Y-107070750D01*
X118935500Y-109220000D01*
X118955500Y-109220000D01*
X118955500Y-109474000D01*
X118935500Y-109474000D01*
X118935500Y-111623250D01*
X119094250Y-111782000D01*
X119708500Y-111785072D01*
X119832982Y-111772812D01*
X119952680Y-111736502D01*
X120062994Y-111677537D01*
X120159685Y-111598185D01*
X120239037Y-111501494D01*
X120298002Y-111391180D01*
X120332500Y-111277455D01*
X120332500Y-113284000D01*
X92392500Y-113284000D01*
X92392500Y-112120699D01*
X92471506Y-112185537D01*
X92581820Y-112244502D01*
X92701518Y-112280812D01*
X92826000Y-112293072D01*
X93440250Y-112290000D01*
X93599000Y-112131250D01*
X93599000Y-109982000D01*
X93853000Y-109982000D01*
X93853000Y-112131250D01*
X94011750Y-112290000D01*
X94626000Y-112293072D01*
X94750482Y-112280812D01*
X94870180Y-112244502D01*
X94980494Y-112185537D01*
X95077185Y-112106185D01*
X95156537Y-112009494D01*
X95215502Y-111899180D01*
X95251812Y-111779482D01*
X95264072Y-111655000D01*
X95261000Y-110140750D01*
X95102250Y-109982000D01*
X93853000Y-109982000D01*
X93599000Y-109982000D01*
X93579000Y-109982000D01*
X93579000Y-109728000D01*
X93599000Y-109728000D01*
X93599000Y-109708000D01*
X93853000Y-109708000D01*
X93853000Y-109728000D01*
X95102250Y-109728000D01*
X95261000Y-109569250D01*
X95264072Y-108055000D01*
X95251812Y-107930518D01*
X95219197Y-107823000D01*
X96583500Y-107823000D01*
X96583500Y-108648500D01*
X96585940Y-108673276D01*
X96593167Y-108697101D01*
X96604903Y-108719057D01*
X96620697Y-108738303D01*
X96639943Y-108754097D01*
X96661899Y-108765833D01*
X96685724Y-108773060D01*
X96710500Y-108775500D01*
X97281252Y-108775500D01*
X97271000Y-108879593D01*
X97271000Y-110830408D01*
X97293211Y-111055913D01*
X97380984Y-111345261D01*
X97523520Y-111611927D01*
X97715340Y-111845661D01*
X97949074Y-112037481D01*
X98215740Y-112180017D01*
X98505088Y-112267790D01*
X98806000Y-112297427D01*
X99106913Y-112267790D01*
X99396261Y-112180017D01*
X99662927Y-112037481D01*
X99896661Y-111845661D01*
X100088481Y-111611927D01*
X100231017Y-111345261D01*
X100291158Y-111147000D01*
X117270428Y-111147000D01*
X117282688Y-111271482D01*
X117318998Y-111391180D01*
X117377963Y-111501494D01*
X117457315Y-111598185D01*
X117554006Y-111677537D01*
X117664320Y-111736502D01*
X117784018Y-111772812D01*
X117908500Y-111785072D01*
X118522750Y-111782000D01*
X118681500Y-111623250D01*
X118681500Y-109474000D01*
X117432250Y-109474000D01*
X117273500Y-109632750D01*
X117270428Y-111147000D01*
X100291158Y-111147000D01*
X100318790Y-111055913D01*
X100341000Y-110830408D01*
X100341000Y-108879592D01*
X100330748Y-108775500D01*
X108458000Y-108775500D01*
X108482776Y-108773060D01*
X108506601Y-108765833D01*
X108528557Y-108754097D01*
X108547803Y-108738303D01*
X108563597Y-108719057D01*
X108575333Y-108697101D01*
X108582560Y-108673276D01*
X108585000Y-108648500D01*
X108585000Y-107547000D01*
X117270428Y-107547000D01*
X117273500Y-109061250D01*
X117432250Y-109220000D01*
X118681500Y-109220000D01*
X118681500Y-107070750D01*
X118522750Y-106912000D01*
X117908500Y-106908928D01*
X117784018Y-106921188D01*
X117664320Y-106957498D01*
X117554006Y-107016463D01*
X117457315Y-107095815D01*
X117377963Y-107192506D01*
X117318998Y-107302820D01*
X117282688Y-107422518D01*
X117270428Y-107547000D01*
X108585000Y-107547000D01*
X108585000Y-106870500D01*
X120332500Y-106870500D01*
X120332500Y-107416545D01*
G37*
X120332500Y-107416545D02*
X120298002Y-107302820D01*
X120239037Y-107192506D01*
X120159685Y-107095815D01*
X120062994Y-107016463D01*
X119952680Y-106957498D01*
X119832982Y-106921188D01*
X119708500Y-106908928D01*
X119094250Y-106912000D01*
X118935500Y-107070750D01*
X118935500Y-109220000D01*
X118955500Y-109220000D01*
X118955500Y-109474000D01*
X118935500Y-109474000D01*
X118935500Y-111623250D01*
X119094250Y-111782000D01*
X119708500Y-111785072D01*
X119832982Y-111772812D01*
X119952680Y-111736502D01*
X120062994Y-111677537D01*
X120159685Y-111598185D01*
X120239037Y-111501494D01*
X120298002Y-111391180D01*
X120332500Y-111277455D01*
X120332500Y-113284000D01*
X92392500Y-113284000D01*
X92392500Y-112120699D01*
X92471506Y-112185537D01*
X92581820Y-112244502D01*
X92701518Y-112280812D01*
X92826000Y-112293072D01*
X93440250Y-112290000D01*
X93599000Y-112131250D01*
X93599000Y-109982000D01*
X93853000Y-109982000D01*
X93853000Y-112131250D01*
X94011750Y-112290000D01*
X94626000Y-112293072D01*
X94750482Y-112280812D01*
X94870180Y-112244502D01*
X94980494Y-112185537D01*
X95077185Y-112106185D01*
X95156537Y-112009494D01*
X95215502Y-111899180D01*
X95251812Y-111779482D01*
X95264072Y-111655000D01*
X95261000Y-110140750D01*
X95102250Y-109982000D01*
X93853000Y-109982000D01*
X93599000Y-109982000D01*
X93579000Y-109982000D01*
X93579000Y-109728000D01*
X93599000Y-109728000D01*
X93599000Y-109708000D01*
X93853000Y-109708000D01*
X93853000Y-109728000D01*
X95102250Y-109728000D01*
X95261000Y-109569250D01*
X95264072Y-108055000D01*
X95251812Y-107930518D01*
X95219197Y-107823000D01*
X96583500Y-107823000D01*
X96583500Y-108648500D01*
X96585940Y-108673276D01*
X96593167Y-108697101D01*
X96604903Y-108719057D01*
X96620697Y-108738303D01*
X96639943Y-108754097D01*
X96661899Y-108765833D01*
X96685724Y-108773060D01*
X96710500Y-108775500D01*
X97281252Y-108775500D01*
X97271000Y-108879593D01*
X97271000Y-110830408D01*
X97293211Y-111055913D01*
X97380984Y-111345261D01*
X97523520Y-111611927D01*
X97715340Y-111845661D01*
X97949074Y-112037481D01*
X98215740Y-112180017D01*
X98505088Y-112267790D01*
X98806000Y-112297427D01*
X99106913Y-112267790D01*
X99396261Y-112180017D01*
X99662927Y-112037481D01*
X99896661Y-111845661D01*
X100088481Y-111611927D01*
X100231017Y-111345261D01*
X100291158Y-111147000D01*
X117270428Y-111147000D01*
X117282688Y-111271482D01*
X117318998Y-111391180D01*
X117377963Y-111501494D01*
X117457315Y-111598185D01*
X117554006Y-111677537D01*
X117664320Y-111736502D01*
X117784018Y-111772812D01*
X117908500Y-111785072D01*
X118522750Y-111782000D01*
X118681500Y-111623250D01*
X118681500Y-109474000D01*
X117432250Y-109474000D01*
X117273500Y-109632750D01*
X117270428Y-111147000D01*
X100291158Y-111147000D01*
X100318790Y-111055913D01*
X100341000Y-110830408D01*
X100341000Y-108879592D01*
X100330748Y-108775500D01*
X108458000Y-108775500D01*
X108482776Y-108773060D01*
X108506601Y-108765833D01*
X108528557Y-108754097D01*
X108547803Y-108738303D01*
X108563597Y-108719057D01*
X108575333Y-108697101D01*
X108582560Y-108673276D01*
X108585000Y-108648500D01*
X108585000Y-107547000D01*
X117270428Y-107547000D01*
X117273500Y-109061250D01*
X117432250Y-109220000D01*
X118681500Y-109220000D01*
X118681500Y-107070750D01*
X118522750Y-106912000D01*
X117908500Y-106908928D01*
X117784018Y-106921188D01*
X117664320Y-106957498D01*
X117554006Y-107016463D01*
X117457315Y-107095815D01*
X117377963Y-107192506D01*
X117318998Y-107302820D01*
X117282688Y-107422518D01*
X117270428Y-107547000D01*
X108585000Y-107547000D01*
X108585000Y-106870500D01*
X120332500Y-106870500D01*
X120332500Y-107416545D01*
G36*
X133921500Y-107010070D02*
G01*
X133104449Y-106448347D01*
X133078090Y-106434465D01*
X131427090Y-105799465D01*
X131403089Y-105792848D01*
X131381500Y-105791000D01*
X129984500Y-105791000D01*
X129959724Y-105793440D01*
X129929705Y-105803429D01*
X128469205Y-106501929D01*
X128439626Y-106521579D01*
X127904215Y-106997500D01*
X124398051Y-106997500D01*
X124189412Y-106934210D01*
X123888500Y-106904573D01*
X123587587Y-106934210D01*
X123378948Y-106997500D01*
X120027517Y-106997500D01*
X119952680Y-106957498D01*
X119832982Y-106921188D01*
X119708500Y-106908928D01*
X119094250Y-106912000D01*
X119008750Y-106997500D01*
X118608250Y-106997500D01*
X118522750Y-106912000D01*
X117908500Y-106908928D01*
X117784018Y-106921188D01*
X117664320Y-106957498D01*
X117589483Y-106997500D01*
X117030500Y-106997500D01*
X117030500Y-102933500D01*
X133921500Y-102933500D01*
X133921500Y-107010070D01*
G37*
X133921500Y-107010070D02*
X133104449Y-106448347D01*
X133078090Y-106434465D01*
X131427090Y-105799465D01*
X131403089Y-105792848D01*
X131381500Y-105791000D01*
X129984500Y-105791000D01*
X129959724Y-105793440D01*
X129929705Y-105803429D01*
X128469205Y-106501929D01*
X128439626Y-106521579D01*
X127904215Y-106997500D01*
X124398051Y-106997500D01*
X124189412Y-106934210D01*
X123888500Y-106904573D01*
X123587587Y-106934210D01*
X123378948Y-106997500D01*
X120027517Y-106997500D01*
X119952680Y-106957498D01*
X119832982Y-106921188D01*
X119708500Y-106908928D01*
X119094250Y-106912000D01*
X119008750Y-106997500D01*
X118608250Y-106997500D01*
X118522750Y-106912000D01*
X117908500Y-106908928D01*
X117784018Y-106921188D01*
X117664320Y-106957498D01*
X117589483Y-106997500D01*
X117030500Y-106997500D01*
X117030500Y-102933500D01*
X133921500Y-102933500D01*
X133921500Y-107010070D01*
G36*
X133921500Y-84322818D02*
G01*
X131000500Y-84205978D01*
X131000500Y-74930000D01*
X131048571Y-74930000D01*
X131171740Y-74954500D01*
X131464260Y-74954500D01*
X131587429Y-74930000D01*
X132334000Y-74930000D01*
X132358776Y-74927560D01*
X132382601Y-74920333D01*
X132404557Y-74908597D01*
X132423803Y-74892803D01*
X132677803Y-74638803D01*
X132693597Y-74619557D01*
X132705333Y-74597601D01*
X132712560Y-74573776D01*
X132715000Y-74549000D01*
X132715000Y-73977335D01*
X132745932Y-73902658D01*
X132803000Y-73615760D01*
X132803000Y-73323240D01*
X132745932Y-73036342D01*
X132715000Y-72961665D01*
X132715000Y-72136000D01*
X132712560Y-72111224D01*
X132711890Y-72109014D01*
X132757502Y-72023680D01*
X132793812Y-71903982D01*
X132806072Y-71779500D01*
X132803000Y-71215250D01*
X132644250Y-71056500D01*
X131445000Y-71056500D01*
X131445000Y-71076500D01*
X131191000Y-71076500D01*
X131191000Y-71056500D01*
X131171000Y-71056500D01*
X131171000Y-70802500D01*
X131191000Y-70802500D01*
X131191000Y-70782500D01*
X131445000Y-70782500D01*
X131445000Y-70802500D01*
X132644250Y-70802500D01*
X132803000Y-70643750D01*
X132806072Y-70079500D01*
X132795977Y-69977000D01*
X133921500Y-69977000D01*
X133921500Y-84322818D01*
G37*
X133921500Y-84322818D02*
X131000500Y-84205978D01*
X131000500Y-74930000D01*
X131048571Y-74930000D01*
X131171740Y-74954500D01*
X131464260Y-74954500D01*
X131587429Y-74930000D01*
X132334000Y-74930000D01*
X132358776Y-74927560D01*
X132382601Y-74920333D01*
X132404557Y-74908597D01*
X132423803Y-74892803D01*
X132677803Y-74638803D01*
X132693597Y-74619557D01*
X132705333Y-74597601D01*
X132712560Y-74573776D01*
X132715000Y-74549000D01*
X132715000Y-73977335D01*
X132745932Y-73902658D01*
X132803000Y-73615760D01*
X132803000Y-73323240D01*
X132745932Y-73036342D01*
X132715000Y-72961665D01*
X132715000Y-72136000D01*
X132712560Y-72111224D01*
X132711890Y-72109014D01*
X132757502Y-72023680D01*
X132793812Y-71903982D01*
X132806072Y-71779500D01*
X132803000Y-71215250D01*
X132644250Y-71056500D01*
X131445000Y-71056500D01*
X131445000Y-71076500D01*
X131191000Y-71076500D01*
X131191000Y-71056500D01*
X131171000Y-71056500D01*
X131171000Y-70802500D01*
X131191000Y-70802500D01*
X131191000Y-70782500D01*
X131445000Y-70782500D01*
X131445000Y-70802500D01*
X132644250Y-70802500D01*
X132803000Y-70643750D01*
X132806072Y-70079500D01*
X132795977Y-69977000D01*
X133921500Y-69977000D01*
X133921500Y-84322818D01*
G36*
X129222500Y-85894930D02*
G01*
X124756092Y-85221909D01*
X121921965Y-83620011D01*
X121975286Y-81593805D01*
X122162091Y-81407000D01*
X125666500Y-81407000D01*
X125691276Y-81404560D01*
X125715101Y-81397333D01*
X125737057Y-81385597D01*
X125756303Y-81369803D01*
X125772097Y-81350557D01*
X125783833Y-81328601D01*
X125791060Y-81304776D01*
X125793500Y-81280000D01*
X125793500Y-80902211D01*
X125835437Y-80860274D01*
X125948705Y-80690756D01*
X126026726Y-80502398D01*
X126066500Y-80302439D01*
X126066500Y-80098561D01*
X126026726Y-79898602D01*
X125948705Y-79710244D01*
X125835437Y-79540726D01*
X125793500Y-79498789D01*
X125793500Y-79121000D01*
X125791060Y-79096224D01*
X125783833Y-79072399D01*
X125772097Y-79050443D01*
X125756303Y-79031197D01*
X125737057Y-79015403D01*
X125715101Y-79003667D01*
X125691276Y-78996440D01*
X125666500Y-78994000D01*
X122318394Y-78994000D01*
X123928985Y-77851000D01*
X129222500Y-77851000D01*
X129222500Y-85894930D01*
G37*
X129222500Y-85894930D02*
X124756092Y-85221909D01*
X121921965Y-83620011D01*
X121975286Y-81593805D01*
X122162091Y-81407000D01*
X125666500Y-81407000D01*
X125691276Y-81404560D01*
X125715101Y-81397333D01*
X125737057Y-81385597D01*
X125756303Y-81369803D01*
X125772097Y-81350557D01*
X125783833Y-81328601D01*
X125791060Y-81304776D01*
X125793500Y-81280000D01*
X125793500Y-80902211D01*
X125835437Y-80860274D01*
X125948705Y-80690756D01*
X126026726Y-80502398D01*
X126066500Y-80302439D01*
X126066500Y-80098561D01*
X126026726Y-79898602D01*
X125948705Y-79710244D01*
X125835437Y-79540726D01*
X125793500Y-79498789D01*
X125793500Y-79121000D01*
X125791060Y-79096224D01*
X125783833Y-79072399D01*
X125772097Y-79050443D01*
X125756303Y-79031197D01*
X125737057Y-79015403D01*
X125715101Y-79003667D01*
X125691276Y-78996440D01*
X125666500Y-78994000D01*
X122318394Y-78994000D01*
X123928985Y-77851000D01*
X129222500Y-77851000D01*
X129222500Y-85894930D01*
G36*
X122682000Y-83593842D02*
G01*
X121920000Y-83784342D01*
X121920000Y-81649091D01*
X122098591Y-81470500D01*
X122682000Y-81470500D01*
X122682000Y-83593842D01*
G37*
X122682000Y-83593842D02*
X121920000Y-83784342D01*
X121920000Y-81649091D01*
X122098591Y-81470500D01*
X122682000Y-81470500D01*
X122682000Y-83593842D01*
G36*
X129603500Y-85588973D02*
G01*
X127691168Y-84070357D01*
X126999041Y-78470422D01*
X126993580Y-78446132D01*
X126983485Y-78423374D01*
X126969144Y-78403023D01*
X126951109Y-78385860D01*
X126930072Y-78372546D01*
X126906842Y-78363592D01*
X126882311Y-78359342D01*
X126867601Y-78359115D01*
X123883101Y-78486115D01*
X123858450Y-78489606D01*
X123828735Y-78500941D01*
X122904249Y-78994000D01*
X120840500Y-78994000D01*
X120840500Y-75311000D01*
X129603500Y-75311000D01*
X129603500Y-85588973D01*
G37*
X129603500Y-85588973D02*
X127691168Y-84070357D01*
X126999041Y-78470422D01*
X126993580Y-78446132D01*
X126983485Y-78423374D01*
X126969144Y-78403023D01*
X126951109Y-78385860D01*
X126930072Y-78372546D01*
X126906842Y-78363592D01*
X126882311Y-78359342D01*
X126867601Y-78359115D01*
X123883101Y-78486115D01*
X123858450Y-78489606D01*
X123828735Y-78500941D01*
X122904249Y-78994000D01*
X120840500Y-78994000D01*
X120840500Y-75311000D01*
X129603500Y-75311000D01*
X129603500Y-85588973D01*
G36*
X133921500Y-102936488D02*
G01*
X131508500Y-102993940D01*
X131508500Y-84201000D01*
X133921500Y-84201000D01*
X133921500Y-102936488D01*
G37*
X133921500Y-102936488D02*
X131508500Y-102993940D01*
X131508500Y-84201000D01*
X133921500Y-84201000D01*
X133921500Y-102936488D01*
G36*
X131616067Y-84264500D02*
G01*
X131000500Y-84264500D01*
X131000500Y-84074000D01*
X131588853Y-84074000D01*
X131616067Y-84264500D01*
G37*
X131616067Y-84264500D02*
X131000500Y-84264500D01*
X131000500Y-84074000D01*
X131588853Y-84074000D01*
X131616067Y-84264500D01*
G36*
X124523500Y-36971990D02*
G01*
X124523500Y-41148000D01*
X124525940Y-41172776D01*
X124533167Y-41196601D01*
X124544903Y-41218557D01*
X124560697Y-41237803D01*
X124579943Y-41253597D01*
X124601899Y-41265333D01*
X124625724Y-41272560D01*
X124650500Y-41275000D01*
X125666500Y-41275000D01*
X125666500Y-45974000D01*
X125111407Y-45974000D01*
X125137502Y-45925180D01*
X125173812Y-45805482D01*
X125186072Y-45681000D01*
X125186072Y-43981000D01*
X125173812Y-43856518D01*
X125137502Y-43736820D01*
X125078537Y-43626506D01*
X124999185Y-43529815D01*
X124902494Y-43450463D01*
X124792180Y-43391498D01*
X124672482Y-43355188D01*
X124548000Y-43342928D01*
X122848000Y-43342928D01*
X122723518Y-43355188D01*
X122603820Y-43391498D01*
X122493506Y-43450463D01*
X122396815Y-43529815D01*
X122317463Y-43626506D01*
X122258498Y-43736820D01*
X122222188Y-43856518D01*
X122209928Y-43981000D01*
X122209928Y-45681000D01*
X122222188Y-45805482D01*
X122258498Y-45925180D01*
X122284593Y-45974000D01*
X118300500Y-45974000D01*
X118300500Y-37200436D01*
X123990779Y-36705629D01*
X124523500Y-36971990D01*
G37*
X124523500Y-36971990D02*
X124523500Y-41148000D01*
X124525940Y-41172776D01*
X124533167Y-41196601D01*
X124544903Y-41218557D01*
X124560697Y-41237803D01*
X124579943Y-41253597D01*
X124601899Y-41265333D01*
X124625724Y-41272560D01*
X124650500Y-41275000D01*
X125666500Y-41275000D01*
X125666500Y-45974000D01*
X125111407Y-45974000D01*
X125137502Y-45925180D01*
X125173812Y-45805482D01*
X125186072Y-45681000D01*
X125186072Y-43981000D01*
X125173812Y-43856518D01*
X125137502Y-43736820D01*
X125078537Y-43626506D01*
X124999185Y-43529815D01*
X124902494Y-43450463D01*
X124792180Y-43391498D01*
X124672482Y-43355188D01*
X124548000Y-43342928D01*
X122848000Y-43342928D01*
X122723518Y-43355188D01*
X122603820Y-43391498D01*
X122493506Y-43450463D01*
X122396815Y-43529815D01*
X122317463Y-43626506D01*
X122258498Y-43736820D01*
X122222188Y-43856518D01*
X122209928Y-43981000D01*
X122209928Y-45681000D01*
X122222188Y-45805482D01*
X122258498Y-45925180D01*
X122284593Y-45974000D01*
X118300500Y-45974000D01*
X118300500Y-37200436D01*
X123990779Y-36705629D01*
X124523500Y-36971990D01*
G36*
X125666500Y-46799500D02*
G01*
X125668940Y-46824276D01*
X125676167Y-46848101D01*
X125687903Y-46870057D01*
X125703697Y-46889303D01*
X125722943Y-46905097D01*
X125744899Y-46916833D01*
X125768724Y-46924060D01*
X125793500Y-46926500D01*
X126361789Y-46926500D01*
X126403726Y-46968437D01*
X126573244Y-47081705D01*
X126761602Y-47159726D01*
X126961561Y-47199500D01*
X127165439Y-47199500D01*
X127365398Y-47159726D01*
X127553756Y-47081705D01*
X127635000Y-47027420D01*
X127635000Y-63882419D01*
X122237500Y-63943065D01*
X122237500Y-45855959D01*
X122258498Y-45925180D01*
X122317463Y-46035494D01*
X122396815Y-46132185D01*
X122493506Y-46211537D01*
X122603820Y-46270502D01*
X122723518Y-46306812D01*
X122848000Y-46319072D01*
X124548000Y-46319072D01*
X124672482Y-46306812D01*
X124792180Y-46270502D01*
X124902494Y-46211537D01*
X124999185Y-46132185D01*
X125078537Y-46035494D01*
X125137502Y-45925180D01*
X125173812Y-45805482D01*
X125186072Y-45681000D01*
X125186072Y-45265966D01*
X125666500Y-45174850D01*
X125666500Y-46799500D01*
G37*
X125666500Y-46799500D02*
X125668940Y-46824276D01*
X125676167Y-46848101D01*
X125687903Y-46870057D01*
X125703697Y-46889303D01*
X125722943Y-46905097D01*
X125744899Y-46916833D01*
X125768724Y-46924060D01*
X125793500Y-46926500D01*
X126361789Y-46926500D01*
X126403726Y-46968437D01*
X126573244Y-47081705D01*
X126761602Y-47159726D01*
X126961561Y-47199500D01*
X127165439Y-47199500D01*
X127365398Y-47159726D01*
X127553756Y-47081705D01*
X127635000Y-47027420D01*
X127635000Y-63882419D01*
X122237500Y-63943065D01*
X122237500Y-45855959D01*
X122258498Y-45925180D01*
X122317463Y-46035494D01*
X122396815Y-46132185D01*
X122493506Y-46211537D01*
X122603820Y-46270502D01*
X122723518Y-46306812D01*
X122848000Y-46319072D01*
X124548000Y-46319072D01*
X124672482Y-46306812D01*
X124792180Y-46270502D01*
X124902494Y-46211537D01*
X124999185Y-46132185D01*
X125078537Y-46035494D01*
X125137502Y-45925180D01*
X125173812Y-45805482D01*
X125186072Y-45681000D01*
X125186072Y-45265966D01*
X125666500Y-45174850D01*
X125666500Y-46799500D01*
G36*
X127635000Y-63557206D02*
G01*
X127635000Y-75677601D01*
X124142500Y-77453449D01*
X124142500Y-63379622D01*
X127635000Y-63557206D01*
G37*
X127635000Y-63557206D02*
X127635000Y-75677601D01*
X124142500Y-77453449D01*
X124142500Y-63379622D01*
X127635000Y-63557206D01*
G36*
X126105985Y-75319003D02*
G01*
X122301000Y-75556814D01*
X122301000Y-63246000D01*
X125608129Y-63246000D01*
X126105985Y-75319003D01*
G37*
X126105985Y-75319003D02*
X122301000Y-75556814D01*
X122301000Y-63246000D01*
X125608129Y-63246000D01*
X126105985Y-75319003D01*
G36*
X124906616Y-63685190D02*
G01*
X125093309Y-74326686D01*
X122237500Y-75142632D01*
X122237500Y-63569142D01*
X124906616Y-63685190D01*
G37*
X124906616Y-63685190D02*
X125093309Y-74326686D01*
X122237500Y-75142632D01*
X122237500Y-63569142D01*
X124906616Y-63685190D01*
M02*
