M48
; DRILL file {KiCad (5.1.9)-1} date 02/19/21 13:41:32
; FORMAT={-:-/ absolute / inch / decimal}
; #@! TF.CreationDate,2021-02-19T13:41:32+01:00
; #@! TF.GenerationSoftware,Kicad,Pcbnew,(5.1.9)-1
FMAT,2
INCH
T1C0.0079
T2C0.0157
T3C0.0394
T4C0.0472
T5C0.0551
T6C0.0701
T7C0.1260
%
G90
G05
T1
X1.3106Y-1.1856
X1.3106Y-1.225
X1.3106Y-1.2644
X1.35Y-1.1856
X1.35Y-1.225
X1.35Y-1.2644
X1.3894Y-1.1856
X1.3894Y-1.225
X1.3894Y-1.2644
X2.0806Y-1.1856
X2.0806Y-1.225
X2.0806Y-1.2644
X2.12Y-1.1856
X2.12Y-1.225
X2.12Y-1.2644
X2.1594Y-1.1856
X2.1594Y-1.225
X2.1594Y-1.2644
X2.8456Y-1.1856
X2.8456Y-1.225
X2.8456Y-1.2644
X2.885Y-1.1856
X2.885Y-1.225
X2.885Y-1.2644
X2.9244Y-1.1856
X2.9244Y-1.225
X2.9244Y-1.2644
X3.6156Y-1.1856
X3.6156Y-1.225
X3.6156Y-1.2644
X3.655Y-1.1856
X3.655Y-1.225
X3.655Y-1.2644
X3.6944Y-1.1856
X3.6944Y-1.225
X3.6944Y-1.2644
X4.4006Y-1.1856
X4.4006Y-1.225
X4.4006Y-1.2644
X4.44Y-1.1856
X4.44Y-1.225
X4.44Y-1.2644
X4.4794Y-1.1856
X4.4794Y-1.225
X4.4794Y-1.2644
T2
X1.0513Y-0.91
X1.065Y-1.13
X1.215Y-1.125
X1.22Y-1.08
X1.325Y-0.92
X1.36Y-0.89
X1.47Y-1.09
X1.545Y-1.085
X1.5525Y-1.435
X1.655Y-1.795
X1.7775Y-2.645
X1.78Y-2.69
X1.7825Y-2.1175
X1.7825Y-2.165
X1.785Y-2.2075
X1.795Y-1.4525
X1.8175Y-2.7225
X1.82Y-0.9063
X1.83Y-2.1425
X1.83Y-2.1875
X1.84Y-1.12
X1.8475Y-2.645
X1.8475Y-2.685
X1.855Y-3.1575
X1.855Y-3.2125
X1.87Y-1.59
X1.875Y-2.12
X1.875Y-2.1675
X1.8775Y-2.2075
X1.885Y-1.745
X1.89Y-3.744
X1.8929Y-3.8129
X1.9025Y-2.645
X1.9025Y-3.1575
X1.9175Y-2.145
X1.9187Y-2.7163
X1.9274Y-3.1926
X1.935Y-1.785
X1.955Y-2.1925
X1.9675Y-2.1475
X1.9725Y-2.6975
X1.98Y-1.1175
X1.985Y-3.1675
X1.9925Y-2.645
X1.995Y-1.0775
X2.0075Y-2.125
X2.03Y-3.205
X2.075Y-3.805
X2.08Y-1.735
X2.09Y-3.1575
X2.1Y-0.905
X2.1025Y-1.875
X2.1125Y-1.815
X2.14Y-0.865
X2.14Y-1.95
X2.1575Y-1.8225
X2.245Y-1.09
X2.29Y-1.345
X2.335Y-1.08
X2.335Y-2.095
X2.3475Y-1.4525
X2.3556Y-3.7819
X2.38Y-2.29
X2.4275Y-3.0275
X2.45Y-2.335
X2.4675Y-3.0275
X2.5562Y-4.1598
X2.5863Y-0.905
X2.605Y-1.115
X2.6262Y-1.9788
X2.6325Y-2.045
X2.6325Y-2.095
X2.642Y-2.248
X2.6481Y-1.6781
X2.6575Y-2.01
X2.67Y-2.35
X2.6825Y-1.5675
X2.705Y-1.68
X2.715Y-2.8075
X2.725Y-2.045
X2.7325Y-2.4275
X2.735Y-1.98
X2.735Y-2.6775
X2.745Y-1.1125
X2.755Y-1.07
X2.755Y-2.11
X2.761Y-2.639
X2.7625Y-2.7675
X2.775Y-2.95
X2.775Y-3.055
X2.775Y-3.14
X2.775Y-3.2425
X2.775Y-3.3675
X2.775Y-3.4775
X2.78Y-1.745
X2.7825Y-1.7925
X2.7825Y-2.2375
X2.7925Y-2.1775
X2.8275Y-3.925
X2.8475Y-2.2425
X2.85Y-1.8
X2.865Y-0.905
X2.8825Y-2.1925
X2.89Y-2.1275
X2.8969Y-2.6481
X2.9Y-2.015
X2.905Y-0.87
X2.935Y-2.44
X2.975Y-1.67
X2.975Y-1.985
X2.975Y-2.04
X3.015Y-1.07
X3.0162Y-1.6562
X3.0272Y-4.2928
X3.05Y-1.35
X3.055Y-2.6375
X3.06Y-1.98
X3.06Y-2.22
X3.06Y-2.27
X3.0725Y-2.0375
X3.0892Y-1.6658
X3.1Y-1.08
X3.105Y-1.3125
X3.1574Y-3.5451
X3.165Y-1.5775
X3.1775Y-1.525
X3.195Y-1.38
X3.2Y-2.5275
X3.2309Y-2.9216
X3.245Y-2.325
X3.295Y-2.315
X3.355Y-0.91
X3.37Y-1.685
X3.375Y-1.12
X3.375Y-1.73
X3.4207Y-1.7393
X3.435Y-2.8
X3.4375Y-2.69
X3.4385Y-2.646
X3.44Y-2.205
X3.46Y-1.695
X3.4725Y-2.6175
X3.49Y-2.205
X3.515Y-1.115
X3.5175Y-2.6175
X3.525Y-1.065
X3.59Y-2.21
X3.635Y-0.905
X3.675Y-0.87
X3.725Y-2.8
X3.7675Y-4.3375
X3.775Y-1.085
X3.78Y-1.355
X3.8525Y-2.2825
X3.855Y-2.43
X3.875Y-1.085
X3.945Y-1.27
X3.975Y-3.675
X4.0125Y-3.71
X4.0875Y-3.5575
X4.1281Y-0.9131
X4.135Y-1.6925
X4.16Y-1.11
X4.16Y-2.21
X4.185Y-3.6675
X4.19Y-3.59
X4.2675Y-3.0425
X4.3Y-1.11
X4.31Y-1.065
X4.3425Y-3.24
X4.3887Y-3.2412
X4.4175Y-2.43
X4.42Y-0.905
X4.4575Y-0.87
X4.465Y-2.56
X4.5125Y-2.565
X4.5225Y-2.445
X4.57Y-1.075
X4.605Y-1.34
X4.65Y-1.08
T3
X1.0Y-1.925
X1.0Y-2.025
X1.145Y-1.925
X1.145Y-2.025
X1.195Y-0.775
X1.295Y-0.775
X1.39Y-1.575
X1.395Y-0.775
X1.49Y-1.575
X1.495Y-0.775
X1.76Y-1.595
X1.76Y-1.695
X1.76Y-1.795
X1.97Y-0.775
X2.07Y-0.775
X2.17Y-0.775
X2.17Y-1.575
X2.22Y-2.625
X2.26Y-1.765
X2.26Y-1.865
X2.26Y-1.965
X2.26Y-2.065
X2.26Y-2.165
X2.26Y-2.265
X2.26Y-2.365
X2.27Y-0.775
X2.27Y-1.575
X2.32Y-2.625
X2.375Y-2.94
X2.3755Y-3.24
X2.3765Y-3.537
X2.42Y-2.625
X2.475Y-2.94
X2.4755Y-3.24
X2.4765Y-3.537
X2.52Y-2.625
X2.5275Y-4.4275
X2.575Y-2.94
X2.5755Y-3.24
X2.5765Y-3.537
X2.6275Y-4.4275
X2.735Y-0.775
X2.775Y-3.595
X2.775Y-3.695
X2.835Y-0.775
X2.93Y-1.575
X2.935Y-0.775
X3.03Y-1.575
X3.035Y-0.775
X3.275Y-1.525
X3.275Y-1.625
X3.275Y-1.725
X3.275Y-1.825
X3.425Y-3.74
X3.425Y-3.84
X3.425Y-3.94
X3.425Y-4.04
X3.425Y-4.14
X3.425Y-4.24
X3.425Y-4.34
X3.425Y-4.44
X3.505Y-0.775
X3.57Y-1.782
X3.57Y-1.882
X3.57Y-1.982
X3.605Y-0.775
X3.7Y-1.575
X3.705Y-0.775
X3.71Y-1.782
X3.71Y-1.882
X3.71Y-1.982
X3.74Y-2.59
X3.805Y-0.775
X3.8075Y-2.8175
X3.8075Y-2.9175
X3.8075Y-3.0175
X3.8075Y-3.1175
X3.8075Y-3.2175
X3.8075Y-3.3175
X3.84Y-2.59
X3.85Y-1.782
X3.85Y-1.882
X3.85Y-1.982
X3.985Y-2.23
X3.985Y-2.33
X3.985Y-2.43
X3.985Y-2.53
X4.15Y-1.88
X4.15Y-1.98
X4.15Y-2.08
X4.29Y-0.775
X4.325Y-3.74
X4.325Y-3.84
X4.325Y-3.94
X4.325Y-4.04
X4.325Y-4.14
X4.325Y-4.24
X4.325Y-4.34
X4.325Y-4.44
X4.39Y-0.775
X4.42Y-1.9
X4.42Y-2.0
X4.42Y-2.1
X4.42Y-2.2
X4.42Y-2.3
X4.42Y-2.755
X4.42Y-2.855
X4.42Y-2.955
X4.42Y-3.055
X4.42Y-3.155
X4.485Y-1.575
X4.49Y-0.775
X4.52Y-1.9
X4.52Y-2.0
X4.52Y-2.1
X4.52Y-2.2
X4.52Y-2.3
X4.52Y-2.755
X4.52Y-2.855
X4.52Y-2.955
X4.52Y-3.055
X4.52Y-3.155
X4.59Y-0.775
T4
X0.995Y-2.28
X0.995Y-2.48
X0.995Y-2.785
X0.995Y-2.985
T5
X1.03Y-3.335
X1.03Y-3.635
X1.115Y-4.0
X1.115Y-4.3
T6
X1.3936Y-3.95
X1.3936Y-4.3406
X1.5275Y-3.95
X1.5275Y-4.3406
T7
X1.05Y-1.625
X1.715Y-3.74
X4.02Y-1.505
X4.5925Y-4.345
T0
M30
