M48
; DRILL file {KiCad (5.1.5)-3} date 30.08.2020 19:14:01
; FORMAT={-:-/ absolute / inch / decimal}
; #@! TF.CreationDate,2020-08-30T19:14:01+02:00
; #@! TF.GenerationSoftware,Kicad,Pcbnew,(5.1.5)-3
FMAT,2
INCH
T1C0.0079
T2C0.0157
T3C0.0394
T4C0.0472
T5C0.0551
T6C0.0787
T7C0.0945
T8C0.1260
%
G90
G05
T1
X3.9731Y-1.2406
X3.9731Y-1.28
X3.9731Y-1.3194
X4.0125Y-1.2406
X4.0125Y-1.28
X4.0125Y-1.3194
X4.0519Y-1.2406
X4.0519Y-1.28
X4.0519Y-1.3194
X2.2403Y-1.2373
X2.2403Y-1.2767
X2.2403Y-1.316
X2.2797Y-1.2373
X2.2797Y-1.2767
X2.2797Y-1.316
X2.3191Y-1.2373
X2.3191Y-1.2767
X2.3191Y-1.316
X4.8306Y-1.2409
X4.8306Y-1.2803
X4.8306Y-1.3197
X4.87Y-1.2409
X4.87Y-1.2803
X4.87Y-1.3197
X4.9094Y-1.2409
X4.9094Y-1.2803
X4.9094Y-1.3197
X3.1256Y-1.2406
X3.1256Y-1.28
X3.1256Y-1.3194
X3.165Y-1.2406
X3.165Y-1.28
X3.165Y-1.3194
X3.2044Y-1.2406
X3.2044Y-1.28
X3.2044Y-1.3194
X1.3997Y-1.2371
X1.3997Y-1.2765
X1.3997Y-1.3158
X1.4391Y-1.2371
X1.4391Y-1.2765
X1.4391Y-1.3158
X1.4784Y-1.2371
X1.4784Y-1.2765
X1.4784Y-1.3158
T2
X1.06Y-2.764
X1.0629Y-2.8329
X1.1Y-1.12
X1.1Y-1.32
X1.19Y-1.12
X1.21Y-0.8807
X1.245Y-2.825
X1.275Y-1.395
X1.33Y-1.14
X1.41Y-0.95
X1.47Y-0.95
X1.55Y-1.14
X1.655Y-1.635
X1.66Y-1.14
X1.7Y-2.17
X1.7262Y-3.1798
X1.74Y-1.675
X1.905Y-1.695
X1.915Y-1.635
X1.92Y-1.1163
X1.93Y-1.34
X2.015Y-1.995
X2.02Y-0.9
X2.02Y-1.12
X2.045Y-2.325
X2.085Y-1.925
X2.09Y-1.42
X2.095Y-2.46
X2.16Y-1.14
X2.25Y-0.96
X2.29Y-2.29
X2.31Y-0.96
X2.375Y-2.375
X2.41Y-1.14
X2.46Y-2.1
X2.475Y-2.265
X2.475Y-2.535
X2.4925Y-2.71
X2.505Y-3.26
X2.5093Y-2.23
X2.51Y-1.13
X2.515Y-3.175
X2.525Y-2.53
X2.53Y-3.135
X2.545Y-2.34
X2.55Y-3.255
X2.565Y-3.1
X2.58Y-2.925
X2.59Y-2.58
X2.592Y-1.983
X2.592Y-2.188
X2.592Y-2.278
X2.6Y-3.07
X2.6195Y-2.6205
X2.645Y-2.5325
X2.645Y-2.8425
X2.66Y-1.99
X2.66Y-2.1
X2.6725Y-2.1925
X2.708Y-3.344
X2.725Y-2.005
X2.735Y-2.385
X2.74Y-3.15
X2.755Y-3.09
X2.79Y-2.53
X2.8Y-1.115
X2.8075Y-2.0075
X2.81Y-2.095
X2.82Y-3.075
X2.825Y-2.7075
X2.835Y-1.37
X2.8623Y-3.0237
X2.865Y-2.135
X2.865Y-2.225
X2.895Y-0.905
X2.895Y-1.125
X2.9675Y-2.495
X2.98Y-2.63
X2.98Y-2.695
X2.9825Y-2.45
X2.9925Y-1.4375
X3.01Y-2.655
X3.02Y-2.71
X3.0265Y-2.152
X3.04Y-1.145
X3.045Y-2.62
X3.06Y-2.005
X3.06Y-2.08
X3.0655Y-2.4495
X3.08Y-2.902
X3.11Y-2.444
X3.1125Y-2.0775
X3.126Y-2.894
X3.14Y-0.91
X3.142Y-2.566
X3.145Y-1.97
X3.152Y-2.444
X3.16Y-3.99
X3.198Y-2.19
X3.2Y-0.915
X3.205Y-1.951
X3.205Y-2.145
X3.21Y-3.99
X3.2225Y-2.2975
X3.2787Y-2.9013
X3.28Y-3.99
X3.2993Y-4.0557
X3.3Y-2.1
X3.305Y-1.15
X3.305Y-1.97
X3.315Y-2.445
X3.33Y-2.58
X3.33Y-3.045
X3.344Y-2.904
X3.345Y-3.085
X3.345Y-3.995
X3.36Y-2.095
X3.36Y-2.655
X3.36Y-2.866
X3.395Y-1.12
X3.396Y-1.89
X3.4102Y-2.8652
X3.415Y-2.09
X3.418Y-2.448
X3.4225Y-1.8175
X3.424Y-2.15
X3.424Y-2.5
X3.43Y-1.99
X3.432Y-2.546
X3.434Y-2.654
X3.4354Y-2.7186
X3.438Y-3.192
X3.449Y-3.137
X3.46Y-3.84
X3.48Y-2.01
X3.5225Y-3.65
X3.5725Y-3.65
X3.58Y-2.958
X3.5875Y-2.715
X3.595Y-1.89
X3.6175Y-3.065
X3.635Y-1.16
X3.665Y-1.365
X3.6675Y-1.975
X3.678Y-2.922
X3.6825Y-3.3475
X3.73Y-2.505
X3.735Y-1.115
X3.7425Y-2.89
X3.745Y-2.3975
X3.755Y-0.91
X3.7825Y-2.5375
X3.795Y-2.5825
X3.8325Y-1.4425
X3.8425Y-3.4675
X3.8575Y-2.72
X3.89Y-1.135
X3.915Y-2.1775
X3.9243Y-2.2907
X3.985Y-0.935
X3.9875Y-3.9125
X3.99Y-1.9475
X3.99Y-3.01
X4.0137Y-3.8687
X4.0322Y-0.9172
X4.0425Y-2.075
X4.0575Y-3.9125
X4.0725Y-3.8175
X4.0744Y-2.5206
X4.0899Y-3.8726
X4.09Y-1.93
X4.09Y-2.015
X4.0925Y-2.1075
X4.1225Y-3.6825
X4.135Y-1.6525
X4.155Y-1.14
X4.1555Y-2.0445
X4.16Y-1.95
X4.2201Y-1.1549
X4.34Y-2.555
X4.3475Y-2.17
X4.5Y-1.155
X4.5075Y-3.0075
X4.53Y-1.365
X4.54Y-1.885
X4.605Y-1.12
X4.61Y-0.91
X4.675Y-1.89
X4.7Y-1.435
X4.745Y-1.135
X4.804Y-2.9865
X4.8275Y-3.0525
X4.835Y-3.4325
X4.835Y-3.5025
X4.8375Y-3.325
X4.8375Y-3.3825
X4.8425Y-3.0075
X4.845Y-0.925
X4.8876Y-3.3274
X4.9Y-0.925
X4.9225Y-3.1575
X4.95Y-1.5249
X5.0025Y-1.8175
X5.01Y-1.145
X5.0751Y-1.1549
T3
X4.21Y-2.2125
X4.21Y-2.3125
X4.21Y-2.4125
X3.865Y-0.785
X3.965Y-0.785
X4.065Y-0.785
X4.165Y-0.785
X2.3Y-3.315
X2.3Y-3.415
X2.3Y-3.515
X2.3Y-3.615
X2.3Y-3.715
X2.4Y-3.315
X2.4Y-3.415
X2.4Y-3.515
X2.4Y-3.615
X2.4Y-3.715
X2.8875Y-1.675
X2.8875Y-1.775
X2.8875Y-1.875
X4.507Y-2.45
X4.607Y-2.45
X4.707Y-2.45
X4.588Y-2.694
X4.588Y-2.794
X1.95Y-3.615
X2.05Y-3.615
X4.72Y-0.785
X4.82Y-0.785
X4.92Y-0.785
X5.02Y-0.785
X1.29Y-0.78
X1.39Y-0.78
X1.49Y-0.78
X1.59Y-0.78
X4.507Y-2.1
X4.607Y-2.1
X4.707Y-2.1
X2.626Y-3.462
X2.726Y-3.462
X2.826Y-3.462
X2.926Y-3.462
X4.53Y-3.28
X4.53Y-3.38
X4.53Y-3.48
X1.842Y-3.418
X1.942Y-3.418
X5.17Y-2.7925
X5.17Y-2.8925
X4.507Y-2.2793
X4.607Y-2.2793
X4.707Y-2.2793
X2.3Y-2.67
X2.3Y-2.77
X2.3Y-2.87
X2.3Y-2.97
X2.3Y-3.07
X2.4Y-2.67
X2.4Y-2.77
X2.4Y-2.87
X2.4Y-2.97
X2.4Y-3.07
X3.01Y-0.78
X3.11Y-0.78
X3.21Y-0.78
X3.31Y-0.78
X3.948Y-3.2815
X3.948Y-3.3815
X3.948Y-3.4815
X3.165Y-1.78
X3.265Y-1.78
X4.2375Y-2.6925
X4.2375Y-2.7925
X4.2375Y-2.8925
X4.2375Y-2.9925
X2.135Y-0.78
X2.235Y-0.78
X2.335Y-0.78
X2.435Y-0.78
X1.4375Y-1.78
X1.5375Y-1.78
X2.28Y-1.78
X2.38Y-1.78
X2.572Y-3.62
X2.672Y-3.62
X2.772Y-3.62
X2.872Y-3.62
X2.972Y-3.62
X3.072Y-3.62
X3.172Y-3.62
X4.87Y-1.765
X2.08Y-2.77
X2.08Y-2.87
X4.245Y-3.2805
X4.245Y-3.3805
X4.245Y-3.4805
X4.02Y-1.76
T4
X4.6775Y-4.305
X4.8775Y-4.305
X3.69Y-4.325
X3.89Y-4.325
T5
X1.055Y-3.685
X1.055Y-3.985
X2.115Y-4.29
X2.415Y-4.29
T6
X1.615Y-3.74
X1.615Y-4.1022
T7
X1.5678Y-3.9211
T8
X0.96Y-4.335
X1.025Y-1.575
X5.15Y-4.32
X5.1475Y-1.745
T0
M30
